<svg width="497" height="402" viewBox="0 0 497 402" fill="none" xmlns="http://www.w3.org/2000/svg">
<g clip-path="url(#clip0_318_32969)">
<rect x="68.3843" y="189.952" width="364.8" height="12" rx="3.6" transform="rotate(11.921 68.3843 189.952)" fill="#EF5350"/>
<path d="M382.5 200.5C382.5 201.826 381.973 203.097 381.036 204.035C380.098 204.973 378.826 205.5 377.5 205.5C376.174 205.5 374.902 204.973 373.964 204.035C373.027 203.097 372.5 201.826 372.5 200.5C372.5 199.173 373.027 197.902 373.964 196.964C374.902 196.026 376.174 195.5 377.5 195.5C378.826 195.5 380.098 196.026 381.036 196.964C381.973 197.902 382.5 199.173 382.5 200.5Z" fill="white"/>
<path fill-rule="evenodd" clip-rule="evenodd" d="M360.604 203.36C361.081 203.288 361.564 203.259 362.046 203.274C362.206 203.282 362.386 203.294 362.592 203.314C367.358 203.81 370.892 207.386 373.248 210.918L373.374 211.106C373.968 211.997 374.772 212.727 375.715 213.231C376.659 213.736 377.712 214 378.782 214H382.5C382.898 214 383.279 214.158 383.561 214.44C383.842 214.721 384 215.103 384 215.5C384 215.898 383.842 216.28 383.561 216.561C383.279 216.842 382.898 217 382.5 217H378.78C377.216 217 375.676 216.614 374.298 215.876C372.919 215.138 371.744 214.072 370.876 212.77L370.752 212.582C370.219 211.777 369.634 211.008 369 210.28L365.232 214.99C364.376 216.058 363.804 216.778 363.418 217.37C363.042 217.942 362.936 218.26 362.908 218.502C362.86 218.902 362.912 219.308 363.054 219.684C363.142 219.912 363.324 220.196 363.826 220.658C364.346 221.138 365.078 221.694 366.17 222.518L366.36 222.664C367.8 223.756 368.8 224.512 369.49 225.52C369.884 226.094 370.194 226.72 370.416 227.38C370.802 228.54 370.802 229.792 370.802 231.6V235.5C370.802 235.898 370.644 236.28 370.363 236.561C370.081 236.842 369.7 237 369.302 237C368.904 237 368.523 236.842 368.241 236.561C367.96 236.28 367.802 235.898 367.802 235.5V231.84C367.802 229.7 367.782 228.97 367.57 228.33C367.438 227.935 367.252 227.559 367.016 227.214C366.636 226.658 366.064 226.204 364.356 224.91L364.3 224.868C363.28 224.096 362.434 223.454 361.796 222.866C361.128 222.252 360.574 221.596 360.252 220.754C359.936 219.927 359.825 219.035 359.928 218.154C360.032 217.258 360.41 216.484 360.908 215.726C361.382 215.002 362.046 214.17 362.844 213.172L366.812 208.214C365.438 207.168 363.924 206.472 362.284 206.302C362.162 206.29 362.039 206.28 361.916 206.274C361.615 206.267 361.314 206.288 361.016 206.334C358.886 206.63 356.752 207.814 352.116 210.448L349.244 212.078C348.898 212.275 348.488 212.327 348.105 212.221C347.721 212.116 347.395 211.862 347.198 211.516C347.001 211.171 346.95 210.761 347.055 210.377C347.161 209.993 347.414 209.667 347.76 209.47L350.632 207.84L350.936 207.666C355.176 205.258 357.834 203.746 360.606 203.364M359.46 224.35C359.765 224.605 359.957 224.971 359.993 225.367C360.029 225.763 359.906 226.157 359.652 226.462L357.652 228.864L357.458 229.096C356.174 230.638 355.232 231.772 353.916 232.388C352.6 233.004 351.126 233.004 349.116 233.002H346.5C346.102 233.002 345.721 232.844 345.439 232.563C345.158 232.282 345 231.9 345 231.502C345 231.105 345.158 230.723 345.439 230.442C345.721 230.16 346.102 230.002 346.5 230.002H348.816C351.26 230.002 352.008 229.968 352.642 229.672C353.278 229.374 353.782 228.82 355.346 226.944L357.346 224.542C357.472 224.391 357.627 224.266 357.801 224.174C357.976 224.082 358.167 224.026 358.363 224.008C358.56 223.99 358.757 224.011 358.946 224.07C359.134 224.129 359.309 224.224 359.46 224.35Z" fill="white"/>
<path d="M330.25 197.5C333.583 197.5 336.375 198.733 338.626 201.2C340.877 203.667 342.001 206.6 342 210C342 210.6 341.967 211.192 341.9 211.776C341.833 212.36 341.717 212.935 341.55 213.5H329.05L325.65 208.4C325.483 208.133 325.25 207.917 324.95 207.75C324.65 207.583 324.333 207.5 324 207.5C323.567 207.5 323.175 207.633 322.826 207.9C322.477 208.167 322.235 208.5 322.1 208.9L319.4 217L317.65 214.4C317.483 214.133 317.25 213.917 316.95 213.75C316.65 213.583 316.333 213.5 316 213.5H302.45C302.283 212.933 302.167 212.359 302.1 211.776C302.033 211.193 302 210.618 302 210.05C302 206.617 303.117 203.667 305.35 201.2C307.583 198.733 310.367 197.5 313.7 197.5C315.3 197.5 316.809 197.817 318.226 198.45C319.643 199.083 320.901 199.967 322 201.1C323.067 199.967 324.309 199.083 325.726 198.45C327.143 197.817 328.651 197.5 330.25 197.5ZM322 233.5C321.4 233.5 320.825 233.392 320.276 233.176C319.727 232.96 319.235 232.635 318.8 232.2L305.4 218.75C305.2 218.55 305.017 218.35 304.85 218.15C304.683 217.95 304.517 217.733 304.35 217.5H314.9L318.3 222.6C318.467 222.867 318.7 223.083 319 223.25C319.3 223.417 319.617 223.5 319.95 223.5C320.383 223.5 320.783 223.367 321.15 223.1C321.517 222.833 321.767 222.5 321.9 222.1L324.6 214L326.3 216.6C326.5 216.867 326.75 217.083 327.05 217.25C327.35 217.417 327.667 217.5 328 217.5H339.6L339.1 218.1L338.6 218.7L325.15 232.2C324.717 232.633 324.233 232.959 323.7 233.176C323.167 233.393 322.6 233.501 322 233.5Z" fill="white"/>
<path d="M157 162.5C157.49 162.5 157.963 162.68 158.329 163.005C158.695 163.331 158.929 163.779 158.986 164.266L159 164.5V196.5C158.999 197.01 158.804 197.5 158.454 197.871C158.104 198.241 157.626 198.464 157.117 198.494C156.608 198.524 156.107 198.359 155.716 198.031C155.325 197.704 155.074 197.24 155.014 196.734L155 196.5V186.5H153C152.51 186.5 152.037 186.32 151.671 185.995C151.305 185.669 151.071 185.221 151.014 184.734L151 184.5V172.5C151 168.08 154 162.5 157 162.5ZM145 162.5C145.49 162.5 145.963 162.68 146.329 163.005C146.695 163.331 146.929 163.779 146.986 164.266L147 164.5V174.5C147 176.274 146.41 177.997 145.324 179.4C144.238 180.802 142.717 181.804 141 182.248V196.5C140.999 197.01 140.804 197.5 140.454 197.871C140.104 198.241 139.626 198.464 139.117 198.494C138.608 198.524 138.107 198.359 137.716 198.031C137.325 197.704 137.074 197.24 137.014 196.734L137 196.5V182.248C135.351 181.822 133.881 180.88 132.804 179.561C131.726 178.242 131.098 176.613 131.01 174.912L131 174.5V164.5C131.001 163.99 131.196 163.5 131.546 163.129C131.896 162.759 132.374 162.536 132.883 162.506C133.392 162.476 133.893 162.641 134.284 162.969C134.675 163.296 134.926 163.76 134.986 164.266L135 164.5V174.5C135 175.202 135.185 175.892 135.536 176.5C135.887 177.108 136.392 177.613 137 177.964V164.5C137.001 163.99 137.196 163.5 137.546 163.129C137.896 162.759 138.374 162.536 138.883 162.506C139.392 162.476 139.893 162.641 140.284 162.969C140.675 163.296 140.926 163.76 140.986 164.266L141 164.5L141.002 177.964C141.56 177.641 142.032 177.189 142.377 176.644C142.723 176.1 142.932 175.48 142.986 174.838L143 174.5V164.5C143 163.97 143.211 163.461 143.586 163.086C143.961 162.711 144.47 162.5 145 162.5Z" fill="white"/>
<path d="M164 174.5L167 204.5H183.5L186.5 174.5H164ZM167.3 177.5H183.2L182.75 182.345C177.77 184.25 175.775 183.005 175.07 182.465C174.695 182.18 174.155 181.535 173.165 181.085C172.175 180.62 170.825 180.5 169.25 180.98C168.635 181.145 168.155 181.415 167.75 181.685L167.3 177.5ZM171.29 183.665C171.575 183.665 171.74 183.725 171.905 183.8C172.25 183.95 172.565 184.325 173.255 184.85C174.545 185.84 177.545 187.04 182.39 185.615L180.8 201.5H169.7L168.065 185.09C168.14 185 168.365 184.835 168.755 184.565C169.25 184.25 169.865 183.92 170 183.875H170.045C170.615 183.71 171.005 183.65 171.29 183.665Z" fill="white"/>
<path d="M35.8906 297.859H37.8994L43.0234 310.61L48.1367 297.859H50.1562L43.7969 313.5H42.2285L35.8906 297.859ZM35.2354 297.859H37.0078L37.2979 307.398V313.5H35.2354V297.859ZM49.0283 297.859H50.8008V313.5H48.7383V307.398L49.0283 297.859ZM60.9951 311.513V305.529C60.9951 305.071 60.902 304.674 60.7158 304.337C60.5368 303.993 60.2646 303.728 59.8994 303.542C59.5342 303.356 59.083 303.263 58.5459 303.263C58.0446 303.263 57.6042 303.349 57.2246 303.521C56.8522 303.692 56.5586 303.918 56.3438 304.197C56.1361 304.477 56.0322 304.777 56.0322 305.1H54.0449C54.0449 304.684 54.1523 304.272 54.3672 303.864C54.582 303.456 54.89 303.087 55.291 302.758C55.6992 302.421 56.1862 302.156 56.752 301.963C57.3249 301.762 57.9622 301.662 58.6641 301.662C59.5091 301.662 60.2539 301.805 60.8984 302.092C61.5501 302.378 62.0586 302.812 62.4238 303.392C62.7962 303.965 62.9824 304.684 62.9824 305.551V310.965C62.9824 311.352 63.0146 311.763 63.0791 312.2C63.1507 312.637 63.2546 313.013 63.3906 313.328V313.5H61.3174C61.2171 313.271 61.1383 312.966 61.0811 312.587C61.0238 312.2 60.9951 311.842 60.9951 311.513ZM61.3389 306.453L61.3604 307.85H59.3516C58.7858 307.85 58.2809 307.896 57.8369 307.989C57.3929 308.075 57.0205 308.208 56.7197 308.387C56.4189 308.566 56.1898 308.791 56.0322 309.063C55.8747 309.328 55.7959 309.64 55.7959 309.998C55.7959 310.363 55.8783 310.696 56.043 310.997C56.2077 311.298 56.4548 311.538 56.7842 311.717C57.1208 311.889 57.5326 311.975 58.0195 311.975C58.6283 311.975 59.1654 311.846 59.6309 311.588C60.0964 311.33 60.4652 311.015 60.7373 310.643C61.0166 310.27 61.167 309.909 61.1885 309.558L62.0371 310.514C61.987 310.814 61.8509 311.147 61.6289 311.513C61.4069 311.878 61.1097 312.229 60.7373 312.565C60.3721 312.895 59.9352 313.171 59.4268 313.393C58.9255 313.607 58.3597 313.715 57.7295 313.715C56.9417 313.715 56.2507 313.561 55.6562 313.253C55.069 312.945 54.6107 312.533 54.2812 312.018C53.959 311.495 53.7979 310.911 53.7979 310.267C53.7979 309.644 53.9196 309.096 54.1631 308.623C54.4066 308.143 54.7575 307.746 55.2158 307.431C55.6742 307.108 56.2256 306.865 56.8701 306.7C57.5146 306.535 58.2344 306.453 59.0293 306.453H61.3389ZM70.9746 301.877V303.402H64.6904V301.877H70.9746ZM66.8174 299.052H68.8047V310.621C68.8047 311.015 68.8656 311.312 68.9873 311.513C69.109 311.713 69.2666 311.846 69.46 311.91C69.6533 311.975 69.861 312.007 70.083 312.007C70.2477 312.007 70.4196 311.993 70.5986 311.964C70.7848 311.928 70.9245 311.899 71.0176 311.878L71.0283 313.5C70.8708 313.55 70.6631 313.597 70.4053 313.64C70.1546 313.69 69.8503 313.715 69.4922 313.715C69.0052 313.715 68.5576 313.618 68.1494 313.425C67.7412 313.231 67.4154 312.909 67.1719 312.458C66.9355 312 66.8174 311.384 66.8174 310.61V299.052ZM78.2363 307.817V307.57C78.2363 306.732 78.3581 305.955 78.6016 305.239C78.8451 304.516 79.196 303.889 79.6543 303.359C80.1126 302.822 80.6676 302.407 81.3193 302.113C81.971 301.812 82.7015 301.662 83.5107 301.662C84.3271 301.662 85.0612 301.812 85.7129 302.113C86.3717 302.407 86.9303 302.822 87.3887 303.359C87.8542 303.889 88.2087 304.516 88.4521 305.239C88.6956 305.955 88.8174 306.732 88.8174 307.57V307.817C88.8174 308.655 88.6956 309.432 88.4521 310.148C88.2087 310.865 87.8542 311.491 87.3887 312.028C86.9303 312.558 86.3753 312.974 85.7236 313.274C85.0791 313.568 84.3486 313.715 83.5322 313.715C82.7158 313.715 81.9818 313.568 81.3301 313.274C80.6784 312.974 80.1198 312.558 79.6543 312.028C79.196 311.491 78.8451 310.865 78.6016 310.148C78.3581 309.432 78.2363 308.655 78.2363 307.817ZM80.2236 307.57V307.817C80.2236 308.397 80.2917 308.945 80.4277 309.461C80.5638 309.969 80.7679 310.421 81.04 310.814C81.3193 311.208 81.6667 311.52 82.082 311.749C82.4974 311.971 82.9808 312.082 83.5322 312.082C84.0765 312.082 84.5527 311.971 84.9609 311.749C85.3763 311.52 85.7201 311.208 85.9922 310.814C86.2643 310.421 86.4684 309.969 86.6045 309.461C86.7477 308.945 86.8193 308.397 86.8193 307.817V307.57C86.8193 306.997 86.7477 306.457 86.6045 305.948C86.4684 305.433 86.2607 304.978 85.9814 304.584C85.7093 304.183 85.3656 303.868 84.9502 303.639C84.542 303.41 84.0622 303.295 83.5107 303.295C82.9665 303.295 82.4867 303.41 82.0713 303.639C81.6631 303.868 81.3193 304.183 81.04 304.584C80.7679 304.978 80.5638 305.433 80.4277 305.948C80.2917 306.457 80.2236 306.997 80.2236 307.57ZM98.8398 301.877H100.645V313.253C100.645 314.277 100.437 315.151 100.021 315.874C99.6061 316.597 99.026 317.145 98.2812 317.518C97.5436 317.897 96.6914 318.087 95.7246 318.087C95.3236 318.087 94.8509 318.022 94.3066 317.894C93.7695 317.772 93.2396 317.561 92.7168 317.26C92.2012 316.966 91.7679 316.569 91.417 316.067L92.459 314.886C92.946 315.473 93.4544 315.881 93.9844 316.11C94.5215 316.34 95.0514 316.454 95.5742 316.454C96.2044 316.454 96.7487 316.336 97.207 316.1C97.6654 315.863 98.0199 315.512 98.2705 315.047C98.5283 314.589 98.6572 314.023 98.6572 313.35V304.434L98.8398 301.877ZM90.8369 307.817V307.592C90.8369 306.704 90.9408 305.898 91.1484 305.175C91.3633 304.444 91.6676 303.818 92.0615 303.295C92.4626 302.772 92.946 302.371 93.5117 302.092C94.0775 301.805 94.7148 301.662 95.4238 301.662C96.1543 301.662 96.7917 301.791 97.3359 302.049C97.8874 302.299 98.3529 302.668 98.7324 303.155C99.1191 303.635 99.4235 304.215 99.6455 304.896C99.8675 305.576 100.021 306.346 100.107 307.205V308.193C100.029 309.046 99.8747 309.812 99.6455 310.492C99.4235 311.173 99.1191 311.753 98.7324 312.232C98.3529 312.712 97.8874 313.081 97.3359 313.339C96.7845 313.59 96.14 313.715 95.4023 313.715C94.7077 313.715 94.0775 313.568 93.5117 313.274C92.9531 312.981 92.4733 312.569 92.0723 312.039C91.6712 311.509 91.3633 310.886 91.1484 310.17C90.9408 309.447 90.8369 308.662 90.8369 307.817ZM92.8242 307.592V307.817C92.8242 308.397 92.8815 308.942 92.9961 309.45C93.1178 309.959 93.3005 310.406 93.5439 310.793C93.7946 311.18 94.1133 311.484 94.5 311.706C94.8867 311.921 95.3486 312.028 95.8857 312.028C96.5446 312.028 97.0889 311.889 97.5186 311.609C97.9482 311.33 98.2884 310.961 98.5391 310.503C98.7969 310.045 98.9974 309.547 99.1406 309.01V306.421C99.0618 306.027 98.9401 305.647 98.7754 305.282C98.6178 304.91 98.4102 304.58 98.1523 304.294C97.9017 304 97.5902 303.768 97.2178 303.596C96.8454 303.424 96.4085 303.338 95.9072 303.338C95.363 303.338 94.8939 303.452 94.5 303.682C94.1133 303.904 93.7946 304.212 93.5439 304.605C93.3005 304.992 93.1178 305.443 92.9961 305.959C92.8815 306.467 92.8242 307.012 92.8242 307.592ZM116.446 311.244V297H118.444V313.5H116.618L116.446 311.244ZM108.626 307.817V307.592C108.626 306.704 108.733 305.898 108.948 305.175C109.17 304.444 109.482 303.818 109.883 303.295C110.291 302.772 110.774 302.371 111.333 302.092C111.899 301.805 112.529 301.662 113.224 301.662C113.954 301.662 114.591 301.791 115.136 302.049C115.687 302.299 116.153 302.668 116.532 303.155C116.919 303.635 117.223 304.215 117.445 304.896C117.667 305.576 117.821 306.346 117.907 307.205V308.193C117.828 309.046 117.674 309.812 117.445 310.492C117.223 311.173 116.919 311.753 116.532 312.232C116.153 312.712 115.687 313.081 115.136 313.339C114.584 313.59 113.94 313.715 113.202 313.715C112.522 313.715 111.899 313.568 111.333 313.274C110.774 312.981 110.291 312.569 109.883 312.039C109.482 311.509 109.17 310.886 108.948 310.17C108.733 309.447 108.626 308.662 108.626 307.817ZM110.624 307.592V307.817C110.624 308.397 110.681 308.942 110.796 309.45C110.918 309.959 111.104 310.406 111.354 310.793C111.605 311.18 111.924 311.484 112.311 311.706C112.697 311.921 113.159 312.028 113.696 312.028C114.355 312.028 114.896 311.889 115.318 311.609C115.748 311.33 116.092 310.961 116.35 310.503C116.607 310.045 116.808 309.547 116.951 309.01V306.421C116.865 306.027 116.74 305.647 116.575 305.282C116.418 304.91 116.21 304.58 115.952 304.294C115.701 304 115.39 303.768 115.018 303.596C114.652 303.424 114.219 303.338 113.718 303.338C113.174 303.338 112.704 303.452 112.311 303.682C111.924 303.904 111.605 304.212 111.354 304.605C111.104 304.992 110.918 305.443 110.796 305.959C110.681 306.467 110.624 307.012 110.624 307.592ZM123.525 303.703V313.5H121.538V301.877H123.472L123.525 303.703ZM127.156 301.812L127.146 303.66C126.981 303.624 126.823 303.603 126.673 303.596C126.53 303.581 126.365 303.574 126.179 303.574C125.72 303.574 125.316 303.646 124.965 303.789C124.614 303.932 124.317 304.133 124.073 304.391C123.83 304.648 123.636 304.956 123.493 305.314C123.357 305.665 123.268 306.052 123.225 306.475L122.666 306.797C122.666 306.095 122.734 305.436 122.87 304.82C123.013 304.204 123.232 303.66 123.525 303.188C123.819 302.708 124.191 302.335 124.643 302.07C125.101 301.798 125.645 301.662 126.275 301.662C126.419 301.662 126.583 301.68 126.77 301.716C126.956 301.744 127.085 301.777 127.156 301.812ZM131.152 301.877V313.5H129.154V301.877H131.152ZM129.004 298.794C129.004 298.472 129.101 298.2 129.294 297.978C129.494 297.756 129.788 297.645 130.175 297.645C130.554 297.645 130.844 297.756 131.045 297.978C131.253 298.2 131.356 298.472 131.356 298.794C131.356 299.102 131.253 299.367 131.045 299.589C130.844 299.804 130.554 299.911 130.175 299.911C129.788 299.911 129.494 299.804 129.294 299.589C129.101 299.367 129.004 299.102 129.004 298.794ZM136.341 297V313.5H134.343V297H136.341ZM143.441 301.877L138.371 307.302L135.535 310.245L135.374 308.129L137.404 305.701L141.014 301.877H143.441ZM141.626 313.5L137.479 307.957L138.511 306.185L143.968 313.5H141.626ZM147.491 297V313.5H145.493V297H147.491ZM154.592 301.877L149.521 307.302L146.686 310.245L146.524 308.129L148.555 305.701L152.164 301.877H154.592ZM152.776 313.5L148.63 307.957L149.661 306.185L155.118 313.5H152.776ZM161.252 313.715C160.443 313.715 159.709 313.579 159.05 313.307C158.398 313.027 157.836 312.637 157.363 312.136C156.898 311.634 156.54 311.04 156.289 310.353C156.038 309.665 155.913 308.913 155.913 308.097V307.646C155.913 306.7 156.053 305.859 156.332 305.121C156.611 304.376 156.991 303.746 157.471 303.23C157.951 302.715 158.495 302.325 159.104 302.06C159.712 301.795 160.342 301.662 160.994 301.662C161.825 301.662 162.541 301.805 163.143 302.092C163.751 302.378 164.249 302.779 164.636 303.295C165.022 303.803 165.309 304.405 165.495 305.1C165.681 305.787 165.774 306.539 165.774 307.355V308.247H157.095V306.625H163.787V306.475C163.758 305.959 163.651 305.458 163.465 304.971C163.286 304.484 162.999 304.083 162.605 303.768C162.212 303.452 161.674 303.295 160.994 303.295C160.543 303.295 160.128 303.392 159.748 303.585C159.368 303.771 159.043 304.05 158.771 304.423C158.498 304.795 158.287 305.25 158.137 305.787C157.986 306.324 157.911 306.944 157.911 307.646V308.097C157.911 308.648 157.986 309.167 158.137 309.654C158.294 310.134 158.52 310.557 158.813 310.922C159.114 311.287 159.476 311.574 159.898 311.781C160.328 311.989 160.815 312.093 161.359 312.093C162.061 312.093 162.656 311.95 163.143 311.663C163.63 311.377 164.056 310.993 164.421 310.514L165.624 311.47C165.373 311.849 165.055 312.211 164.668 312.555C164.281 312.898 163.805 313.178 163.239 313.393C162.681 313.607 162.018 313.715 161.252 313.715Z" fill="white"/>
<path d="M310.031 304.584V306.271H301.566V304.584H310.031ZM301.889 297.859V313.5H299.815V297.859H301.889ZM311.836 297.859V313.5H309.773V297.859H311.836ZM318.754 311.706L321.934 301.877H323.964L319.785 313.5H318.453L318.754 311.706ZM316.101 301.877L319.377 311.76L319.603 313.5H318.271L314.06 301.877H316.101ZM328.035 301.877V313.5H326.037V301.877H328.035ZM325.887 298.794C325.887 298.472 325.983 298.2 326.177 297.978C326.377 297.756 326.671 297.645 327.058 297.645C327.437 297.645 327.727 297.756 327.928 297.978C328.135 298.2 328.239 298.472 328.239 298.794C328.239 299.102 328.135 299.367 327.928 299.589C327.727 299.804 327.437 299.911 327.058 299.911C326.671 299.911 326.377 299.804 326.177 299.589C325.983 299.367 325.887 299.102 325.887 298.794ZM333.385 297V313.5H331.387V297H333.385ZM341.398 313.715C340.589 313.715 339.855 313.579 339.196 313.307C338.545 313.027 337.982 312.637 337.51 312.136C337.044 311.634 336.686 311.04 336.436 310.353C336.185 309.665 336.06 308.913 336.06 308.097V307.646C336.06 306.7 336.199 305.859 336.479 305.121C336.758 304.376 337.137 303.746 337.617 303.23C338.097 302.715 338.641 302.325 339.25 302.06C339.859 301.795 340.489 301.662 341.141 301.662C341.971 301.662 342.688 301.805 343.289 302.092C343.898 302.378 344.396 302.779 344.782 303.295C345.169 303.803 345.455 304.405 345.642 305.1C345.828 305.787 345.921 306.539 345.921 307.355V308.247H337.241V306.625H343.934V306.475C343.905 305.959 343.798 305.458 343.611 304.971C343.432 304.484 343.146 304.083 342.752 303.768C342.358 303.452 341.821 303.295 341.141 303.295C340.689 303.295 340.274 303.392 339.895 303.585C339.515 303.771 339.189 304.05 338.917 304.423C338.645 304.795 338.434 305.25 338.283 305.787C338.133 306.324 338.058 306.944 338.058 307.646V308.097C338.058 308.648 338.133 309.167 338.283 309.654C338.441 310.134 338.666 310.557 338.96 310.922C339.261 311.287 339.622 311.574 340.045 311.781C340.475 311.989 340.962 312.093 341.506 312.093C342.208 312.093 342.802 311.95 343.289 311.663C343.776 311.377 344.202 310.993 344.567 310.514L345.771 311.47C345.52 311.849 345.201 312.211 344.814 312.555C344.428 312.898 343.951 313.178 343.386 313.393C342.827 313.607 342.165 313.715 341.398 313.715ZM351.206 313.5H349.219V300.652C349.219 299.814 349.369 299.109 349.67 298.536C349.978 297.956 350.418 297.519 350.991 297.226C351.564 296.925 352.244 296.774 353.032 296.774C353.261 296.774 353.491 296.789 353.72 296.817C353.956 296.846 354.185 296.889 354.407 296.946L354.3 298.568C354.149 298.533 353.978 298.507 353.784 298.493C353.598 298.479 353.412 298.472 353.226 298.472C352.803 298.472 352.438 298.558 352.13 298.729C351.829 298.894 351.6 299.138 351.442 299.46C351.285 299.782 351.206 300.18 351.206 300.652V313.5ZM353.677 301.877V303.402H347.382V301.877H353.677ZM355.363 307.817V307.57C355.363 306.732 355.485 305.955 355.729 305.239C355.972 304.516 356.323 303.889 356.781 303.359C357.24 302.822 357.795 302.407 358.446 302.113C359.098 301.812 359.828 301.662 360.638 301.662C361.454 301.662 362.188 301.812 362.84 302.113C363.499 302.407 364.057 302.822 364.516 303.359C364.981 303.889 365.336 304.516 365.579 305.239C365.823 305.955 365.944 306.732 365.944 307.57V307.817C365.944 308.655 365.823 309.432 365.579 310.148C365.336 310.865 364.981 311.491 364.516 312.028C364.057 312.558 363.502 312.974 362.851 313.274C362.206 313.568 361.476 313.715 360.659 313.715C359.843 313.715 359.109 313.568 358.457 313.274C357.805 312.974 357.247 312.558 356.781 312.028C356.323 311.491 355.972 310.865 355.729 310.148C355.485 309.432 355.363 308.655 355.363 307.817ZM357.351 307.57V307.817C357.351 308.397 357.419 308.945 357.555 309.461C357.691 309.969 357.895 310.421 358.167 310.814C358.446 311.208 358.794 311.52 359.209 311.749C359.624 311.971 360.108 312.082 360.659 312.082C361.203 312.082 361.68 311.971 362.088 311.749C362.503 311.52 362.847 311.208 363.119 310.814C363.391 310.421 363.595 309.969 363.731 309.461C363.875 308.945 363.946 308.397 363.946 307.817V307.57C363.946 306.997 363.875 306.457 363.731 305.948C363.595 305.433 363.388 304.978 363.108 304.584C362.836 304.183 362.493 303.868 362.077 303.639C361.669 303.41 361.189 303.295 360.638 303.295C360.093 303.295 359.614 303.41 359.198 303.639C358.79 303.868 358.446 304.183 358.167 304.584C357.895 304.978 357.691 305.433 357.555 305.948C357.419 306.457 357.351 306.997 357.351 307.57ZM370.424 303.703V313.5H368.437V301.877H370.37L370.424 303.703ZM374.055 301.812L374.044 303.66C373.879 303.624 373.722 303.603 373.571 303.596C373.428 303.581 373.263 303.574 373.077 303.574C372.619 303.574 372.214 303.646 371.863 303.789C371.512 303.932 371.215 304.133 370.972 304.391C370.728 304.648 370.535 304.956 370.392 305.314C370.256 305.665 370.166 306.052 370.123 306.475L369.564 306.797C369.564 306.095 369.632 305.436 369.769 304.82C369.912 304.204 370.13 303.66 370.424 303.188C370.717 302.708 371.09 302.335 371.541 302.07C371.999 301.798 372.544 301.662 373.174 301.662C373.317 301.662 373.482 301.68 373.668 301.716C373.854 301.744 373.983 301.777 374.055 301.812ZM375.881 297H377.879V311.244L377.707 313.5H375.881V297ZM385.731 307.592V307.817C385.731 308.662 385.631 309.447 385.431 310.17C385.23 310.886 384.937 311.509 384.55 312.039C384.163 312.569 383.69 312.981 383.132 313.274C382.573 313.568 381.932 313.715 381.209 313.715C380.471 313.715 379.823 313.59 379.265 313.339C378.713 313.081 378.248 312.712 377.868 312.232C377.489 311.753 377.184 311.173 376.955 310.492C376.733 309.812 376.579 309.046 376.493 308.193V307.205C376.579 306.346 376.733 305.576 376.955 304.896C377.184 304.215 377.489 303.635 377.868 303.155C378.248 302.668 378.713 302.299 379.265 302.049C379.816 301.791 380.457 301.662 381.188 301.662C381.918 301.662 382.566 301.805 383.132 302.092C383.698 302.371 384.17 302.772 384.55 303.295C384.937 303.818 385.23 304.444 385.431 305.175C385.631 305.898 385.731 306.704 385.731 307.592ZM383.733 307.817V307.592C383.733 307.012 383.68 306.467 383.572 305.959C383.465 305.443 383.293 304.992 383.057 304.605C382.82 304.212 382.509 303.904 382.122 303.682C381.735 303.452 381.259 303.338 380.693 303.338C380.192 303.338 379.755 303.424 379.383 303.596C379.018 303.768 378.706 304 378.448 304.294C378.19 304.58 377.979 304.91 377.814 305.282C377.657 305.647 377.539 306.027 377.46 306.421V309.01C377.575 309.511 377.761 309.994 378.019 310.46C378.284 310.918 378.634 311.294 379.071 311.588C379.515 311.882 380.063 312.028 380.715 312.028C381.252 312.028 381.71 311.921 382.09 311.706C382.477 311.484 382.788 311.18 383.024 310.793C383.268 310.406 383.447 309.959 383.562 309.45C383.676 308.942 383.733 308.397 383.733 307.817ZM390.232 303.703V313.5H388.245V301.877H390.179L390.232 303.703ZM393.863 301.812L393.853 303.66C393.688 303.624 393.53 303.603 393.38 303.596C393.237 303.581 393.072 303.574 392.886 303.574C392.427 303.574 392.023 303.646 391.672 303.789C391.321 303.932 391.024 304.133 390.78 304.391C390.537 304.648 390.343 304.956 390.2 305.314C390.064 305.665 389.975 306.052 389.932 306.475L389.373 306.797C389.373 306.095 389.441 305.436 389.577 304.82C389.72 304.204 389.939 303.66 390.232 303.188C390.526 302.708 390.898 302.335 391.35 302.07C391.808 301.798 392.352 301.662 392.982 301.662C393.126 301.662 393.29 301.68 393.477 301.716C393.663 301.744 393.792 301.777 393.863 301.812ZM400.309 313.715C399.499 313.715 398.765 313.579 398.106 313.307C397.455 313.027 396.893 312.637 396.42 312.136C395.954 311.634 395.596 311.04 395.346 310.353C395.095 309.665 394.97 308.913 394.97 308.097V307.646C394.97 306.7 395.109 305.859 395.389 305.121C395.668 304.376 396.048 303.746 396.527 303.23C397.007 302.715 397.551 302.325 398.16 302.06C398.769 301.795 399.399 301.662 400.051 301.662C400.882 301.662 401.598 301.805 402.199 302.092C402.808 302.378 403.306 302.779 403.692 303.295C404.079 303.803 404.366 304.405 404.552 305.1C404.738 305.787 404.831 306.539 404.831 307.355V308.247H396.151V306.625H402.844V306.475C402.815 305.959 402.708 305.458 402.521 304.971C402.342 304.484 402.056 304.083 401.662 303.768C401.268 303.452 400.731 303.295 400.051 303.295C399.6 303.295 399.184 303.392 398.805 303.585C398.425 303.771 398.099 304.05 397.827 304.423C397.555 304.795 397.344 305.25 397.193 305.787C397.043 306.324 396.968 306.944 396.968 307.646V308.097C396.968 308.648 397.043 309.167 397.193 309.654C397.351 310.134 397.576 310.557 397.87 310.922C398.171 311.287 398.533 311.574 398.955 311.781C399.385 311.989 399.872 312.093 400.416 312.093C401.118 312.093 401.712 311.95 402.199 311.663C402.686 311.377 403.112 310.993 403.478 310.514L404.681 311.47C404.43 311.849 404.111 312.211 403.725 312.555C403.338 312.898 402.862 313.178 402.296 313.393C401.737 313.607 401.075 313.715 400.309 313.715ZM409.139 304.358V313.5H407.151V301.877H409.031L409.139 304.358ZM408.666 307.248L407.839 307.216C407.846 306.421 407.964 305.687 408.193 305.014C408.423 304.333 408.745 303.743 409.16 303.241C409.576 302.74 410.07 302.353 410.643 302.081C411.223 301.802 411.864 301.662 412.565 301.662C413.138 301.662 413.654 301.741 414.112 301.898C414.571 302.049 414.961 302.292 415.283 302.629C415.613 302.965 415.863 303.402 416.035 303.939C416.207 304.469 416.293 305.118 416.293 305.884V313.5H414.295V305.862C414.295 305.254 414.205 304.767 414.026 304.401C413.847 304.029 413.586 303.76 413.242 303.596C412.898 303.424 412.476 303.338 411.975 303.338C411.48 303.338 411.029 303.442 410.621 303.649C410.22 303.857 409.873 304.144 409.579 304.509C409.293 304.874 409.067 305.293 408.902 305.766C408.745 306.231 408.666 306.725 408.666 307.248ZM421.299 304.358V313.5H419.312V301.877H421.191L421.299 304.358ZM420.826 307.248L419.999 307.216C420.006 306.421 420.124 305.687 420.354 305.014C420.583 304.333 420.905 303.743 421.32 303.241C421.736 302.74 422.23 302.353 422.803 302.081C423.383 301.802 424.024 301.662 424.726 301.662C425.299 301.662 425.814 301.741 426.272 301.898C426.731 302.049 427.121 302.292 427.443 302.629C427.773 302.965 428.023 303.402 428.195 303.939C428.367 304.469 428.453 305.118 428.453 305.884V313.5H426.455V305.862C426.455 305.254 426.366 304.767 426.187 304.401C426.007 304.029 425.746 303.76 425.402 303.596C425.059 303.424 424.636 303.338 424.135 303.338C423.641 303.338 423.189 303.442 422.781 303.649C422.38 303.857 422.033 304.144 421.739 304.509C421.453 304.874 421.227 305.293 421.062 305.766C420.905 306.231 420.826 306.725 420.826 307.248ZM433.631 301.877V313.5H431.633V301.877H433.631ZM431.482 298.794C431.482 298.472 431.579 298.2 431.772 297.978C431.973 297.756 432.267 297.645 432.653 297.645C433.033 297.645 433.323 297.756 433.523 297.978C433.731 298.2 433.835 298.472 433.835 298.794C433.835 299.102 433.731 299.367 433.523 299.589C433.323 299.804 433.033 299.911 432.653 299.911C432.267 299.911 431.973 299.804 431.772 299.589C431.579 299.367 431.482 299.102 431.482 298.794ZM438.809 304.358V313.5H436.821V301.877H438.701L438.809 304.358ZM438.336 307.248L437.509 307.216C437.516 306.421 437.634 305.687 437.863 305.014C438.092 304.333 438.415 303.743 438.83 303.241C439.245 302.74 439.74 302.353 440.312 302.081C440.893 301.802 441.534 301.662 442.235 301.662C442.808 301.662 443.324 301.741 443.782 301.898C444.241 302.049 444.631 302.292 444.953 302.629C445.283 302.965 445.533 303.402 445.705 303.939C445.877 304.469 445.963 305.118 445.963 305.884V313.5H443.965V305.862C443.965 305.254 443.875 304.767 443.696 304.401C443.517 304.029 443.256 303.76 442.912 303.596C442.568 303.424 442.146 303.338 441.645 303.338C441.15 303.338 440.699 303.442 440.291 303.649C439.89 303.857 439.543 304.144 439.249 304.509C438.963 304.874 438.737 305.293 438.572 305.766C438.415 306.231 438.336 306.725 438.336 307.248ZM456.512 301.877H458.316V313.253C458.316 314.277 458.109 315.151 457.693 315.874C457.278 316.597 456.698 317.145 455.953 317.518C455.215 317.897 454.363 318.087 453.396 318.087C452.995 318.087 452.523 318.022 451.979 317.894C451.441 317.772 450.911 317.561 450.389 317.26C449.873 316.966 449.44 316.569 449.089 316.067L450.131 314.886C450.618 315.473 451.126 315.881 451.656 316.11C452.193 316.34 452.723 316.454 453.246 316.454C453.876 316.454 454.421 316.336 454.879 316.1C455.337 315.863 455.692 315.512 455.942 315.047C456.2 314.589 456.329 314.023 456.329 313.35V304.434L456.512 301.877ZM448.509 307.817V307.592C448.509 306.704 448.613 305.898 448.82 305.175C449.035 304.444 449.34 303.818 449.733 303.295C450.134 302.772 450.618 302.371 451.184 302.092C451.749 301.805 452.387 301.662 453.096 301.662C453.826 301.662 454.464 301.791 455.008 302.049C455.559 302.299 456.025 302.668 456.404 303.155C456.791 303.635 457.095 304.215 457.317 304.896C457.539 305.576 457.693 306.346 457.779 307.205V308.193C457.701 309.046 457.547 309.812 457.317 310.492C457.095 311.173 456.791 311.753 456.404 312.232C456.025 312.712 455.559 313.081 455.008 313.339C454.456 313.59 453.812 313.715 453.074 313.715C452.38 313.715 451.749 313.568 451.184 313.274C450.625 312.981 450.145 312.569 449.744 312.039C449.343 311.509 449.035 310.886 448.82 310.17C448.613 309.447 448.509 308.662 448.509 307.817ZM450.496 307.592V307.817C450.496 308.397 450.553 308.942 450.668 309.45C450.79 309.959 450.972 310.406 451.216 310.793C451.466 311.18 451.785 311.484 452.172 311.706C452.559 311.921 453.021 312.028 453.558 312.028C454.216 312.028 454.761 311.889 455.19 311.609C455.62 311.33 455.96 310.961 456.211 310.503C456.469 310.045 456.669 309.547 456.812 309.01V306.421C456.734 306.027 456.612 305.647 456.447 305.282C456.29 304.91 456.082 304.58 455.824 304.294C455.574 304 455.262 303.768 454.89 303.596C454.517 303.424 454.08 303.338 453.579 303.338C453.035 303.338 452.566 303.452 452.172 303.682C451.785 303.904 451.466 304.212 451.216 304.605C450.972 304.992 450.79 305.443 450.668 305.959C450.553 306.467 450.496 307.012 450.496 307.592ZM305.605 335.245L300.428 349.5H298.312L304.273 333.859H305.638L305.605 335.245ZM309.945 349.5L304.757 335.245L304.725 333.859H306.089L312.072 349.5H309.945ZM309.677 343.71V345.407H300.89V343.71H309.677ZM315.864 333V349.5H313.866V333H315.864ZM322.965 337.877L317.895 343.302L315.059 346.245L314.897 344.129L316.928 341.701L320.537 337.877H322.965ZM321.149 349.5L317.003 343.957L318.034 342.185L323.491 349.5H321.149ZM329.883 337.877V339.402H323.599V337.877H329.883ZM325.726 335.052H327.713V346.621C327.713 347.015 327.774 347.312 327.896 347.513C328.017 347.713 328.175 347.846 328.368 347.91C328.562 347.975 328.769 348.007 328.991 348.007C329.156 348.007 329.328 347.993 329.507 347.964C329.693 347.928 329.833 347.899 329.926 347.878L329.937 349.5C329.779 349.55 329.571 349.597 329.313 349.64C329.063 349.69 328.758 349.715 328.4 349.715C327.913 349.715 327.466 349.618 327.058 349.425C326.649 349.231 326.324 348.909 326.08 348.458C325.844 348 325.726 347.384 325.726 346.61V335.052ZM334.373 337.877V349.5H332.375V337.877H334.373ZM332.225 334.794C332.225 334.472 332.321 334.2 332.515 333.978C332.715 333.756 333.009 333.645 333.396 333.645C333.775 333.645 334.065 333.756 334.266 333.978C334.473 334.2 334.577 334.472 334.577 334.794C334.577 335.102 334.473 335.367 334.266 335.589C334.065 335.804 333.775 335.911 333.396 335.911C333.009 335.911 332.715 335.804 332.515 335.589C332.321 335.367 332.225 335.102 332.225 334.794ZM341.098 347.706L344.277 337.877H346.308L342.129 349.5H340.797L341.098 347.706ZM338.444 337.877L341.721 347.76L341.946 349.5H340.614L336.403 337.877H338.444ZM350.379 337.877V349.5H348.381V337.877H350.379ZM348.23 334.794C348.23 334.472 348.327 334.2 348.521 333.978C348.721 333.756 349.015 333.645 349.401 333.645C349.781 333.645 350.071 333.756 350.271 333.978C350.479 334.2 350.583 334.472 350.583 334.794C350.583 335.102 350.479 335.367 350.271 335.589C350.071 335.804 349.781 335.911 349.401 335.911C349.015 335.911 348.721 335.804 348.521 335.589C348.327 335.367 348.23 335.102 348.23 334.794ZM358.436 337.877V339.402H352.151V337.877H358.436ZM354.278 335.052H356.266V346.621C356.266 347.015 356.326 347.312 356.448 347.513C356.57 347.713 356.728 347.846 356.921 347.91C357.114 347.975 357.322 348.007 357.544 348.007C357.709 348.007 357.881 347.993 358.06 347.964C358.246 347.928 358.385 347.899 358.479 347.878L358.489 349.5C358.332 349.55 358.124 349.597 357.866 349.64C357.616 349.69 357.311 349.715 356.953 349.715C356.466 349.715 356.019 349.618 355.61 349.425C355.202 349.231 354.876 348.909 354.633 348.458C354.396 348 354.278 347.384 354.278 346.61V335.052ZM365.59 349.715C364.781 349.715 364.047 349.579 363.388 349.307C362.736 349.027 362.174 348.637 361.701 348.136C361.236 347.634 360.878 347.04 360.627 346.353C360.376 345.665 360.251 344.913 360.251 344.097V343.646C360.251 342.7 360.391 341.859 360.67 341.121C360.949 340.376 361.329 339.746 361.809 339.23C362.288 338.715 362.833 338.325 363.441 338.06C364.05 337.795 364.68 337.662 365.332 337.662C366.163 337.662 366.879 337.805 367.48 338.092C368.089 338.378 368.587 338.779 368.974 339.295C369.36 339.803 369.647 340.405 369.833 341.1C370.019 341.787 370.112 342.539 370.112 343.355V344.247H361.433V342.625H368.125V342.475C368.096 341.959 367.989 341.458 367.803 340.971C367.624 340.484 367.337 340.083 366.943 339.768C366.549 339.452 366.012 339.295 365.332 339.295C364.881 339.295 364.465 339.392 364.086 339.585C363.706 339.771 363.381 340.05 363.108 340.423C362.836 340.795 362.625 341.25 362.475 341.787C362.324 342.324 362.249 342.944 362.249 343.646V344.097C362.249 344.648 362.324 345.167 362.475 345.654C362.632 346.134 362.858 346.557 363.151 346.922C363.452 347.287 363.814 347.574 364.236 347.781C364.666 347.989 365.153 348.093 365.697 348.093C366.399 348.093 366.993 347.95 367.48 347.663C367.967 347.377 368.394 346.993 368.759 346.514L369.962 347.47C369.711 347.849 369.393 348.211 369.006 348.555C368.619 348.898 368.143 349.178 367.577 349.393C367.019 349.607 366.356 349.715 365.59 349.715ZM377.299 337.877V339.402H371.015V337.877H377.299ZM373.142 335.052H375.129V346.621C375.129 347.015 375.19 347.312 375.312 347.513C375.433 347.713 375.591 347.846 375.784 347.91C375.978 347.975 376.185 348.007 376.407 348.007C376.572 348.007 376.744 347.993 376.923 347.964C377.109 347.928 377.249 347.899 377.342 347.878L377.353 349.5C377.195 349.55 376.987 349.597 376.729 349.64C376.479 349.69 376.174 349.715 375.816 349.715C375.329 349.715 374.882 349.618 374.474 349.425C374.065 349.231 373.74 348.909 373.496 348.458C373.26 348 373.142 347.384 373.142 346.61V335.052ZM305.595 369.859V385.5H303.554V369.859H305.595ZM310.622 369.859V371.557H298.537V369.859H310.622ZM313.812 375.703V385.5H311.825V373.877H313.759L313.812 375.703ZM317.443 373.812L317.433 375.66C317.268 375.624 317.11 375.603 316.96 375.596C316.817 375.581 316.652 375.574 316.466 375.574C316.007 375.574 315.603 375.646 315.252 375.789C314.901 375.932 314.604 376.133 314.36 376.391C314.117 376.648 313.924 376.956 313.78 377.314C313.644 377.665 313.555 378.052 313.512 378.475L312.953 378.797C312.953 378.095 313.021 377.436 313.157 376.82C313.3 376.204 313.519 375.66 313.812 375.188C314.106 374.708 314.479 374.335 314.93 374.07C315.388 373.798 315.932 373.662 316.562 373.662C316.706 373.662 316.87 373.68 317.057 373.716C317.243 373.744 317.372 373.777 317.443 373.812ZM323.889 385.715C323.079 385.715 322.345 385.579 321.687 385.307C321.035 385.027 320.473 384.637 320 384.136C319.535 383.634 319.176 383.04 318.926 382.353C318.675 381.665 318.55 380.913 318.55 380.097V379.646C318.55 378.7 318.689 377.859 318.969 377.121C319.248 376.376 319.628 375.746 320.107 375.23C320.587 374.715 321.132 374.325 321.74 374.06C322.349 373.795 322.979 373.662 323.631 373.662C324.462 373.662 325.178 373.805 325.779 374.092C326.388 374.378 326.886 374.779 327.272 375.295C327.659 375.803 327.946 376.405 328.132 377.1C328.318 377.787 328.411 378.539 328.411 379.355V380.247H319.731V378.625H326.424V378.475C326.395 377.959 326.288 377.458 326.102 376.971C325.923 376.484 325.636 376.083 325.242 375.768C324.848 375.452 324.311 375.295 323.631 375.295C323.18 375.295 322.764 375.392 322.385 375.585C322.005 375.771 321.679 376.05 321.407 376.423C321.135 376.795 320.924 377.25 320.773 377.787C320.623 378.324 320.548 378.944 320.548 379.646V380.097C320.548 380.648 320.623 381.167 320.773 381.654C320.931 382.134 321.157 382.557 321.45 382.922C321.751 383.287 322.113 383.574 322.535 383.781C322.965 383.989 323.452 384.093 323.996 384.093C324.698 384.093 325.292 383.95 325.779 383.663C326.266 383.377 326.692 382.993 327.058 382.514L328.261 383.47C328.01 383.849 327.691 384.211 327.305 384.555C326.918 384.898 326.442 385.178 325.876 385.393C325.317 385.607 324.655 385.715 323.889 385.715ZM332.719 376.358V385.5H330.731V373.877H332.611L332.719 376.358ZM332.246 379.248L331.419 379.216C331.426 378.421 331.544 377.687 331.773 377.014C332.003 376.333 332.325 375.743 332.74 375.241C333.156 374.74 333.65 374.353 334.223 374.081C334.803 373.802 335.444 373.662 336.146 373.662C336.718 373.662 337.234 373.741 337.692 373.898C338.151 374.049 338.541 374.292 338.863 374.629C339.193 374.965 339.443 375.402 339.615 375.939C339.787 376.469 339.873 377.118 339.873 377.884V385.5H337.875V377.862C337.875 377.254 337.785 376.767 337.606 376.401C337.427 376.029 337.166 375.76 336.822 375.596C336.479 375.424 336.056 375.338 335.555 375.338C335.061 375.338 334.609 375.442 334.201 375.649C333.8 375.857 333.453 376.144 333.159 376.509C332.873 376.874 332.647 377.293 332.482 377.766C332.325 378.231 332.246 378.725 332.246 379.248ZM345.051 373.877V385.5H343.053V373.877H345.051ZM342.902 370.794C342.902 370.472 342.999 370.2 343.192 369.978C343.393 369.756 343.687 369.645 344.073 369.645C344.453 369.645 344.743 369.756 344.943 369.978C345.151 370.2 345.255 370.472 345.255 370.794C345.255 371.102 345.151 371.367 344.943 371.589C344.743 371.804 344.453 371.911 344.073 371.911C343.687 371.911 343.393 371.804 343.192 371.589C342.999 371.367 342.902 371.102 342.902 370.794ZM350.229 376.358V385.5H348.241V373.877H350.121L350.229 376.358ZM349.756 379.248L348.929 379.216C348.936 378.421 349.054 377.687 349.283 377.014C349.512 376.333 349.835 375.743 350.25 375.241C350.665 374.74 351.16 374.353 351.732 374.081C352.312 373.802 352.953 373.662 353.655 373.662C354.228 373.662 354.744 373.741 355.202 373.898C355.66 374.049 356.051 374.292 356.373 374.629C356.702 374.965 356.953 375.402 357.125 375.939C357.297 376.469 357.383 377.118 357.383 377.884V385.5H355.385V377.862C355.385 377.254 355.295 376.767 355.116 376.401C354.937 376.029 354.676 375.76 354.332 375.596C353.988 375.424 353.566 375.338 353.064 375.338C352.57 375.338 352.119 375.442 351.711 375.649C351.31 375.857 350.963 376.144 350.669 376.509C350.382 376.874 350.157 377.293 349.992 377.766C349.835 378.231 349.756 378.725 349.756 379.248ZM367.932 373.877H369.736V385.253C369.736 386.277 369.529 387.151 369.113 387.874C368.698 388.597 368.118 389.145 367.373 389.518C366.635 389.897 365.783 390.087 364.816 390.087C364.415 390.087 363.943 390.022 363.398 389.894C362.861 389.772 362.331 389.561 361.809 389.26C361.293 388.966 360.86 388.569 360.509 388.067L361.551 386.886C362.038 387.473 362.546 387.881 363.076 388.11C363.613 388.34 364.143 388.454 364.666 388.454C365.296 388.454 365.84 388.336 366.299 388.1C366.757 387.863 367.112 387.512 367.362 387.047C367.62 386.589 367.749 386.023 367.749 385.35V376.434L367.932 373.877ZM359.929 379.817V379.592C359.929 378.704 360.033 377.898 360.24 377.175C360.455 376.444 360.759 375.818 361.153 375.295C361.554 374.772 362.038 374.371 362.604 374.092C363.169 373.805 363.807 373.662 364.516 373.662C365.246 373.662 365.883 373.791 366.428 374.049C366.979 374.299 367.445 374.668 367.824 375.155C368.211 375.635 368.515 376.215 368.737 376.896C368.959 377.576 369.113 378.346 369.199 379.205V380.193C369.12 381.046 368.966 381.812 368.737 382.492C368.515 383.173 368.211 383.753 367.824 384.232C367.445 384.712 366.979 385.081 366.428 385.339C365.876 385.59 365.232 385.715 364.494 385.715C363.799 385.715 363.169 385.568 362.604 385.274C362.045 384.981 361.565 384.569 361.164 384.039C360.763 383.509 360.455 382.886 360.24 382.17C360.033 381.447 359.929 380.662 359.929 379.817ZM361.916 379.592V379.817C361.916 380.397 361.973 380.942 362.088 381.45C362.21 381.959 362.392 382.406 362.636 382.793C362.886 383.18 363.205 383.484 363.592 383.706C363.979 383.921 364.44 384.028 364.978 384.028C365.636 384.028 366.181 383.889 366.61 383.609C367.04 383.33 367.38 382.961 367.631 382.503C367.889 382.045 368.089 381.547 368.232 381.01V378.421C368.154 378.027 368.032 377.647 367.867 377.282C367.71 376.91 367.502 376.58 367.244 376.294C366.993 376 366.682 375.768 366.31 375.596C365.937 375.424 365.5 375.338 364.999 375.338C364.455 375.338 363.986 375.452 363.592 375.682C363.205 375.904 362.886 376.212 362.636 376.605C362.392 376.992 362.21 377.443 362.088 377.959C361.973 378.467 361.916 379.012 361.916 379.592Z" fill="white"/>
<path d="M240.716 238.151C241.637 236.538 243.963 236.538 244.884 238.151L286.477 311.01C287.39 312.61 286.235 314.6 284.393 314.6H201.207C199.365 314.6 198.21 312.61 199.123 311.01L240.716 238.151Z" fill="#EF5350"/>
<path d="M75.9224 135.071V137.5H66.4863V135.071H75.9224ZM67.353 119.727V137.5H64.2891V119.727H67.353ZM74.6895 127.148V129.541H66.4863V127.148H74.6895ZM75.8613 119.727V122.168H66.4863V119.727H75.8613ZM81.0493 127.112V137.5H78.1074V124.292H80.8784L81.0493 127.112ZM80.5244 130.408L79.5723 130.396C79.5804 129.46 79.7106 128.601 79.9629 127.82C80.2233 127.039 80.5814 126.367 81.0371 125.806C81.501 125.244 82.0544 124.813 82.6973 124.512C83.3402 124.202 84.0563 124.048 84.8457 124.048C85.4805 124.048 86.0542 124.137 86.5669 124.316C87.0877 124.487 87.5312 124.768 87.8975 125.159C88.2718 125.549 88.5566 126.058 88.752 126.685C88.9473 127.303 89.0449 128.064 89.0449 128.967V137.5H86.0908V128.955C86.0908 128.32 85.9972 127.82 85.8101 127.454C85.631 127.079 85.3665 126.815 85.0166 126.66C84.6748 126.497 84.2476 126.416 83.7349 126.416C83.2303 126.416 82.7786 126.522 82.3799 126.733C81.9811 126.945 81.6434 127.234 81.3667 127.6C81.0981 127.966 80.8906 128.389 80.7441 128.87C80.5977 129.35 80.5244 129.862 80.5244 130.408ZM97.8706 137.744C96.894 137.744 96.0111 137.585 95.2217 137.268C94.4404 136.943 93.7731 136.491 93.2197 135.913C92.6745 135.335 92.2554 134.656 91.9624 133.875C91.6694 133.093 91.5229 132.251 91.5229 131.348V130.859C91.5229 129.826 91.6735 128.89 91.9746 128.052C92.2757 127.214 92.6948 126.497 93.2319 125.903C93.769 125.301 94.4038 124.841 95.1362 124.524C95.8687 124.207 96.6621 124.048 97.5166 124.048C98.4606 124.048 99.2866 124.207 99.9946 124.524C100.703 124.841 101.289 125.289 101.752 125.867C102.224 126.436 102.574 127.116 102.802 127.905C103.038 128.695 103.156 129.565 103.156 130.518V131.775H92.9512V129.663H100.251V129.431C100.235 128.902 100.129 128.406 99.9336 127.942C99.7464 127.478 99.4575 127.104 99.0669 126.819C98.6763 126.534 98.1554 126.392 97.5044 126.392C97.0161 126.392 96.5807 126.497 96.1982 126.709C95.8239 126.912 95.5106 127.209 95.2583 127.6C95.006 127.991 94.8107 128.463 94.6724 129.016C94.5422 129.561 94.4771 130.176 94.4771 130.859V131.348C94.4771 131.925 94.5544 132.463 94.709 132.959C94.8717 133.447 95.1077 133.875 95.417 134.241C95.7262 134.607 96.1006 134.896 96.54 135.107C96.9795 135.311 97.48 135.413 98.0415 135.413C98.7495 135.413 99.3802 135.27 99.9336 134.985C100.487 134.701 100.967 134.298 101.374 133.777L102.924 135.278C102.639 135.693 102.269 136.092 101.813 136.475C101.358 136.849 100.8 137.154 100.141 137.39C99.4901 137.626 98.7332 137.744 97.8706 137.744ZM108.405 126.807V137.5H105.463V124.292H108.271L108.405 126.807ZM112.446 124.207L112.421 126.941C112.242 126.908 112.047 126.884 111.835 126.868C111.632 126.851 111.429 126.843 111.225 126.843C110.721 126.843 110.277 126.917 109.895 127.063C109.512 127.201 109.191 127.405 108.93 127.673C108.678 127.934 108.483 128.251 108.344 128.625C108.206 129 108.125 129.419 108.1 129.883L107.429 129.932C107.429 129.102 107.51 128.333 107.673 127.625C107.836 126.917 108.08 126.294 108.405 125.757C108.739 125.22 109.154 124.801 109.65 124.5C110.155 124.198 110.737 124.048 111.396 124.048C111.575 124.048 111.766 124.064 111.97 124.097C112.181 124.129 112.34 124.166 112.446 124.207ZM122.504 124.292H125.178V137.134C125.178 138.322 124.925 139.331 124.421 140.161C123.916 140.991 123.212 141.622 122.309 142.053C121.406 142.493 120.36 142.712 119.172 142.712C118.667 142.712 118.106 142.639 117.487 142.493C116.877 142.346 116.283 142.11 115.705 141.785C115.135 141.467 114.659 141.048 114.277 140.527L115.656 138.794C116.128 139.355 116.649 139.766 117.219 140.027C117.788 140.287 118.387 140.417 119.013 140.417C119.689 140.417 120.262 140.291 120.734 140.039C121.215 139.795 121.585 139.433 121.845 138.953C122.106 138.472 122.236 137.887 122.236 137.195V127.283L122.504 124.292ZM113.532 131.042V130.786C113.532 129.785 113.654 128.874 113.898 128.052C114.143 127.222 114.493 126.51 114.948 125.916C115.404 125.313 115.957 124.854 116.608 124.536C117.259 124.211 117.996 124.048 118.818 124.048C119.672 124.048 120.401 124.202 121.003 124.512C121.613 124.821 122.122 125.264 122.529 125.842C122.936 126.412 123.253 127.096 123.481 127.893C123.717 128.682 123.892 129.561 124.006 130.53V131.348C123.9 132.292 123.721 133.154 123.469 133.936C123.216 134.717 122.883 135.392 122.468 135.962C122.053 136.532 121.54 136.971 120.93 137.28C120.327 137.59 119.615 137.744 118.793 137.744C117.988 137.744 117.259 137.577 116.608 137.244C115.965 136.91 115.412 136.442 114.948 135.84C114.493 135.238 114.143 134.53 113.898 133.716C113.654 132.894 113.532 132.003 113.532 131.042ZM116.474 130.786V131.042C116.474 131.645 116.531 132.206 116.645 132.727C116.767 133.248 116.95 133.708 117.194 134.106C117.447 134.497 117.764 134.806 118.146 135.034C118.537 135.254 118.997 135.364 119.526 135.364C120.218 135.364 120.783 135.217 121.223 134.924C121.67 134.631 122.012 134.237 122.248 133.74C122.492 133.236 122.663 132.674 122.761 132.056V129.846C122.712 129.366 122.61 128.918 122.456 128.503C122.309 128.088 122.11 127.726 121.857 127.417C121.605 127.1 121.288 126.855 120.905 126.685C120.523 126.506 120.071 126.416 119.55 126.416C119.021 126.416 118.562 126.53 118.171 126.758C117.78 126.986 117.459 127.299 117.207 127.698C116.962 128.097 116.779 128.56 116.657 129.089C116.535 129.618 116.474 130.184 116.474 130.786ZM131.379 124.292V137.5H128.425V124.292H131.379ZM128.229 120.825C128.229 120.378 128.376 120.007 128.669 119.714C128.97 119.413 129.385 119.263 129.914 119.263C130.435 119.263 130.846 119.413 131.147 119.714C131.448 120.007 131.599 120.378 131.599 120.825C131.599 121.265 131.448 121.631 131.147 121.924C130.846 122.217 130.435 122.363 129.914 122.363C129.385 122.363 128.97 122.217 128.669 121.924C128.376 121.631 128.229 121.265 128.229 120.825ZM143.977 124.292V137.5H141.022V124.292H143.977ZM140.827 120.825C140.827 120.378 140.974 120.007 141.267 119.714C141.568 119.413 141.983 119.263 142.512 119.263C143.033 119.263 143.444 119.413 143.745 119.714C144.046 120.007 144.196 120.378 144.196 120.825C144.196 121.265 144.046 121.631 143.745 121.924C143.444 122.217 143.033 122.363 142.512 122.363C141.983 122.363 141.568 122.217 141.267 121.924C140.974 121.631 140.827 121.265 140.827 120.825ZM150.117 127.112V137.5H147.175V124.292H149.946L150.117 127.112ZM149.592 130.408L148.64 130.396C148.648 129.46 148.778 128.601 149.03 127.82C149.291 127.039 149.649 126.367 150.104 125.806C150.568 125.244 151.122 124.813 151.765 124.512C152.408 124.202 153.124 124.048 153.913 124.048C154.548 124.048 155.122 124.137 155.634 124.316C156.155 124.487 156.599 124.768 156.965 125.159C157.339 125.549 157.624 126.058 157.819 126.685C158.015 127.303 158.112 128.064 158.112 128.967V137.5H155.158V128.955C155.158 128.32 155.065 127.82 154.877 127.454C154.698 127.079 154.434 126.815 154.084 126.66C153.742 126.497 153.315 126.416 152.802 126.416C152.298 126.416 151.846 126.522 151.447 126.733C151.049 126.945 150.711 127.234 150.434 127.6C150.166 127.966 149.958 128.389 149.812 128.87C149.665 129.35 149.592 129.862 149.592 130.408ZM164.033 127.112V137.5H161.091V124.292H163.862L164.033 127.112ZM163.508 130.408L162.556 130.396C162.564 129.46 162.694 128.601 162.946 127.82C163.207 127.039 163.565 126.367 164.021 125.806C164.484 125.244 165.038 124.813 165.681 124.512C166.324 124.202 167.04 124.048 167.829 124.048C168.464 124.048 169.038 124.137 169.55 124.316C170.071 124.487 170.515 124.768 170.881 125.159C171.255 125.549 171.54 126.058 171.735 126.685C171.931 127.303 172.028 128.064 172.028 128.967V137.5H169.074V128.955C169.074 128.32 168.981 127.82 168.793 127.454C168.614 127.079 168.35 126.815 168 126.66C167.658 126.497 167.231 126.416 166.718 126.416C166.214 126.416 165.762 126.522 165.363 126.733C164.965 126.945 164.627 127.234 164.35 127.6C164.082 127.966 163.874 128.389 163.728 128.87C163.581 129.35 163.508 129.862 163.508 130.408Z" fill="white"/>
<path d="M314.46 133.974V136.5H304.646V133.974H314.46ZM305.548 118.016V136.5H302.361V118.016H305.548ZM313.178 125.734V128.223H304.646V125.734H313.178ZM314.396 118.016V120.555H304.646V118.016H314.396ZM319.792 125.696V136.5H316.732V122.764H319.614L319.792 125.696ZM319.246 129.124L318.256 129.111C318.264 128.138 318.4 127.245 318.662 126.433C318.933 125.62 319.305 124.922 319.779 124.338C320.262 123.754 320.837 123.305 321.506 122.992C322.174 122.671 322.919 122.51 323.74 122.51C324.4 122.51 324.997 122.603 325.53 122.789C326.072 122.967 326.533 123.259 326.914 123.665C327.303 124.071 327.6 124.6 327.803 125.252C328.006 125.895 328.107 126.687 328.107 127.626V136.5H325.035V127.613C325.035 126.953 324.938 126.433 324.743 126.052C324.557 125.662 324.282 125.387 323.918 125.227C323.562 125.057 323.118 124.973 322.585 124.973C322.06 124.973 321.59 125.083 321.176 125.303C320.761 125.523 320.41 125.823 320.122 126.204C319.843 126.585 319.627 127.025 319.475 127.524C319.322 128.024 319.246 128.557 319.246 129.124ZM337.286 136.754C336.271 136.754 335.352 136.589 334.531 136.259C333.719 135.92 333.025 135.451 332.449 134.85C331.882 134.249 331.446 133.542 331.142 132.729C330.837 131.917 330.685 131.041 330.685 130.102V129.594C330.685 128.519 330.841 127.546 331.154 126.674C331.467 125.802 331.903 125.057 332.462 124.439C333.021 123.813 333.681 123.335 334.442 123.005C335.204 122.675 336.029 122.51 336.918 122.51C337.9 122.51 338.759 122.675 339.495 123.005C340.231 123.335 340.841 123.8 341.323 124.401C341.814 124.994 342.178 125.701 342.415 126.521C342.66 127.342 342.783 128.248 342.783 129.238V130.546H332.17V128.35H339.762V128.108C339.745 127.558 339.635 127.042 339.432 126.56C339.237 126.077 338.937 125.688 338.53 125.392C338.124 125.095 337.582 124.947 336.905 124.947C336.397 124.947 335.945 125.057 335.547 125.277C335.158 125.489 334.832 125.798 334.569 126.204C334.307 126.61 334.104 127.101 333.96 127.677C333.825 128.244 333.757 128.883 333.757 129.594V130.102C333.757 130.702 333.837 131.261 333.998 131.777C334.167 132.285 334.413 132.729 334.734 133.11C335.056 133.491 335.445 133.792 335.902 134.012C336.359 134.223 336.88 134.329 337.464 134.329C338.2 134.329 338.856 134.181 339.432 133.885C340.007 133.589 340.507 133.17 340.93 132.628L342.542 134.189C342.246 134.621 341.861 135.036 341.387 135.434C340.913 135.823 340.333 136.14 339.647 136.386C338.97 136.631 338.183 136.754 337.286 136.754ZM348.242 125.379V136.5H345.183V122.764H348.103L348.242 125.379ZM352.444 122.675L352.419 125.519C352.233 125.485 352.03 125.459 351.81 125.442C351.598 125.425 351.386 125.417 351.175 125.417C350.65 125.417 350.189 125.493 349.791 125.646C349.393 125.789 349.059 126.001 348.788 126.28C348.526 126.551 348.323 126.881 348.179 127.271C348.035 127.66 347.95 128.096 347.925 128.578L347.227 128.629C347.227 127.766 347.311 126.966 347.48 126.229C347.65 125.493 347.904 124.846 348.242 124.287C348.589 123.729 349.021 123.293 349.537 122.979C350.062 122.666 350.667 122.51 351.353 122.51C351.539 122.51 351.738 122.527 351.949 122.561C352.169 122.594 352.334 122.632 352.444 122.675ZM362.905 122.764H365.686V136.119C365.686 137.355 365.423 138.404 364.898 139.268C364.374 140.131 363.642 140.787 362.702 141.235C361.763 141.692 360.675 141.921 359.439 141.921C358.915 141.921 358.331 141.845 357.688 141.692C357.053 141.54 356.435 141.295 355.834 140.956C355.242 140.626 354.746 140.19 354.349 139.648L355.783 137.846C356.274 138.43 356.816 138.857 357.408 139.128C358.001 139.399 358.623 139.534 359.274 139.534C359.977 139.534 360.574 139.403 361.064 139.141C361.564 138.887 361.949 138.51 362.22 138.011C362.491 137.511 362.626 136.902 362.626 136.183V125.874L362.905 122.764ZM353.574 129.784V129.518C353.574 128.477 353.701 127.529 353.955 126.674C354.209 125.811 354.573 125.07 355.047 124.452C355.521 123.826 356.096 123.348 356.773 123.018C357.451 122.679 358.216 122.51 359.071 122.51C359.96 122.51 360.717 122.671 361.344 122.992C361.979 123.314 362.507 123.775 362.931 124.376C363.354 124.968 363.684 125.679 363.921 126.509C364.166 127.33 364.348 128.244 364.467 129.251V130.102C364.357 131.083 364.171 131.98 363.908 132.793C363.646 133.605 363.299 134.308 362.867 134.9C362.436 135.493 361.902 135.95 361.268 136.271C360.641 136.593 359.901 136.754 359.046 136.754C358.208 136.754 357.451 136.58 356.773 136.233C356.105 135.886 355.529 135.4 355.047 134.773C354.573 134.147 354.209 133.411 353.955 132.564C353.701 131.71 353.574 130.783 353.574 129.784ZM356.634 129.518V129.784C356.634 130.41 356.693 130.994 356.812 131.536C356.938 132.078 357.129 132.556 357.383 132.971C357.645 133.377 357.975 133.699 358.373 133.936C358.779 134.164 359.257 134.278 359.808 134.278C360.527 134.278 361.115 134.126 361.572 133.821C362.038 133.517 362.393 133.106 362.639 132.59C362.893 132.065 363.07 131.481 363.172 130.838V128.54C363.121 128.041 363.015 127.575 362.854 127.144C362.702 126.712 362.495 126.335 362.232 126.014C361.97 125.684 361.64 125.43 361.242 125.252C360.844 125.066 360.375 124.973 359.833 124.973C359.283 124.973 358.805 125.091 358.398 125.328C357.992 125.565 357.658 125.891 357.396 126.306C357.142 126.72 356.951 127.203 356.824 127.753C356.697 128.303 356.634 128.891 356.634 129.518ZM372.135 122.764V136.5H369.062V122.764H372.135ZM368.859 119.158C368.859 118.693 369.012 118.308 369.316 118.003C369.63 117.69 370.061 117.533 370.611 117.533C371.153 117.533 371.58 117.69 371.894 118.003C372.207 118.308 372.363 118.693 372.363 119.158C372.363 119.615 372.207 119.996 371.894 120.301C371.58 120.605 371.153 120.758 370.611 120.758C370.061 120.758 369.63 120.605 369.316 120.301C369.012 119.996 368.859 119.615 368.859 119.158ZM390.226 133.263V122.764H393.298V136.5H390.403L390.226 133.263ZM390.657 130.406L391.686 130.381C391.686 131.303 391.584 132.154 391.381 132.933C391.178 133.703 390.865 134.376 390.441 134.951C390.018 135.518 389.477 135.963 388.816 136.284C388.156 136.597 387.365 136.754 386.442 136.754C385.774 136.754 385.16 136.657 384.602 136.462C384.043 136.267 383.561 135.967 383.154 135.561C382.757 135.154 382.448 134.625 382.228 133.974C382.007 133.322 381.897 132.543 381.897 131.638V122.764H384.957V131.663C384.957 132.162 385.016 132.581 385.135 132.92C385.253 133.25 385.414 133.517 385.617 133.72C385.82 133.923 386.057 134.067 386.328 134.151C386.599 134.236 386.887 134.278 387.191 134.278C388.063 134.278 388.749 134.109 389.248 133.771C389.756 133.424 390.116 132.958 390.327 132.374C390.547 131.79 390.657 131.134 390.657 130.406ZM402.73 122.764V124.998H394.986V122.764H402.73ZM397.221 119.399H400.28V132.704C400.28 133.127 400.34 133.453 400.458 133.682C400.585 133.902 400.758 134.05 400.979 134.126C401.199 134.202 401.457 134.24 401.753 134.24C401.965 134.24 402.168 134.228 402.362 134.202C402.557 134.177 402.714 134.151 402.832 134.126L402.845 136.462C402.591 136.538 402.295 136.606 401.956 136.665C401.626 136.724 401.245 136.754 400.813 136.754C400.111 136.754 399.489 136.631 398.947 136.386C398.406 136.132 397.982 135.721 397.678 135.154C397.373 134.587 397.221 133.834 397.221 132.895V119.399Z" fill="white"/>
</g>
<defs>
<clipPath id="clip0_318_32969">
<rect width="497" height="402" rx="8" fill="white"/>
</clipPath>
</defs>
</svg>
