<svg width="497" height="451" viewBox="0 0 497 451" fill="none" xmlns="http://www.w3.org/2000/svg">
<g clip-path="url(#clip0_155_2507)">
<!-- <path class="battery-fill" d="M248.625 221.875C248.625 221.113 248.928 220.381 249.467 219.842C250.006 219.303 250.738 219 251.5 219H274.5C275.262 219 275.994 219.303 276.533 219.842C277.072 220.381 277.375 221.113 277.375 221.875C277.375 222.637 277.072 223.369 276.533 223.908C275.994 224.447 275.262 224.75 274.5 224.75H251.5C250.738 224.75 250.006 224.447 249.467 223.908C248.928 223.369 248.625 222.637 248.625 221.875ZM288.875 239.125V299.5C288.875 301.787 287.966 303.981 286.349 305.599C284.731 307.216 282.537 308.125 280.25 308.125H245.75C243.463 308.125 241.269 307.216 239.651 305.599C238.034 303.981 237.125 301.787 237.125 299.5V239.125C237.125 236.838 238.034 234.644 239.651 233.026C241.269 231.409 243.463 230.5 245.75 230.5H280.25C282.537 230.5 284.731 231.409 286.349 233.026C287.966 234.644 288.875 236.838 288.875 239.125ZM283.125 239.125C283.125 238.363 282.822 237.631 282.283 237.092C281.744 236.553 281.012 236.25 280.25 236.25H245.75C244.988 236.25 244.256 236.553 243.717 237.092C243.178 237.631 242.875 238.363 242.875 239.125V299.5C242.875 300.262 243.178 300.994 243.717 301.533C244.256 302.072 244.988 302.375 245.75 302.375H280.25C281.012 302.375 281.744 302.072 282.283 301.533C282.822 300.994 283.125 300.262 283.125 299.5V239.125ZM274.5 244.875H251.5C250.738 244.875 250.006 245.178 249.467 245.717C248.928 246.256 248.625 246.988 248.625 247.75C248.625 248.512 248.928 249.244 249.467 249.783C250.006 250.322 250.738 250.625 251.5 250.625H274.5C275.262 250.625 275.994 250.322 276.533 249.783C277.072 249.244 277.375 248.512 277.375 247.75C277.375 246.988 277.072 246.256 276.533 245.717C275.994 245.178 275.262 244.875 274.5 244.875ZM274.5 259.25H251.5C250.738 259.25 250.006 259.553 249.467 260.092C248.928 260.631 248.625 261.363 248.625 262.125C248.625 262.887 248.928 263.619 249.467 264.158C250.006 264.697 250.738 265 251.5 265H274.5C275.262 265 275.994 264.697 276.533 264.158C277.072 263.619 277.375 262.887 277.375 262.125C277.375 261.363 277.072 260.631 276.533 260.092C275.994 259.553 275.262 259.25 274.5 259.25ZM274.5 273.625H251.5C250.738 273.625 250.006 273.928 249.467 274.467C248.928 275.006 248.625 275.738 248.625 276.5C248.625 277.262 248.928 277.994 249.467 278.533C250.006 279.072 250.738 279.375 251.5 279.375H274.5C275.262 279.375 275.994 279.072 276.533 278.533C277.072 277.994 277.375 277.262 277.375 276.5C277.375 275.738 277.072 275.006 276.533 274.467C275.994 273.928 275.262 273.625 274.5 273.625ZM274.5 288H251.5C250.738 288 250.006 288.303 249.467 288.842C248.928 289.381 248.625 290.113 248.625 290.875C248.625 291.637 248.928 292.369 249.467 292.908C250.006 293.447 250.738 293.75 251.5 293.75H274.5C275.262 293.75 275.994 293.447 276.533 292.908C277.072 292.369 277.375 291.637 277.375 290.875C277.375 290.113 277.072 289.381 276.533 288.842C275.994 288.303 275.262 288 274.5 288Z" fill="#C5F529"/> -->
<!-- 🔋 Battery Body -->
<rect class="battery-body" x="242.875" y="236.25" width="40.25" height="66.125" rx="4" stroke="#C5F529" stroke-width="5"/>
<rect x="251.5" y="219" width="23" height="6" rx="2" fill="#C5F529"/>

<!-- ⚡ Animated Lines -->
<rect class="line l4" x="251.5" y="244.875" width="23" height="5" fill="#C5F529"/>
<rect class="line l3" x="251.5" y="259.25" width="23" height="5" fill="#C5F529"/>
<rect class="line l2" x="251.5" y="273.625" width="23" height="5" fill="#C5F529"/>
<rect class="line l1" x="251.5" y="288" width="23" height="5" fill="#C5F529"/>
<!-- 🟢 MAIN CLEAN CIRCLE -->
<circle cx="263" cy="266" r="161.5"
        stroke="#C5F529"
        stroke-width="2"
        fill="none"/>

<!-- ✨ OUTER GLOW CIRCLE (SHIFTED OUTSIDE) -->
<circle cx="263" cy="266" r="165"
        stroke="#C5F529"
        stroke-width="8"
        fill="none"
        opacity="0.35"
        filter="url(#outerGlow)"/>
<rect x="84" y="296" width="70" height="70" rx="10" fill="#1D1D1D"/>
<path fill-rule="evenodd" clip-rule="evenodd" d="M108.377 318.053C110.098 319.928 113.005 320.733 118.332 320.847C118.635 316.823 120.186 313.655 122.48 311.429C125.029 308.956 128.409 307.737 131.763 307.737C135.117 307.737 138.499 308.956 141.048 311.429C143.615 313.918 145.25 317.592 145.25 322.32V338.362C145.25 342.856 144.502 347.551 142.237 351.166C139.905 354.887 136.055 357.32 130.293 357.32C124.399 357.32 120.296 353.823 116.544 350.585L116.381 350.444C112.604 347.183 109.082 344.145 104.077 343.466C101.622 343.485 99.9701 344.234 98.8166 345.261C97.6208 346.326 96.8479 347.79 96.3666 349.362C95.8854 350.931 95.7191 352.526 95.6783 353.746C95.6573 354.363 95.6665 354.981 95.706 355.598C95.7082 355.629 95.7106 355.661 95.7133 355.692L95.7162 355.713L94.2652 355.862C92.8141 356.01 92.8141 356.007 92.8141 356.007V356.003L92.8127 355.99L92.8083 355.951C92.7911 355.744 92.7779 355.537 92.7689 355.329C92.7514 354.92 92.7397 354.341 92.7631 353.646C92.8097 352.271 92.9964 350.402 93.5783 348.507C94.1572 346.616 95.1547 344.615 96.877 343.082C98.627 341.525 101.016 340.549 104.17 340.549C104.904 340.549 105.595 340.565 106.258 340.581C107.492 340.61 108.633 340.64 109.776 340.552C111.46 340.427 112.849 340.059 113.996 339.2C116.194 337.552 118.097 333.622 118.265 323.764C112.841 323.651 108.815 322.845 106.228 320.025C104.822 318.493 103.954 316.488 103.431 314.007C102.91 311.537 102.712 308.502 102.712 304.82H105.628C105.628 308.429 105.825 311.228 106.285 313.405C106.743 315.574 107.443 317.032 108.377 318.053ZM118.081 348.06C116.172 346.412 114.132 344.647 111.771 343.23C113.148 342.963 114.507 342.461 115.745 341.533C117.641 340.112 119.07 337.84 119.989 334.347C122.389 332.728 124.364 332.385 126.096 332.575C127.951 332.779 129.665 333.6 131.555 334.558L131.87 334.719C133.586 335.591 135.523 336.577 137.581 336.835C139.212 337.049 140.871 336.759 142.333 336.005V338.362C142.333 342.617 141.61 346.673 139.765 349.618C137.986 352.459 135.084 354.402 130.292 354.402C125.63 354.402 122.303 351.702 118.45 348.377L118.081 348.06ZM142.333 332.566V322.32C142.333 318.298 140.962 315.407 139.017 313.523C137.057 311.62 134.423 310.653 131.763 310.653C129.103 310.653 126.47 311.62 124.51 313.523C122.566 315.409 121.195 318.298 121.195 322.32C121.195 325.52 121.031 328.264 120.712 330.612C122.727 329.717 124.617 329.479 126.417 329.676C128.87 329.946 131.028 331.02 132.876 331.957L133.007 332.024C134.89 332.977 136.408 333.747 137.947 333.941C139.245 334.105 140.65 333.86 142.333 332.566Z" fill="#E5F8A1"/>
<rect width="70" height="70" transform="translate(228 71)" fill="#1D1D1D"/>
<path d="M295.813 104.906C295.81 102.009 294.986 99.1712 293.438 96.7221C291.889 94.2731 289.679 92.3126 287.063 91.0675V90.6875C287.06 87.8689 286.15 85.1261 284.468 82.8647C282.785 80.6034 280.42 78.9437 277.721 78.1313C275.022 77.3189 272.133 77.3968 269.482 78.3536C266.831 79.3105 264.558 81.0953 263 83.4441C261.442 81.0953 259.169 79.3105 256.518 78.3536C253.867 77.3968 250.978 77.3189 248.279 78.1313C245.58 78.9437 243.215 80.6034 241.532 82.8647C239.85 85.1261 238.94 87.8689 238.938 90.6875V91.0675C236.319 92.3092 234.106 94.2684 232.557 96.7176C231.008 99.1668 230.186 102.005 230.186 104.903C230.186 107.802 231.008 110.64 232.557 113.089C234.106 115.539 236.319 117.498 238.938 118.739V119.125C238.94 121.944 239.85 124.686 241.532 126.948C243.215 129.209 245.58 130.869 248.279 131.681C250.978 132.494 253.867 132.416 256.518 131.459C259.169 130.502 261.442 128.717 263 126.368C264.558 128.717 266.831 130.502 269.482 131.459C272.133 132.416 275.022 132.494 277.721 131.681C280.42 130.869 282.785 129.209 284.468 126.948C286.15 124.686 287.06 121.944 287.063 119.125V118.739C289.679 117.495 291.889 115.536 293.437 113.088C294.986 110.64 295.809 107.803 295.813 104.906ZM252.063 127.875C249.905 127.875 247.824 127.077 246.218 125.636C244.613 124.194 243.596 122.211 243.365 120.066C244.072 120.167 244.786 120.218 245.5 120.219H247.688C248.268 120.219 248.824 119.988 249.234 119.578C249.645 119.168 249.875 118.611 249.875 118.031C249.875 117.451 249.645 116.895 249.234 116.484C248.824 116.074 248.268 115.844 247.688 115.844H245.5C242.918 115.847 240.417 114.936 238.442 113.272C236.467 111.609 235.144 109.3 234.707 106.755C234.271 104.21 234.749 101.592 236.057 99.3654C237.365 97.1388 239.419 95.447 241.855 94.5894C242.281 94.4385 242.65 94.1593 242.911 93.7901C243.172 93.4208 243.313 92.9798 243.313 92.5277V90.6875C243.313 88.3668 244.234 86.1412 245.875 84.5003C247.516 82.8593 249.742 81.9375 252.063 81.9375C254.383 81.9375 256.609 82.8593 258.25 84.5003C259.891 86.1412 260.813 88.3668 260.813 90.6875V109.352C258.41 107.192 255.293 105.998 252.063 106C251.482 106 250.926 106.23 250.516 106.641C250.106 107.051 249.875 107.607 249.875 108.187C249.875 108.768 250.106 109.324 250.516 109.734C250.926 110.145 251.482 110.375 252.063 110.375C254.383 110.375 256.609 111.297 258.25 112.938C259.891 114.579 260.813 116.804 260.813 119.125C260.813 121.446 259.891 123.671 258.25 125.312C256.609 126.953 254.383 127.875 252.063 127.875ZM280.5 115.844H278.313C277.732 115.844 277.176 116.074 276.766 116.484C276.356 116.895 276.125 117.451 276.125 118.031C276.125 118.611 276.356 119.168 276.766 119.578C277.176 119.988 277.732 120.219 278.313 120.219H280.5C281.215 120.218 281.928 120.167 282.636 120.066C282.454 121.746 281.789 123.338 280.722 124.649C279.655 125.96 278.23 126.934 276.621 127.453C275.012 127.972 273.288 128.013 271.655 127.572C270.023 127.132 268.554 126.228 267.425 124.97C266.295 123.712 265.555 122.153 265.292 120.483C265.03 118.813 265.257 117.103 265.946 115.559C266.635 114.015 267.756 112.704 269.174 111.784C270.593 110.864 272.247 110.375 273.938 110.375C274.518 110.375 275.074 110.145 275.484 109.734C275.895 109.324 276.125 108.768 276.125 108.187C276.125 107.607 275.895 107.051 275.484 106.641C275.074 106.23 274.518 106 273.938 106C270.707 105.998 267.59 107.192 265.188 109.352V90.6875C265.188 88.3668 266.109 86.1412 267.75 84.5003C269.391 82.8593 271.617 81.9375 273.938 81.9375C276.258 81.9375 278.484 82.8593 280.125 84.5003C281.766 86.1412 282.688 88.3668 282.688 90.6875V92.5277C282.688 92.9798 282.828 93.4208 283.089 93.7901C283.35 94.1593 283.719 94.4385 284.145 94.5894C286.581 95.447 288.635 97.1388 289.943 99.3654C291.251 101.592 291.73 104.21 291.293 106.755C290.857 109.3 289.533 111.609 287.558 113.272C285.583 114.936 283.083 115.847 280.5 115.844ZM284.875 101.625C284.875 102.205 284.645 102.762 284.234 103.172C283.824 103.582 283.268 103.812 282.688 103.812H281.594C278.983 103.812 276.479 102.775 274.633 100.929C272.787 99.0832 271.75 96.5794 271.75 93.9687V92.875C271.75 92.2948 271.981 91.7384 272.391 91.3282C272.801 90.9179 273.357 90.6875 273.938 90.6875C274.518 90.6875 275.074 90.9179 275.484 91.3282C275.895 91.7384 276.125 92.2948 276.125 92.875V93.9687C276.125 95.4191 276.701 96.8101 277.727 97.8357C278.752 98.8613 280.143 99.4375 281.594 99.4375H282.688C283.268 99.4375 283.824 99.6679 284.234 100.078C284.645 100.488 284.875 101.045 284.875 101.625ZM244.406 103.812H243.313C242.732 103.812 242.176 103.582 241.766 103.172C241.356 102.762 241.125 102.205 241.125 101.625C241.125 101.045 241.356 100.488 241.766 100.078C242.176 99.6679 242.732 99.4375 243.313 99.4375H244.406C245.857 99.4375 247.248 98.8613 248.273 97.8357C249.299 96.8101 249.875 95.4191 249.875 93.9687V92.875C249.875 92.2948 250.106 91.7384 250.516 91.3282C250.926 90.9179 251.482 90.6875 252.063 90.6875C252.643 90.6875 253.199 90.9179 253.609 91.3282C254.02 91.7384 254.25 92.2948 254.25 92.875V93.9687C254.25 96.5794 253.213 99.0832 251.367 100.929C249.521 102.775 247.017 103.812 244.406 103.812Z" fill="#E5F8A1"/>
<rect width="50" height="60" transform="translate(385 169)" fill="#1D1D1D"/>
<path d="M396.406 193.344C393.96 190.382 391.663 189.746 389.515 191.436C386.293 193.971 385.367 202.808 387.96 210.599C390.553 218.39 395.595 229 405.773 229C415.951 229 418.358 218.325 422.511 211.871C426.663 205.417 428.86 199.191 424.79 191.436" stroke="#E5F8A1" stroke-width="2.4" stroke-linecap="round" stroke-linejoin="round"/>
<path d="M391.274 190.515C388.805 186.812 386.873 183.941 385.476 181.899C383.38 178.837 388.739 174.879 391.274 177.572C392.964 179.367 395.209 182.01 398.009 185.503" stroke="#E5F8A1" stroke-width="2.4" stroke-linecap="round"/>
<path d="M397.105 201.367C396.403 192.712 396.974 187.077 398.82 184.461C401.587 180.538 406.73 179.05 411.572 179.05C414.455 179.05 417.088 180.259 419.471 182.677" stroke="#E5F8A1" stroke-width="2.4" stroke-linecap="round" stroke-linejoin="round"/>
<path d="M434.762 182.774C435.611 185.68 434.225 188.336 429.956 188.937C425.687 189.538 422.486 191.652 420.178 193.43C417.869 195.208 413.741 200.602 412.926 203.311C412.111 206.019 407.452 203.528 406.201 202.447C404.95 201.366 403.72 198.998 406.201 196.522C408.682 194.046 408.146 193.552 408.146 191.041C408.146 188.53 421.716 180.224 429.359 179.465C431.058 179.367 433.913 179.868 434.762 182.774Z" stroke="#E5F8A1" stroke-width="2.4"/>
<path d="M408.68 170.484V177.994" stroke="#E5F8A1" stroke-width="2.4" stroke-linecap="round"/>
<path d="M404.764 180.07C400.389 174.657 396.862 171.636 394.182 171.007" stroke="#E5F8A1" stroke-width="2.4" stroke-linecap="round"/>
<path d="M399.977 174.805L401.413 169" stroke="#E5F8A1" stroke-width="2.4" stroke-linecap="round"/>
<path d="M426.952 180.069C426.485 181.645 426.485 183.123 426.952 184.503C427.419 185.883 428.42 187.361 429.955 188.937" stroke="#E5F8A1" stroke-width="2.4" stroke-linecap="round"/>
<rect width="70" height="70" transform="translate(373 296)" fill="#1D1D1D"/>
<path d="M429.875 302.562H418.938C418.357 302.562 417.801 302.793 417.391 303.203C416.981 303.613 416.75 304.17 416.75 304.75C416.75 305.33 416.981 305.887 417.391 306.297C417.801 306.707 418.357 306.938 418.938 306.938H424.595L417.718 313.814C415.699 311.933 413.263 310.555 410.61 309.794C407.956 309.034 405.161 308.912 402.451 309.438C399.742 309.964 397.195 311.124 395.019 312.822C392.843 314.52 391.1 316.709 389.932 319.21C388.764 321.711 388.203 324.453 388.297 327.211C388.391 329.97 389.136 332.667 390.471 335.083C391.807 337.499 393.694 339.564 395.98 341.111C398.266 342.658 400.886 343.642 403.625 343.983V348.5H397.063C396.482 348.5 395.926 348.73 395.516 349.141C395.106 349.551 394.875 350.107 394.875 350.688C394.875 351.268 395.106 351.824 395.516 352.234C395.926 352.645 396.482 352.875 397.063 352.875H403.625V359.438C403.625 360.018 403.856 360.574 404.266 360.984C404.676 361.395 405.232 361.625 405.813 361.625C406.393 361.625 406.949 361.395 407.359 360.984C407.77 360.574 408 360.018 408 359.438V352.875H414.563C415.143 352.875 415.699 352.645 416.109 352.234C416.52 351.824 416.75 351.268 416.75 350.688C416.75 350.107 416.52 349.551 416.109 349.141C415.699 348.73 415.143 348.5 414.563 348.5H408V343.983C410.932 343.617 413.724 342.513 416.113 340.775C418.503 339.037 420.413 336.721 421.665 334.045C422.917 331.368 423.47 328.418 423.273 325.47C423.075 322.521 422.133 319.671 420.534 317.186L427.688 310.03V315.688C427.688 316.268 427.918 316.824 428.328 317.234C428.739 317.645 429.295 317.875 429.875 317.875C430.455 317.875 431.012 317.645 431.422 317.234C431.832 316.824 432.063 316.268 432.063 315.688V304.75C432.063 304.17 431.832 303.613 431.422 303.203C431.012 302.793 430.455 302.562 429.875 302.562ZM405.813 339.75C403.217 339.75 400.679 338.98 398.521 337.538C396.362 336.096 394.68 334.046 393.687 331.648C392.693 329.249 392.433 326.61 392.94 324.064C393.446 321.518 394.696 319.18 396.532 317.344C398.367 315.509 400.706 314.259 403.252 313.752C405.798 313.246 408.437 313.506 410.835 314.499C413.234 315.492 415.283 317.175 416.726 319.333C418.168 321.492 418.938 324.029 418.938 326.625C418.934 330.105 417.55 333.441 415.089 335.902C412.629 338.362 409.292 339.746 405.813 339.75Z" fill="#E5F8A1"/>
<rect width="70" height="70" transform="translate(228 383)" fill="#1D1D1D"/>
<path d="M265.188 412.531C265.188 411.017 264.738 409.537 263.897 408.278C263.056 407.019 261.86 406.037 260.461 405.458C259.062 404.878 257.523 404.727 256.038 405.022C254.552 405.318 253.188 406.047 252.117 407.117C251.047 408.188 250.318 409.552 250.022 411.038C249.727 412.523 249.878 414.062 250.458 415.461C251.037 416.86 252.019 418.056 253.278 418.897C254.537 419.738 256.017 420.188 257.531 420.188C259.562 420.188 261.509 419.381 262.945 417.945C264.381 416.509 265.188 414.562 265.188 412.531ZM257.531 415.812C256.882 415.812 256.248 415.62 255.708 415.26C255.169 414.899 254.748 414.386 254.5 413.787C254.251 413.187 254.186 412.528 254.313 411.891C254.44 411.255 254.752 410.67 255.211 410.211C255.67 409.752 256.255 409.44 256.891 409.313C257.528 409.186 258.187 409.251 258.787 409.5C259.386 409.748 259.899 410.169 260.26 410.708C260.62 411.248 260.812 411.882 260.812 412.531C260.812 413.401 260.467 414.236 259.851 414.851C259.236 415.467 258.401 415.812 257.531 415.812ZM276.125 413.625C276.99 413.625 277.836 413.882 278.556 414.362C279.275 414.843 279.836 415.526 280.167 416.326C280.498 417.125 280.585 418.005 280.416 418.854C280.247 419.702 279.83 420.482 279.219 421.094C278.607 421.705 277.827 422.122 276.979 422.291C276.13 422.46 275.25 422.373 274.451 422.042C273.651 421.711 272.968 421.15 272.487 420.431C272.007 419.711 271.75 418.865 271.75 418C271.75 416.84 272.211 415.727 273.031 414.906C273.852 414.086 274.965 413.625 276.125 413.625ZM267.375 431.125C267.375 431.99 267.118 432.836 266.638 433.556C266.157 434.275 265.474 434.836 264.674 435.167C263.875 435.498 262.995 435.585 262.146 435.416C261.298 435.247 260.518 434.83 259.906 434.219C259.295 433.607 258.878 432.827 258.709 431.979C258.54 431.13 258.627 430.25 258.958 429.451C259.289 428.651 259.85 427.968 260.569 427.487C261.289 427.007 262.135 426.75 263 426.75C264.16 426.75 265.273 427.211 266.094 428.031C266.914 428.852 267.375 429.965 267.375 431.125ZM293.625 415.812H289.157C288.707 410.377 286.566 405.218 283.035 401.061L286.423 397.673C286.833 397.262 287.064 396.705 287.064 396.125C287.064 395.545 286.833 394.988 286.423 394.577C286.012 394.167 285.455 393.936 284.875 393.936C284.295 393.936 283.738 394.167 283.327 394.577L279.953 397.965C275.792 394.432 270.628 392.29 265.188 391.843V387.375C265.188 386.795 264.957 386.238 264.547 385.828C264.137 385.418 263.58 385.188 263 385.188C262.42 385.188 261.863 385.418 261.453 385.828C261.043 386.238 260.812 386.795 260.812 387.375V391.843C255.377 392.293 250.218 394.434 246.061 397.965L242.673 394.577C242.262 394.167 241.705 393.936 241.125 393.936C240.545 393.936 239.988 394.167 239.577 394.577C239.167 394.988 238.936 395.545 238.936 396.125C238.936 396.705 239.167 397.262 239.577 397.673L242.965 401.061C239.432 405.222 237.29 410.385 236.843 415.826H232.375C231.795 415.826 231.238 416.057 230.828 416.467C230.418 416.877 230.188 417.434 230.188 418.014C230.188 418.594 230.418 419.15 230.828 419.56C231.238 419.971 231.795 420.201 232.375 420.201H236.843C237.293 425.637 239.434 430.796 242.965 434.953L239.577 438.327C239.167 438.738 238.936 439.295 238.936 439.875C238.936 440.455 239.167 441.012 239.577 441.423C239.988 441.833 240.545 442.064 241.125 442.064C241.705 442.064 242.262 441.833 242.673 441.423L246.061 438.035C250.222 441.568 255.385 443.71 260.826 444.157V448.625C260.826 449.205 261.057 449.762 261.467 450.172C261.877 450.582 262.434 450.812 263.014 450.812C263.594 450.812 264.15 450.582 264.56 450.172C264.971 449.762 265.201 449.205 265.201 448.625V444.157C270.637 443.707 275.796 441.566 279.953 438.035L283.341 441.423C283.751 441.833 284.308 442.064 284.889 442.064C285.469 442.064 286.026 441.833 286.436 441.423C286.847 441.012 287.077 440.455 287.077 439.875C287.077 439.295 286.847 438.738 286.436 438.327L283.035 434.953C286.568 430.792 288.71 425.628 289.157 420.188H293.625C294.205 420.188 294.762 419.957 295.172 419.547C295.582 419.137 295.812 418.58 295.812 418C295.812 417.42 295.582 416.863 295.172 416.453C294.762 416.043 294.205 415.812 293.625 415.812ZM263 439.875C258.674 439.875 254.444 438.592 250.847 436.188C247.25 433.785 244.446 430.368 242.79 426.371C241.134 422.374 240.701 417.976 241.545 413.732C242.389 409.489 244.473 405.591 247.532 402.532C250.591 399.473 254.489 397.389 258.732 396.545C262.976 395.701 267.374 396.134 271.371 397.79C275.368 399.446 278.785 402.25 281.188 405.847C283.592 409.444 284.875 413.674 284.875 418C284.868 423.8 282.562 429.36 278.461 433.461C274.36 437.562 268.8 439.868 263 439.875Z" fill="#E5F8A1"/>
<rect width="70" height="70" transform="translate(84 169)" fill="#1D1D1D"/>
<path d="M147.347 185.65C145.714 183.683 143.376 182.433 140.834 182.166C140.673 180.697 140.182 179.283 139.4 178.03C138.618 176.776 137.563 175.715 136.315 174.924C135.066 174.134 133.656 173.635 132.188 173.464C130.72 173.293 129.233 173.454 127.836 173.937C126.439 174.419 125.169 175.21 124.119 176.25C123.07 177.29 122.268 178.553 121.773 179.946C121.279 181.338 121.104 182.824 121.262 184.294C121.42 185.763 121.906 187.178 122.686 188.433C122.687 188.44 122.687 188.448 122.686 188.455L103.461 207.694C103.461 207.694 103.461 207.694 103.433 207.694C102.178 206.915 100.763 206.428 99.2936 206.27C97.8244 206.112 96.3384 206.287 94.9459 206.781C93.5535 207.276 92.2902 208.078 91.2499 209.128C90.2097 210.177 89.419 211.447 88.9367 212.844C88.4543 214.241 88.2926 215.728 88.4636 217.196C88.6345 218.664 89.1338 220.074 89.9242 221.323C90.7147 222.571 91.7761 223.626 93.0298 224.408C94.2834 225.191 95.6971 225.681 97.166 225.842C97.3274 227.311 97.8174 228.725 98.5998 229.978C99.3821 231.232 100.437 232.293 101.685 233.084C102.934 233.874 104.344 234.374 105.812 234.545C107.28 234.716 108.767 234.554 110.164 234.071C111.561 233.589 112.831 232.798 113.881 231.758C114.93 230.718 115.732 229.455 116.227 228.062C116.721 226.67 116.896 225.184 116.738 223.715C116.58 222.245 116.093 220.83 115.314 219.575C115.313 219.568 115.313 219.56 115.314 219.553L134.55 200.314C134.55 200.314 134.55 200.314 134.578 200.314C136.564 201.565 138.933 202.065 141.255 201.724C143.578 201.383 145.702 200.222 147.245 198.452C148.787 196.682 149.647 194.42 149.667 192.072C149.688 189.724 148.869 187.446 147.358 185.65H147.347ZM143.91 195.567C143.055 196.547 141.878 197.189 140.592 197.38C139.306 197.57 137.993 197.296 136.891 196.606C136.052 196.074 135.056 195.843 134.068 195.952C133.08 196.06 132.158 196.503 131.455 197.205L112.205 216.455C111.504 217.16 111.064 218.082 110.957 219.07C110.85 220.058 111.083 221.053 111.617 221.891C112.083 222.64 112.36 223.49 112.426 224.37C112.492 225.249 112.344 226.131 111.996 226.941C111.647 227.751 111.107 228.465 110.423 229.021C109.739 229.578 108.93 229.96 108.066 230.137C107.202 230.313 106.308 230.278 105.461 230.034C104.613 229.79 103.837 229.345 103.199 228.736C102.561 228.128 102.079 227.374 101.795 226.539C101.511 225.704 101.433 224.813 101.568 223.942C101.617 223.629 101.598 223.31 101.512 223.006C101.426 222.702 101.275 222.42 101.069 222.18C100.863 221.94 100.608 221.747 100.321 221.615C100.034 221.483 99.7215 221.415 99.4054 221.415C99.2928 221.416 99.1804 221.425 99.0691 221.443C98.1985 221.576 97.3085 221.498 96.4747 221.214C95.641 220.93 94.8881 220.449 94.2803 219.811C93.6724 219.174 93.2275 218.399 92.9834 217.553C92.7393 216.707 92.7033 215.814 92.8783 214.951C93.0533 214.087 93.4343 213.279 93.9888 212.595C94.5432 211.91 95.2548 211.37 96.063 211.02C96.8711 210.669 97.7519 210.519 98.6305 210.583C99.509 210.646 100.359 210.92 101.109 211.383C101.948 211.915 102.944 212.146 103.932 212.037C104.92 211.929 105.842 211.486 106.545 210.784L125.795 191.534C126.493 190.83 126.931 189.91 127.038 188.924C127.145 187.939 126.914 186.946 126.383 186.109C125.917 185.36 125.64 184.51 125.574 183.63C125.508 182.751 125.656 181.869 126.004 181.059C126.353 180.249 126.893 179.535 127.577 178.979C128.261 178.422 129.07 178.04 129.934 177.863C130.798 177.687 131.692 177.722 132.539 177.966C133.387 178.21 134.163 178.655 134.801 179.263C135.439 179.872 135.921 180.626 136.205 181.461C136.489 182.296 136.566 183.187 136.432 184.058C136.378 184.399 136.406 184.747 136.513 185.074C136.62 185.402 136.802 185.699 137.046 185.943C137.29 186.187 137.587 186.369 137.915 186.476C138.242 186.583 138.59 186.611 138.931 186.557C140.044 186.377 141.186 186.546 142.2 187.04C143.215 187.534 144.051 188.33 144.595 189.318C145.139 190.306 145.364 191.439 145.24 192.56C145.115 193.681 144.647 194.736 143.899 195.581L143.91 195.567Z" fill="#E5F8A1"/>
</g>
<defs>
 <filter id="outerGlow" x="0" y="0" width="600" height="600" filterUnits="userSpaceOnUse">
        <feGaussianBlur stdDeviation="2.5" result="blur"/>
        <feMerge>
            <feMergeNode in="blur"/>
            <feMergeNode in="SourceGraphic"/>
        </feMerge>
    </filter>
<clipPath id="clip0_155_2507">
<rect width="497" height="451" rx="8" fill="white"/>
</clipPath>
</defs>
</svg>
