<svg width="359" height="382" viewBox="0 0 359 382" fill="none" xmlns="http://www.w3.org/2000/svg">

<circle cx="179" cy="195" r="161.5"
        stroke="#EF5350"
        stroke-width="2"
        fill="none"/>

<!-- OUTER GLOW -->
<circle cx="179" cy="195" r="165"
        stroke="#EF5350"
        stroke-width="8"
        fill="none"
        opacity="1"
        filter="url(#outerGlowRed)"/>
<rect y="225" width="70" height="70" rx="10" fill="#1D1D1D"/>
<path fill-rule="evenodd" clip-rule="evenodd" d="M24.3774 247.053C26.0983 248.928 29.0047 249.733 34.332 249.847C34.6354 245.824 36.1856 242.655 38.4795 240.429C41.0287 237.956 44.4091 236.737 47.7633 236.737C51.1174 236.737 54.4993 237.956 57.0485 240.429C59.6152 242.919 61.2499 246.592 61.2499 251.32V267.362C61.2499 271.856 60.5018 276.551 58.237 280.166C55.9052 283.888 52.0551 286.32 46.2933 286.32C40.3987 286.32 36.2964 282.823 32.5441 279.585L32.3808 279.444C28.6037 276.183 25.0818 273.145 20.0768 272.466C17.6224 272.485 15.9701 273.234 14.8166 274.261C13.6208 275.326 12.8479 276.79 12.3666 278.362C11.8854 279.931 11.7191 281.527 11.6783 282.746C11.6573 283.363 11.6665 283.981 11.706 284.598C11.7082 284.629 11.7106 284.661 11.7133 284.693L11.7162 284.713L10.2652 284.862C8.81411 285.01 8.81411 285.008 8.81411 285.008V285.003L8.81265 284.99L8.80828 284.951C8.79107 284.744 8.77794 284.537 8.7689 284.329C8.7514 283.92 8.73973 283.341 8.76307 282.647C8.80973 281.271 8.9964 279.402 9.57828 277.507C10.1572 275.616 11.1547 273.615 12.877 272.082C14.627 270.525 17.0158 269.549 20.1702 269.549C20.9037 269.549 21.5949 269.565 22.2585 269.581C23.4922 269.61 24.6326 269.64 25.776 269.552C27.4604 269.427 28.8487 269.059 29.9964 268.2C32.1941 266.552 34.0972 262.622 34.2649 252.764C28.8414 252.652 24.8149 251.845 22.2279 249.025C20.822 247.493 19.9543 245.488 19.4308 243.008C18.9102 240.537 18.7118 237.502 18.7118 233.82H21.6285C21.6285 237.429 21.8254 240.228 22.2847 242.405C22.7427 244.574 23.4426 246.032 24.3774 247.053ZM34.0812 277.06C32.1722 275.412 30.132 273.647 27.771 272.23C29.1476 271.963 30.5068 271.461 31.7449 270.534C33.6408 269.112 35.0699 266.84 35.9887 263.347C38.3891 261.728 40.3637 261.385 42.0962 261.575C43.9512 261.779 45.6647 262.6 47.5547 263.558L47.8697 263.719C49.5862 264.591 51.5229 265.577 53.5806 265.835C55.2123 266.049 56.8706 265.759 58.3333 265.005V267.362C58.3333 271.617 57.6099 275.673 55.7652 278.619C53.986 281.459 51.0839 283.402 46.2918 283.402C41.6295 283.402 38.3031 280.703 34.4501 277.378L34.0812 277.06ZM58.3333 261.566V251.32C58.3333 247.298 56.9624 244.408 55.017 242.523C53.057 240.62 50.4233 239.653 47.7633 239.653C45.1033 239.653 42.4695 240.62 40.5095 242.523C38.5656 244.409 37.1947 247.298 37.1947 251.32C37.1947 254.52 37.0314 257.264 36.712 259.612C38.7274 258.717 40.6174 258.479 42.417 258.676C44.8699 258.946 47.0283 260.02 48.876 260.957L49.0072 261.024C50.8899 261.978 52.4081 262.748 53.9466 262.942C55.2445 263.105 56.6504 262.86 58.3333 261.566Z" fill="#F8B0AE"/>
<rect width="70" height="70" transform="translate(144)" fill="#1D1D1D"/>
<path d="M211.813 33.9062C211.81 31.0087 210.986 28.1712 209.438 25.7221C207.889 23.2731 205.679 21.3126 203.063 20.0675V19.6875C203.06 16.8689 202.15 14.1261 200.468 11.8647C198.785 9.6034 196.42 7.94373 193.721 7.13129C191.022 6.31886 188.133 6.39682 185.482 7.35365C182.831 8.31047 180.558 10.0953 179 12.4441C177.442 10.0953 175.169 8.31047 172.518 7.35365C169.867 6.39682 166.978 6.31886 164.279 7.13129C161.58 7.94373 159.215 9.6034 157.532 11.8647C155.85 14.1261 154.94 16.8689 154.938 19.6875V20.0675C152.319 21.3092 150.106 23.2684 148.557 25.7176C147.008 28.1668 146.186 31.0054 146.186 33.9035C146.186 36.8016 147.008 39.6401 148.557 42.0893C150.106 44.5385 152.319 46.4978 154.938 47.7394V48.125C154.94 50.9435 155.85 53.6864 157.532 55.9477C159.215 58.209 161.58 59.8687 164.279 60.6811C166.978 61.4936 169.867 61.4156 172.518 60.4588C175.169 59.502 177.442 57.7171 179 55.3683C180.558 57.7171 182.831 59.502 185.482 60.4588C188.133 61.4156 191.022 61.4936 193.721 60.6811C196.42 59.8687 198.785 58.209 200.468 55.9477C202.15 53.6864 203.06 50.9435 203.063 48.125V47.7394C205.679 46.4953 207.889 44.5358 209.437 42.0877C210.986 39.6396 211.809 36.803 211.813 33.9062ZM168.063 56.875C165.905 56.8747 163.824 56.0772 162.218 54.6358C160.613 53.1944 159.596 51.2107 159.365 49.0656C160.072 49.1665 160.786 49.2177 161.5 49.2187H163.688C164.268 49.2187 164.824 48.9883 165.234 48.578C165.645 48.1678 165.875 47.6114 165.875 47.0312C165.875 46.4511 165.645 45.8947 165.234 45.4844C164.824 45.0742 164.268 44.8437 163.688 44.8437H161.5C158.918 44.8467 156.417 43.9359 154.442 42.2724C152.467 40.609 151.144 38.3002 150.707 35.7549C150.271 33.2096 150.749 30.592 152.057 28.3654C153.365 26.1388 155.419 24.447 157.855 23.5894C158.281 23.4385 158.65 23.1593 158.911 22.7901C159.172 22.4208 159.313 21.9798 159.313 21.5277V19.6875C159.313 17.3668 160.234 15.1412 161.875 13.5003C163.516 11.8593 165.742 10.9375 168.063 10.9375C170.383 10.9375 172.609 11.8593 174.25 13.5003C175.891 15.1412 176.813 17.3668 176.813 19.6875V38.3523C174.41 36.1918 171.293 34.9976 168.063 35C167.482 35 166.926 35.2304 166.516 35.6407C166.106 36.0509 165.875 36.6073 165.875 37.1875C165.875 37.7676 166.106 38.324 166.516 38.7343C166.926 39.1445 167.482 39.375 168.063 39.375C170.383 39.375 172.609 40.2968 174.25 41.9378C175.891 43.5787 176.813 45.8043 176.813 48.125C176.813 50.4456 175.891 52.6712 174.25 54.3122C172.609 55.9531 170.383 56.875 168.063 56.875ZM196.5 44.8437H194.313C193.732 44.8437 193.176 45.0742 192.766 45.4844C192.356 45.8947 192.125 46.4511 192.125 47.0312C192.125 47.6114 192.356 48.1678 192.766 48.578C193.176 48.9883 193.732 49.2187 194.313 49.2187H196.5C197.215 49.2177 197.928 49.1665 198.636 49.0656C198.454 50.7463 197.789 52.3384 196.722 53.6494C195.655 54.9604 194.23 55.9341 192.621 56.4528C191.012 56.9716 189.288 57.0131 187.655 56.5725C186.023 56.1318 184.554 55.2277 183.425 53.9697C182.295 52.7116 181.555 51.1533 181.292 49.4833C181.03 47.8133 181.257 46.103 181.946 44.5592C182.635 43.0154 183.756 41.7042 185.174 40.7842C186.593 39.8642 188.247 39.3747 189.938 39.375C190.518 39.375 191.074 39.1445 191.484 38.7343C191.895 38.324 192.125 37.7676 192.125 37.1875C192.125 36.6073 191.895 36.0509 191.484 35.6407C191.074 35.2304 190.518 35 189.938 35C186.707 34.9976 183.59 36.1918 181.188 38.3523V19.6875C181.188 17.3668 182.109 15.1412 183.75 13.5003C185.391 11.8593 187.617 10.9375 189.938 10.9375C192.258 10.9375 194.484 11.8593 196.125 13.5003C197.766 15.1412 198.688 17.3668 198.688 19.6875V21.5277C198.688 21.9798 198.828 22.4208 199.089 22.7901C199.35 23.1593 199.719 23.4385 200.145 23.5894C202.581 24.447 204.635 26.1388 205.943 28.3654C207.251 30.592 207.73 33.2096 207.293 35.7549C206.857 38.3002 205.533 40.609 203.558 42.2724C201.583 43.9359 199.083 44.8467 196.5 44.8437ZM200.875 30.625C200.875 31.2051 200.645 31.7615 200.234 32.1718C199.824 32.582 199.268 32.8125 198.688 32.8125H197.594C194.983 32.8125 192.479 31.7754 190.633 29.9293C188.787 28.0832 187.75 25.5794 187.75 22.9687V21.875C187.75 21.2948 187.981 20.7384 188.391 20.3282C188.801 19.9179 189.357 19.6875 189.938 19.6875C190.518 19.6875 191.074 19.9179 191.484 20.3282C191.895 20.7384 192.125 21.2948 192.125 21.875V22.9687C192.125 24.4191 192.701 25.8101 193.727 26.8357C194.752 27.8613 196.143 28.4375 197.594 28.4375H198.688C199.268 28.4375 199.824 28.6679 200.234 29.0782C200.645 29.4884 200.875 30.0448 200.875 30.625ZM160.406 32.8125H159.313C158.732 32.8125 158.176 32.582 157.766 32.1718C157.356 31.7615 157.125 31.2051 157.125 30.625C157.125 30.0448 157.356 29.4884 157.766 29.0782C158.176 28.6679 158.732 28.4375 159.313 28.4375H160.406C161.857 28.4375 163.248 27.8613 164.273 26.8357C165.299 25.8101 165.875 24.4191 165.875 22.9687V21.875C165.875 21.2948 166.106 20.7384 166.516 20.3282C166.926 19.9179 167.482 19.6875 168.063 19.6875C168.643 19.6875 169.199 19.9179 169.609 20.3282C170.02 20.7384 170.25 21.2948 170.25 21.875V22.9687C170.25 25.5794 169.213 28.0832 167.367 29.9293C165.521 31.7754 163.017 32.8125 160.406 32.8125Z" fill="#F8B0AE"/>
<rect width="50" height="60" transform="translate(301 98)" fill="#1D1D1D"/>
<path d="M312.406 122.344C309.96 119.382 307.663 118.746 305.515 120.436C302.293 122.971 301.367 131.808 303.96 139.599C306.553 147.39 311.595 158 321.773 158C331.951 158 334.358 147.325 338.511 140.871C342.663 134.417 344.86 128.191 340.79 120.436" stroke="#F8B0AE" stroke-width="2.4" stroke-linecap="round" stroke-linejoin="round"/>
<path d="M307.274 119.515C304.805 115.812 302.873 112.941 301.476 110.899C299.38 107.837 304.739 103.879 307.274 106.572C308.964 108.366 311.209 111.01 314.009 114.502" stroke="#F8B0AE" stroke-width="2.4" stroke-linecap="round"/>
<path d="M313.105 130.367C312.403 121.712 312.974 116.077 314.82 113.461C317.587 109.538 322.73 108.05 327.572 108.05C330.455 108.05 333.088 109.259 335.471 111.677" stroke="#F8B0AE" stroke-width="2.4" stroke-linecap="round" stroke-linejoin="round"/>
<path d="M350.762 111.774C351.611 114.68 350.225 117.335 345.956 117.937C341.687 118.538 338.486 120.652 336.178 122.43C333.869 124.208 329.741 129.602 328.926 132.311C328.111 135.019 323.452 132.528 322.201 131.447C320.95 130.365 319.72 127.998 322.201 125.522C324.682 123.046 324.146 122.552 324.146 120.041C324.146 117.53 337.716 109.224 345.359 108.464C347.058 108.367 349.913 108.867 350.762 111.774Z" stroke="#F8B0AE" stroke-width="2.4"/>
<path d="M324.68 99.4836V106.995" stroke="#F8B0AE" stroke-width="2.4" stroke-linecap="round"/>
<path d="M320.764 109.07C316.389 103.657 312.862 100.636 310.182 100.007" stroke="#F8B0AE" stroke-width="2.4" stroke-linecap="round"/>
<path d="M315.977 103.805L317.413 98" stroke="#F8B0AE" stroke-width="2.4" stroke-linecap="round"/>
<path d="M342.952 109.069C342.485 110.645 342.485 112.123 342.952 113.503C343.419 114.883 344.42 116.361 345.955 117.937" stroke="#F8B0AE" stroke-width="2.4" stroke-linecap="round"/>
<rect width="70" height="70" transform="translate(289 225)" fill="#1D1D1D"/>
<path d="M345.875 231.562H334.938C334.357 231.562 333.801 231.793 333.391 232.203C332.981 232.613 332.75 233.17 332.75 233.75C332.75 234.33 332.981 234.887 333.391 235.297C333.801 235.707 334.357 235.938 334.938 235.938H340.595L333.718 242.814C331.699 240.933 329.263 239.555 326.61 238.794C323.956 238.034 321.161 237.912 318.451 238.438C315.742 238.964 313.195 240.124 311.019 241.822C308.843 243.52 307.1 245.709 305.932 248.21C304.764 250.711 304.203 253.453 304.297 256.211C304.391 258.97 305.136 261.667 306.471 264.083C307.807 266.499 309.694 268.564 311.98 270.111C314.266 271.658 316.886 272.642 319.625 272.983V277.5H313.063C312.482 277.5 311.926 277.73 311.516 278.141C311.106 278.551 310.875 279.107 310.875 279.688C310.875 280.268 311.106 280.824 311.516 281.234C311.926 281.645 312.482 281.875 313.063 281.875H319.625V288.438C319.625 289.018 319.856 289.574 320.266 289.984C320.676 290.395 321.232 290.625 321.813 290.625C322.393 290.625 322.949 290.395 323.359 289.984C323.77 289.574 324 289.018 324 288.438V281.875H330.563C331.143 281.875 331.699 281.645 332.109 281.234C332.52 280.824 332.75 280.268 332.75 279.688C332.75 279.107 332.52 278.551 332.109 278.141C331.699 277.73 331.143 277.5 330.563 277.5H324V272.983C326.932 272.617 329.724 271.513 332.113 269.775C334.503 268.037 336.413 265.721 337.665 263.045C338.917 260.368 339.47 257.418 339.273 254.47C339.075 251.521 338.133 248.671 336.534 246.186L343.688 239.03V244.688C343.688 245.268 343.918 245.824 344.328 246.234C344.739 246.645 345.295 246.875 345.875 246.875C346.455 246.875 347.012 246.645 347.422 246.234C347.832 245.824 348.063 245.268 348.063 244.688V233.75C348.063 233.17 347.832 232.613 347.422 232.203C347.012 231.793 346.455 231.562 345.875 231.562ZM321.813 268.75C319.217 268.75 316.679 267.98 314.521 266.538C312.362 265.096 310.68 263.046 309.687 260.648C308.693 258.249 308.433 255.61 308.94 253.064C309.446 250.518 310.696 248.18 312.532 246.344C314.367 244.509 316.706 243.259 319.252 242.752C321.798 242.246 324.437 242.506 326.835 243.499C329.234 244.492 331.283 246.175 332.726 248.333C334.168 250.492 334.938 253.029 334.938 255.625C334.934 259.105 333.55 262.441 331.089 264.902C328.629 267.362 325.292 268.746 321.813 268.75Z" fill="#F8B0AE"/>
<rect width="70" height="70" transform="translate(144 312)" fill="#1D1D1D"/>
<path d="M181.188 341.531C181.188 340.017 180.738 338.537 179.897 337.278C179.056 336.019 177.86 335.037 176.461 334.458C175.062 333.878 173.523 333.727 172.038 334.022C170.552 334.318 169.188 335.047 168.117 336.117C167.047 337.188 166.318 338.552 166.022 340.038C165.727 341.523 165.878 343.062 166.458 344.461C167.037 345.86 168.019 347.056 169.278 347.897C170.537 348.738 172.017 349.188 173.531 349.188C175.562 349.188 177.509 348.381 178.945 346.945C180.381 345.509 181.188 343.562 181.188 341.531ZM173.531 344.812C172.882 344.812 172.248 344.62 171.708 344.26C171.169 343.899 170.748 343.386 170.5 342.787C170.251 342.187 170.186 341.528 170.313 340.891C170.44 340.255 170.752 339.67 171.211 339.211C171.67 338.752 172.255 338.44 172.891 338.313C173.528 338.186 174.187 338.251 174.787 338.5C175.386 338.748 175.899 339.169 176.26 339.708C176.62 340.248 176.812 340.882 176.812 341.531C176.812 342.401 176.467 343.236 175.851 343.851C175.236 344.467 174.401 344.812 173.531 344.812ZM192.125 342.625C192.99 342.625 193.836 342.882 194.556 343.362C195.275 343.843 195.836 344.526 196.167 345.326C196.498 346.125 196.585 347.005 196.416 347.854C196.247 348.702 195.83 349.482 195.219 350.094C194.607 350.705 193.827 351.122 192.979 351.291C192.13 351.46 191.25 351.373 190.451 351.042C189.651 350.711 188.968 350.15 188.487 349.431C188.007 348.711 187.75 347.865 187.75 347C187.75 345.84 188.211 344.727 189.031 343.906C189.852 343.086 190.965 342.625 192.125 342.625ZM183.375 360.125C183.375 360.99 183.118 361.836 182.638 362.556C182.157 363.275 181.474 363.836 180.674 364.167C179.875 364.498 178.995 364.585 178.146 364.416C177.298 364.247 176.518 363.83 175.906 363.219C175.295 362.607 174.878 361.827 174.709 360.979C174.54 360.13 174.627 359.25 174.958 358.451C175.289 357.651 175.85 356.968 176.569 356.487C177.289 356.007 178.135 355.75 179 355.75C180.16 355.75 181.273 356.211 182.094 357.031C182.914 357.852 183.375 358.965 183.375 360.125ZM209.625 344.812H205.157C204.707 339.377 202.566 334.218 199.035 330.061L202.423 326.673C202.833 326.262 203.064 325.705 203.064 325.125C203.064 324.545 202.833 323.988 202.423 323.577C202.012 323.167 201.455 322.936 200.875 322.936C200.295 322.936 199.738 323.167 199.327 323.577L195.953 326.965C191.792 323.432 186.628 321.29 181.188 320.843V316.375C181.188 315.795 180.957 315.238 180.547 314.828C180.137 314.418 179.58 314.188 179 314.188C178.42 314.188 177.863 314.418 177.453 314.828C177.043 315.238 176.812 315.795 176.812 316.375V320.843C171.377 321.293 166.218 323.434 162.061 326.965L158.673 323.577C158.262 323.167 157.705 322.936 157.125 322.936C156.545 322.936 155.988 323.167 155.577 323.577C155.167 323.988 154.936 324.545 154.936 325.125C154.936 325.705 155.167 326.262 155.577 326.673L158.965 330.061C155.432 334.222 153.29 339.385 152.843 344.826H148.375C147.795 344.826 147.238 345.057 146.828 345.467C146.418 345.877 146.188 346.434 146.188 347.014C146.188 347.594 146.418 348.15 146.828 348.56C147.238 348.971 147.795 349.201 148.375 349.201H152.843C153.293 354.637 155.434 359.796 158.965 363.953L155.577 367.327C155.167 367.738 154.936 368.295 154.936 368.875C154.936 369.455 155.167 370.012 155.577 370.423C155.988 370.833 156.545 371.064 157.125 371.064C157.705 371.064 158.262 370.833 158.673 370.423L162.061 367.035C166.222 370.568 171.385 372.71 176.826 373.157V377.625C176.826 378.205 177.057 378.762 177.467 379.172C177.877 379.582 178.434 379.812 179.014 379.812C179.594 379.812 180.15 379.582 180.56 379.172C180.971 378.762 181.201 378.205 181.201 377.625V373.157C186.637 372.707 191.796 370.566 195.953 367.035L199.341 370.423C199.751 370.833 200.308 371.064 200.889 371.064C201.469 371.064 202.026 370.833 202.436 370.423C202.847 370.012 203.077 369.455 203.077 368.875C203.077 368.295 202.847 367.738 202.436 367.327L199.035 363.953C202.568 359.792 204.71 354.628 205.157 349.188H209.625C210.205 349.188 210.762 348.957 211.172 348.547C211.582 348.137 211.812 347.58 211.812 347C211.812 346.42 211.582 345.863 211.172 345.453C210.762 345.043 210.205 344.812 209.625 344.812ZM179 368.875C174.674 368.875 170.444 367.592 166.847 365.188C163.25 362.785 160.446 359.368 158.79 355.371C157.134 351.374 156.701 346.976 157.545 342.732C158.389 338.489 160.473 334.591 163.532 331.532C166.591 328.473 170.489 326.389 174.732 325.545C178.976 324.701 183.374 325.134 187.371 326.79C191.368 328.446 194.785 331.25 197.188 334.847C199.592 338.444 200.875 342.674 200.875 347C200.868 352.8 198.562 358.36 194.461 362.461C190.36 366.562 184.8 368.868 179 368.875Z" fill="#F8B0AE"/>
<rect width="70" height="70" transform="translate(0 98)" fill="#1D1D1D"/>
<path d="M63.3472 114.65C61.714 112.683 59.3765 111.433 56.8339 111.166C56.6725 109.697 56.1825 108.283 55.4002 107.03C54.6178 105.776 53.5633 104.715 52.3147 103.924C51.0662 103.134 49.6557 102.635 48.1879 102.464C46.7201 102.293 45.2327 102.454 43.8359 102.937C42.4391 103.419 41.1688 104.21 40.1193 105.25C39.0698 106.29 38.268 107.553 37.7733 108.946C37.2786 110.338 37.1038 111.824 37.2618 113.294C37.4197 114.763 37.9065 116.178 38.6859 117.433C38.6871 117.44 38.6871 117.448 38.6859 117.455L19.4605 136.694C19.4605 136.694 19.4605 136.694 19.4332 136.694C18.1777 135.915 16.7629 135.428 15.2936 135.27C13.8244 135.112 12.3384 135.287 10.9459 135.781C9.55345 136.276 8.29023 137.078 7.24994 138.128C6.20966 139.177 5.41902 140.447 4.93666 141.844C4.4543 143.241 4.2926 144.728 4.46356 146.196C4.63452 147.664 5.13375 149.074 5.92422 150.323C6.71469 151.571 7.77611 152.626 9.02975 153.408C10.2834 154.191 11.6971 154.681 13.166 154.842C13.3274 156.311 13.8174 157.725 14.5998 158.978C15.3821 160.232 16.4366 161.293 17.6852 162.084C18.9337 162.874 20.3442 163.374 21.812 163.545C23.2798 163.716 24.7672 163.554 26.164 163.071C27.5608 162.589 28.8311 161.798 29.8806 160.758C30.9301 159.718 31.7319 158.455 32.2266 157.062C32.7213 155.67 32.8961 154.184 32.7382 152.715C32.5802 151.245 32.0934 149.83 31.314 148.575C31.3135 148.568 31.3135 148.56 31.314 148.553L50.5504 129.314C50.5504 129.314 50.5504 129.314 50.5777 129.314C52.5642 130.565 54.9325 131.065 57.2553 130.724C59.5781 130.383 61.7024 129.222 63.2449 127.452C64.7874 125.682 65.6465 123.42 65.6673 121.072C65.6881 118.724 64.8691 116.446 63.3582 114.65H63.3472ZM59.9101 124.567C59.0547 125.547 57.8783 126.189 56.5919 126.38C55.3056 126.57 53.9934 126.296 52.891 125.606C52.0516 125.074 51.056 124.843 50.0679 124.952C49.0798 125.06 48.1583 125.503 47.455 126.205L28.205 145.455C27.5042 146.16 27.0642 147.082 26.9573 148.07C26.8505 149.058 27.0832 150.053 27.6171 150.891C28.0827 151.64 28.3603 152.49 28.4262 153.37C28.4921 154.249 28.3443 155.131 27.9955 155.941C27.6467 156.751 27.1072 157.465 26.423 158.021C25.7389 158.578 24.9303 158.96 24.0662 159.137C23.2022 159.313 22.3083 159.278 21.4609 159.034C20.6134 158.79 19.8374 158.345 19.1991 157.736C18.5609 157.128 18.0792 156.374 17.7953 155.539C17.5113 154.704 17.4334 153.813 17.5683 152.942C17.6173 152.629 17.598 152.31 17.5119 152.006C17.4257 151.702 17.2746 151.42 17.069 151.18C16.8635 150.94 16.6083 150.747 16.3211 150.615C16.0339 150.483 15.7215 150.415 15.4054 150.415C15.2928 150.416 15.1804 150.425 15.0691 150.443C14.1985 150.576 13.3085 150.498 12.4747 150.214C11.641 149.93 10.8881 149.449 10.2803 148.811C9.6724 148.174 9.2275 147.399 8.98341 146.553C8.73932 145.707 8.70326 144.814 8.8783 143.951C9.05334 143.087 9.4343 142.279 9.98877 141.595C10.5432 140.91 11.2548 140.37 12.063 140.02C12.8711 139.669 13.7519 139.519 14.6305 139.583C15.509 139.646 16.3593 139.92 17.1089 140.383C17.9483 140.915 18.9439 141.146 19.932 141.037C20.9201 140.929 21.8416 140.486 22.5449 139.784L41.7949 120.534C42.493 119.83 42.9314 118.91 43.0382 117.924C43.1451 116.939 42.9139 115.946 42.3828 115.109C41.9172 114.36 41.6396 113.51 41.5737 112.63C41.5079 111.751 41.6556 110.869 42.0044 110.059C42.3532 109.249 42.8927 108.535 43.5769 107.979C44.2611 107.422 45.0696 107.04 45.9337 106.863C46.7977 106.687 47.6916 106.722 48.5391 106.966C49.3865 107.21 50.1625 107.655 50.8008 108.263C51.439 108.872 51.9207 109.626 52.2047 110.461C52.4886 111.296 52.5665 112.187 52.4316 113.058C52.3784 113.399 52.4063 113.747 52.5131 114.074C52.6198 114.402 52.8024 114.699 53.046 114.943C53.2896 115.187 53.5873 115.369 53.9148 115.476C54.2424 115.583 54.5905 115.611 54.9308 115.557C56.0444 115.377 57.1865 115.546 58.2005 116.04C59.2145 116.534 60.0509 117.33 60.595 118.318C61.1391 119.306 61.3643 120.439 61.2397 121.56C61.1151 122.681 60.6469 123.736 59.8992 124.581L59.9101 124.567Z" fill="#F8B0AE"/>
<g class="battery-low">
<path d="M176.125 196.875V182.5C176.125 181.738 176.428 181.006 176.967 180.467C177.506 179.928 178.238 179.625 179 179.625C179.762 179.625 180.494 179.928 181.033 180.467C181.572 181.006 181.875 181.738 181.875 182.5V196.875C181.875 197.637 181.572 198.369 181.033 198.908C180.494 199.447 179.762 199.75 179 199.75C178.238 199.75 177.506 199.447 176.967 198.908C176.428 198.369 176.125 197.637 176.125 196.875ZM179 205.5C178.147 205.5 177.313 205.753 176.604 206.227C175.895 206.701 175.342 207.374 175.016 208.162C174.689 208.95 174.604 209.817 174.77 210.654C174.937 211.49 175.347 212.259 175.951 212.862C176.554 213.465 177.322 213.876 178.159 214.042C178.995 214.209 179.862 214.123 180.65 213.797C181.438 213.47 182.112 212.918 182.586 212.208C183.06 211.499 183.312 210.665 183.312 209.812C183.312 208.669 182.858 207.572 182.049 206.763C181.241 205.954 180.144 205.5 179 205.5ZM167.5 153.75H190.5C191.262 153.75 191.994 153.447 192.533 152.908C193.072 152.369 193.375 151.637 193.375 150.875C193.375 150.113 193.072 149.381 192.533 148.842C191.994 148.303 191.262 148 190.5 148H167.5C166.738 148 166.006 148.303 165.467 148.842C164.928 149.381 164.625 150.113 164.625 150.875C164.625 151.637 164.928 152.369 165.467 152.908C166.006 153.447 166.738 153.75 167.5 153.75ZM204.875 168.125V228.5C204.875 230.787 203.966 232.981 202.349 234.599C200.731 236.216 198.537 237.125 196.25 237.125H161.75C159.463 237.125 157.269 236.216 155.651 234.599C154.034 232.981 153.125 230.787 153.125 228.5V168.125C153.125 165.838 154.034 163.644 155.651 162.026C157.269 160.409 159.463 159.5 161.75 159.5H196.25C198.537 159.5 200.731 160.409 202.349 162.026C203.966 163.644 204.875 165.838 204.875 168.125ZM199.125 168.125C199.125 167.363 198.822 166.631 198.283 166.092C197.744 165.553 197.012 165.25 196.25 165.25H161.75C160.988 165.25 160.256 165.553 159.717 166.092C159.178 166.631 158.875 167.363 158.875 168.125V228.5C158.875 229.262 159.178 229.994 159.717 230.533C160.256 231.072 160.988 231.375 161.75 231.375H196.25C197.012 231.375 197.744 231.072 198.283 230.533C198.822 229.994 199.125 229.262 199.125 228.5V168.125Z" fill="#EF5350"/>
</g>
<defs>
<filter id="outerGlowRed" x="0" y="0" width="600" height="600" filterUnits="userSpaceOnUse">
    <feGaussianBlur stdDeviation="3" result="blur"/>
    <feMerge>
        <feMergeNode in="blur"/>
        <feMergeNode in="SourceGraphic"/>
    </feMerge>
</filter>
</defs>
</svg>
