<svg width="497" height="402" viewBox="0 0 497 402" fill="none" xmlns="http://www.w3.org/2000/svg">
<path class="base" d="M240.716 238.151C241.637 236.538 243.963 236.538 244.884 238.151L286.477 311.01C287.39 312.61 286.235 314.6 284.393 314.6H201.207C199.365 314.6 198.21 312.61 199.123 311.01L240.716 238.151Z" fill="#B5D334"/>
<rect class="beam" x="61" y="222.5" width="364.8" height="12" rx="3.6" fill="#B5D334"/>
<g class="right-content-1">
<path d="M384.5 181.5C384.5 182.826 383.973 184.098 383.036 185.036C382.098 185.973 380.826 186.5 379.5 186.5C378.174 186.5 376.902 185.973 375.964 185.036C375.027 184.098 374.5 182.826 374.5 181.5C374.5 180.174 375.027 178.902 375.964 177.965C376.902 177.027 378.174 176.5 379.5 176.5C380.826 176.5 382.098 177.027 383.036 177.965C383.973 178.902 384.5 180.174 384.5 181.5Z" fill="white"/>
<path fill-rule="evenodd" clip-rule="evenodd" d="M362.604 184.36C363.081 184.288 363.564 184.259 364.046 184.274C364.206 184.282 364.386 184.294 364.592 184.314C369.358 184.81 372.892 188.386 375.248 191.918L375.374 192.106C375.968 192.996 376.772 193.726 377.715 194.231C378.659 194.736 379.712 195 380.782 195H384.5C384.898 195 385.279 195.158 385.561 195.44C385.842 195.721 386 196.102 386 196.5C386 196.898 385.842 197.28 385.561 197.561C385.279 197.842 384.898 198 384.5 198H380.78C379.216 198 377.676 197.614 376.298 196.876C374.919 196.138 373.744 195.071 372.876 193.77L372.752 193.582C372.219 192.777 371.634 192.008 371 191.28L367.232 195.99C366.376 197.058 365.804 197.778 365.418 198.37C365.042 198.942 364.936 199.26 364.908 199.502C364.86 199.902 364.912 200.308 365.054 200.684C365.142 200.912 365.324 201.196 365.826 201.658C366.346 202.138 367.078 202.694 368.17 203.518L368.36 203.664C369.8 204.756 370.8 205.512 371.49 206.52C371.884 207.094 372.194 207.72 372.416 208.38C372.802 209.54 372.802 210.792 372.802 212.6V216.5C372.802 216.898 372.644 217.28 372.363 217.561C372.081 217.842 371.7 218 371.302 218C370.904 218 370.523 217.842 370.241 217.561C369.96 217.28 369.802 216.898 369.802 216.5V212.84C369.802 210.7 369.782 209.97 369.57 209.33C369.438 208.934 369.252 208.559 369.016 208.214C368.636 207.658 368.064 207.204 366.356 205.91L366.3 205.868C365.28 205.096 364.434 204.454 363.796 203.866C363.128 203.252 362.574 202.596 362.252 201.754C361.936 200.926 361.825 200.034 361.928 199.154C362.032 198.258 362.41 197.484 362.908 196.726C363.382 196.002 364.046 195.17 364.844 194.172L368.812 189.214C367.438 188.168 365.924 187.472 364.284 187.302C364.162 187.289 364.039 187.28 363.916 187.274C363.615 187.267 363.314 187.287 363.016 187.334C360.886 187.63 358.752 188.814 354.116 191.448L351.244 193.078C350.898 193.275 350.488 193.326 350.105 193.221C349.721 193.116 349.395 192.862 349.198 192.516C349.001 192.17 348.95 191.761 349.055 191.377C349.161 190.993 349.414 190.667 349.76 190.47L352.632 188.84L352.936 188.666C357.176 186.258 359.834 184.746 362.606 184.364M361.46 205.35C361.765 205.605 361.957 205.97 361.993 206.366C362.029 206.763 361.906 207.157 361.652 207.462L359.652 209.864L359.458 210.096C358.174 211.638 357.232 212.772 355.916 213.388C354.6 214.004 353.126 214.004 351.116 214.002H348.5C348.102 214.002 347.721 213.844 347.439 213.563C347.158 213.282 347 212.9 347 212.502C347 212.104 347.158 211.723 347.439 211.442C347.721 211.16 348.102 211.002 348.5 211.002H350.816C353.26 211.002 354.008 210.968 354.642 210.672C355.278 210.374 355.782 209.82 357.346 207.944L359.346 205.542C359.472 205.391 359.627 205.266 359.801 205.174C359.976 205.082 360.167 205.026 360.363 205.008C360.56 204.99 360.757 205.011 360.946 205.07C361.134 205.129 361.309 205.224 361.46 205.35Z" fill="white"/>
<path d="M332.25 178.5C335.583 178.5 338.375 179.733 340.626 182.2C342.877 184.667 344.001 187.6 344 191C344 191.6 343.967 192.192 343.9 192.776C343.833 193.36 343.717 193.935 343.55 194.5H331.05L327.65 189.4C327.483 189.133 327.25 188.917 326.95 188.75C326.65 188.583 326.333 188.5 326 188.5C325.567 188.5 325.175 188.633 324.826 188.9C324.477 189.167 324.235 189.5 324.1 189.9L321.4 198L319.65 195.4C319.483 195.133 319.25 194.917 318.95 194.75C318.65 194.583 318.333 194.5 318 194.5H304.45C304.283 193.933 304.167 193.359 304.1 192.776C304.033 192.193 304 191.618 304 191.05C304 187.617 305.117 184.667 307.35 182.2C309.583 179.733 312.367 178.5 315.7 178.5C317.3 178.5 318.809 178.817 320.226 179.45C321.643 180.083 322.901 180.967 324 182.1C325.067 180.967 326.309 180.083 327.726 179.45C329.143 178.817 330.651 178.5 332.25 178.5ZM324 214.5C323.4 214.5 322.825 214.392 322.276 214.176C321.727 213.96 321.235 213.635 320.8 213.2L307.4 199.75C307.2 199.55 307.017 199.35 306.85 199.15C306.683 198.95 306.517 198.733 306.35 198.5H316.9L320.3 203.6C320.467 203.867 320.7 204.083 321 204.25C321.3 204.417 321.617 204.5 321.95 204.5C322.383 204.5 322.783 204.367 323.15 204.1C323.517 203.833 323.767 203.5 323.9 203.1L326.6 195L328.3 197.6C328.5 197.867 328.75 198.083 329.05 198.25C329.35 198.417 329.667 198.5 330 198.5H341.6L341.1 199.1L340.6 199.7L327.15 213.2C326.717 213.633 326.233 213.959 325.7 214.176C325.167 214.393 324.6 214.501 324 214.5Z" fill="white"/>
</g>
<g class="left-content">
<path d="M126 178.5C126.49 178.5 126.963 178.68 127.329 179.005C127.695 179.331 127.929 179.779 127.986 180.266L128 180.5V212.5C127.999 213.01 127.804 213.5 127.454 213.871C127.104 214.241 126.626 214.464 126.117 214.494C125.608 214.524 125.107 214.359 124.716 214.031C124.325 213.704 124.074 213.24 124.014 212.734L124 212.5V202.5H122C121.51 202.5 121.037 202.32 120.671 201.995C120.305 201.669 120.071 201.221 120.014 200.734L120 200.5V188.5C120 184.08 123 178.5 126 178.5ZM114 178.5C114.49 178.5 114.963 178.68 115.329 179.005C115.695 179.331 115.929 179.779 115.986 180.266L116 180.5V190.5C116 192.274 115.41 193.997 114.324 195.4C113.238 196.802 111.717 197.804 110 198.248V212.5C109.999 213.01 109.804 213.5 109.454 213.871C109.104 214.241 108.626 214.464 108.117 214.494C107.608 214.524 107.107 214.359 106.716 214.031C106.325 213.704 106.074 213.24 106.014 212.734L106 212.5V198.248C104.351 197.822 102.881 196.88 101.804 195.561C100.726 194.242 100.098 192.613 100.01 190.912L100 190.5V180.5C100.001 179.99 100.196 179.5 100.546 179.129C100.896 178.759 101.374 178.536 101.883 178.506C102.392 178.476 102.893 178.641 103.284 178.969C103.675 179.296 103.926 179.76 103.986 180.266L104 180.5V190.5C104 191.202 104.185 191.892 104.536 192.5C104.887 193.108 105.392 193.613 106 193.964V180.5C106.001 179.99 106.196 179.5 106.546 179.129C106.896 178.759 107.374 178.536 107.883 178.506C108.392 178.476 108.893 178.641 109.284 178.969C109.675 179.296 109.926 179.76 109.986 180.266L110 180.5L110.002 193.964C110.56 193.641 111.032 193.189 111.377 192.644C111.723 192.1 111.932 191.48 111.986 190.838L112 190.5V180.5C112 179.97 112.211 179.461 112.586 179.086C112.961 178.711 113.47 178.5 114 178.5Z" fill="white"/>
<path d="M140 180.5L143 210.5H159.5L162.5 180.5H140ZM143.3 183.5H159.2L158.75 188.345C153.77 190.25 151.775 189.005 151.07 188.465C150.695 188.18 150.155 187.535 149.165 187.085C148.175 186.62 146.825 186.5 145.25 186.98C144.635 187.145 144.155 187.415 143.75 187.685L143.3 183.5ZM147.29 189.665C147.575 189.665 147.74 189.725 147.905 189.8C148.25 189.95 148.565 190.325 149.255 190.85C150.545 191.84 153.545 193.04 158.39 191.615L156.8 207.5H145.7L144.065 191.09C144.14 191 144.365 190.835 144.755 190.565C145.25 190.25 145.865 189.92 146 189.875H146.045C146.615 189.71 147.005 189.65 147.29 189.665Z" fill="white"/>
</g>
<g class="left-content">
<path d="M75.9224 135.071V137.5H66.4863V135.071H75.9224ZM67.353 119.727V137.5H64.2891V119.727H67.353ZM74.6895 127.148V129.541H66.4863V127.148H74.6895ZM75.8613 119.727V122.168H66.4863V119.727H75.8613ZM81.0493 127.112V137.5H78.1074V124.292H80.8784L81.0493 127.112ZM80.5244 130.408L79.5723 130.396C79.5804 129.46 79.7106 128.601 79.9629 127.82C80.2233 127.039 80.5814 126.367 81.0371 125.806C81.501 125.244 82.0544 124.813 82.6973 124.512C83.3402 124.202 84.0563 124.048 84.8457 124.048C85.4805 124.048 86.0542 124.137 86.5669 124.316C87.0877 124.487 87.5312 124.768 87.8975 125.159C88.2718 125.549 88.5566 126.058 88.752 126.685C88.9473 127.303 89.0449 128.064 89.0449 128.967V137.5H86.0908V128.955C86.0908 128.32 85.9972 127.82 85.8101 127.454C85.631 127.079 85.3665 126.815 85.0166 126.66C84.6748 126.497 84.2476 126.416 83.7349 126.416C83.2303 126.416 82.7786 126.522 82.3799 126.733C81.9811 126.945 81.6434 127.234 81.3667 127.6C81.0981 127.966 80.8906 128.389 80.7441 128.87C80.5977 129.35 80.5244 129.862 80.5244 130.408ZM97.8706 137.744C96.894 137.744 96.0111 137.585 95.2217 137.268C94.4404 136.943 93.7731 136.491 93.2197 135.913C92.6745 135.335 92.2554 134.656 91.9624 133.875C91.6694 133.093 91.5229 132.251 91.5229 131.348V130.859C91.5229 129.826 91.6735 128.89 91.9746 128.052C92.2757 127.214 92.6948 126.497 93.2319 125.903C93.769 125.301 94.4038 124.841 95.1362 124.524C95.8687 124.207 96.6621 124.048 97.5166 124.048C98.4606 124.048 99.2866 124.207 99.9946 124.524C100.703 124.841 101.289 125.289 101.752 125.867C102.224 126.436 102.574 127.116 102.802 127.905C103.038 128.695 103.156 129.565 103.156 130.518V131.775H92.9512V129.663H100.251V129.431C100.235 128.902 100.129 128.406 99.9336 127.942C99.7464 127.478 99.4575 127.104 99.0669 126.819C98.6763 126.534 98.1554 126.392 97.5044 126.392C97.0161 126.392 96.5807 126.497 96.1982 126.709C95.8239 126.912 95.5106 127.209 95.2583 127.6C95.006 127.991 94.8107 128.463 94.6724 129.016C94.5422 129.561 94.4771 130.176 94.4771 130.859V131.348C94.4771 131.925 94.5544 132.463 94.709 132.959C94.8717 133.447 95.1077 133.875 95.417 134.241C95.7262 134.607 96.1006 134.896 96.54 135.107C96.9795 135.311 97.48 135.413 98.0415 135.413C98.7495 135.413 99.3802 135.27 99.9336 134.985C100.487 134.701 100.967 134.298 101.374 133.777L102.924 135.278C102.639 135.693 102.269 136.092 101.813 136.475C101.358 136.849 100.8 137.154 100.141 137.39C99.4901 137.626 98.7332 137.744 97.8706 137.744ZM108.405 126.807V137.5H105.463V124.292H108.271L108.405 126.807ZM112.446 124.207L112.421 126.941C112.242 126.908 112.047 126.884 111.835 126.868C111.632 126.851 111.429 126.843 111.225 126.843C110.721 126.843 110.277 126.917 109.895 127.063C109.512 127.201 109.191 127.405 108.93 127.673C108.678 127.934 108.483 128.251 108.344 128.625C108.206 129 108.125 129.419 108.1 129.883L107.429 129.932C107.429 129.102 107.51 128.333 107.673 127.625C107.836 126.917 108.08 126.294 108.405 125.757C108.739 125.22 109.154 124.801 109.65 124.5C110.155 124.198 110.737 124.048 111.396 124.048C111.575 124.048 111.766 124.064 111.97 124.097C112.181 124.129 112.34 124.166 112.446 124.207ZM122.504 124.292H125.178V137.134C125.178 138.322 124.925 139.331 124.421 140.161C123.916 140.991 123.212 141.622 122.309 142.053C121.406 142.493 120.36 142.712 119.172 142.712C118.667 142.712 118.106 142.639 117.487 142.493C116.877 142.346 116.283 142.11 115.705 141.785C115.135 141.467 114.659 141.048 114.277 140.527L115.656 138.794C116.128 139.355 116.649 139.766 117.219 140.027C117.788 140.287 118.387 140.417 119.013 140.417C119.689 140.417 120.262 140.291 120.734 140.039C121.215 139.795 121.585 139.433 121.845 138.953C122.106 138.472 122.236 137.887 122.236 137.195V127.283L122.504 124.292ZM113.532 131.042V130.786C113.532 129.785 113.654 128.874 113.898 128.052C114.143 127.222 114.493 126.51 114.948 125.916C115.404 125.313 115.957 124.854 116.608 124.536C117.259 124.211 117.996 124.048 118.818 124.048C119.672 124.048 120.401 124.202 121.003 124.512C121.613 124.821 122.122 125.264 122.529 125.842C122.936 126.412 123.253 127.096 123.481 127.893C123.717 128.682 123.892 129.561 124.006 130.53V131.348C123.9 132.292 123.721 133.154 123.469 133.936C123.216 134.717 122.883 135.392 122.468 135.962C122.053 136.532 121.54 136.971 120.93 137.28C120.327 137.59 119.615 137.744 118.793 137.744C117.988 137.744 117.259 137.577 116.608 137.244C115.965 136.91 115.412 136.442 114.948 135.84C114.493 135.238 114.143 134.53 113.898 133.716C113.654 132.894 113.532 132.003 113.532 131.042ZM116.474 130.786V131.042C116.474 131.645 116.531 132.206 116.645 132.727C116.767 133.248 116.95 133.708 117.194 134.106C117.447 134.497 117.764 134.806 118.146 135.034C118.537 135.254 118.997 135.364 119.526 135.364C120.218 135.364 120.783 135.217 121.223 134.924C121.67 134.631 122.012 134.237 122.248 133.74C122.492 133.236 122.663 132.674 122.761 132.056V129.846C122.712 129.366 122.61 128.918 122.456 128.503C122.309 128.088 122.11 127.726 121.857 127.417C121.605 127.1 121.288 126.855 120.905 126.685C120.523 126.506 120.071 126.416 119.55 126.416C119.021 126.416 118.562 126.53 118.171 126.758C117.78 126.986 117.459 127.299 117.207 127.698C116.962 128.097 116.779 128.56 116.657 129.089C116.535 129.618 116.474 130.184 116.474 130.786ZM131.379 124.292V137.5H128.425V124.292H131.379ZM128.229 120.825C128.229 120.378 128.376 120.007 128.669 119.714C128.97 119.413 129.385 119.263 129.914 119.263C130.435 119.263 130.846 119.413 131.147 119.714C131.448 120.007 131.599 120.378 131.599 120.825C131.599 121.265 131.448 121.631 131.147 121.924C130.846 122.217 130.435 122.363 129.914 122.363C129.385 122.363 128.97 122.217 128.669 121.924C128.376 121.631 128.229 121.265 128.229 120.825ZM143.977 124.292V137.5H141.022V124.292H143.977ZM140.827 120.825C140.827 120.378 140.974 120.007 141.267 119.714C141.568 119.413 141.983 119.263 142.512 119.263C143.033 119.263 143.444 119.413 143.745 119.714C144.046 120.007 144.196 120.378 144.196 120.825C144.196 121.265 144.046 121.631 143.745 121.924C143.444 122.217 143.033 122.363 142.512 122.363C141.983 122.363 141.568 122.217 141.267 121.924C140.974 121.631 140.827 121.265 140.827 120.825ZM150.117 127.112V137.5H147.175V124.292H149.946L150.117 127.112ZM149.592 130.408L148.64 130.396C148.648 129.46 148.778 128.601 149.03 127.82C149.291 127.039 149.649 126.367 150.104 125.806C150.568 125.244 151.122 124.813 151.765 124.512C152.408 124.202 153.124 124.048 153.913 124.048C154.548 124.048 155.122 124.137 155.634 124.316C156.155 124.487 156.599 124.768 156.965 125.159C157.339 125.549 157.624 126.058 157.819 126.685C158.015 127.303 158.112 128.064 158.112 128.967V137.5H155.158V128.955C155.158 128.32 155.065 127.82 154.877 127.454C154.698 127.079 154.434 126.815 154.084 126.66C153.742 126.497 153.315 126.416 152.802 126.416C152.298 126.416 151.846 126.522 151.447 126.733C151.049 126.945 150.711 127.234 150.434 127.6C150.166 127.966 149.958 128.389 149.812 128.87C149.665 129.35 149.592 129.862 149.592 130.408ZM164.033 127.112V137.5H161.091V124.292H163.862L164.033 127.112ZM163.508 130.408L162.556 130.396C162.564 129.46 162.694 128.601 162.946 127.82C163.207 127.039 163.565 126.367 164.021 125.806C164.484 125.244 165.038 124.813 165.681 124.512C166.324 124.202 167.04 124.048 167.829 124.048C168.464 124.048 169.038 124.137 169.55 124.316C170.071 124.487 170.515 124.768 170.881 125.159C171.255 125.549 171.54 126.058 171.735 126.685C171.931 127.303 172.028 128.064 172.028 128.967V137.5H169.074V128.955C169.074 128.32 168.981 127.82 168.793 127.454C168.614 127.079 168.35 126.815 168 126.66C167.658 126.497 167.231 126.416 166.718 126.416C166.214 126.416 165.762 126.522 165.363 126.733C164.965 126.945 164.627 127.234 164.35 127.6C164.082 127.966 163.874 128.389 163.728 128.87C163.581 129.35 163.508 129.862 163.508 130.408Z" fill="white"/>
</g>
<g class="left-content">
<path d="M58.8906 260.859H60.8994L66.0234 273.61L71.1367 260.859H73.1562L66.7969 276.5H65.2285L58.8906 260.859ZM58.2354 260.859H60.0078L60.2979 270.398V276.5H58.2354V260.859ZM72.0283 260.859H73.8008V276.5H71.7383V270.398L72.0283 260.859ZM83.9951 274.513V268.529C83.9951 268.071 83.902 267.674 83.7158 267.337C83.5368 266.993 83.2646 266.728 82.8994 266.542C82.5342 266.356 82.083 266.263 81.5459 266.263C81.0446 266.263 80.6042 266.349 80.2246 266.521C79.8522 266.692 79.5586 266.918 79.3438 267.197C79.1361 267.477 79.0322 267.777 79.0322 268.1H77.0449C77.0449 267.684 77.1523 267.272 77.3672 266.864C77.582 266.456 77.89 266.087 78.291 265.758C78.6992 265.421 79.1862 265.156 79.752 264.963C80.3249 264.762 80.9622 264.662 81.6641 264.662C82.5091 264.662 83.2539 264.805 83.8984 265.092C84.5501 265.378 85.0586 265.812 85.4238 266.392C85.7962 266.965 85.9824 267.684 85.9824 268.551V273.965C85.9824 274.352 86.0146 274.763 86.0791 275.2C86.1507 275.637 86.2546 276.013 86.3906 276.328V276.5H84.3174C84.2171 276.271 84.1383 275.966 84.0811 275.587C84.0238 275.2 83.9951 274.842 83.9951 274.513ZM84.3389 269.453L84.3604 270.85H82.3516C81.7858 270.85 81.2809 270.896 80.8369 270.989C80.3929 271.075 80.0205 271.208 79.7197 271.387C79.4189 271.566 79.1898 271.791 79.0322 272.063C78.8747 272.328 78.7959 272.64 78.7959 272.998C78.7959 273.363 78.8783 273.696 79.043 273.997C79.2077 274.298 79.4548 274.538 79.7842 274.717C80.1208 274.889 80.5326 274.975 81.0195 274.975C81.6283 274.975 82.1654 274.846 82.6309 274.588C83.0964 274.33 83.4652 274.015 83.7373 273.643C84.0166 273.27 84.167 272.909 84.1885 272.558L85.0371 273.514C84.987 273.814 84.8509 274.147 84.6289 274.513C84.4069 274.878 84.1097 275.229 83.7373 275.565C83.3721 275.895 82.9352 276.171 82.4268 276.393C81.9255 276.607 81.3597 276.715 80.7295 276.715C79.9417 276.715 79.2507 276.561 78.6562 276.253C78.069 275.945 77.6107 275.533 77.2812 275.018C76.959 274.495 76.7979 273.911 76.7979 273.267C76.7979 272.644 76.9196 272.096 77.1631 271.623C77.4066 271.143 77.7575 270.746 78.2158 270.431C78.6742 270.108 79.2256 269.865 79.8701 269.7C80.5146 269.535 81.2344 269.453 82.0293 269.453H84.3389ZM93.9746 264.877V266.402H87.6904V264.877H93.9746ZM89.8174 262.052H91.8047V273.621C91.8047 274.015 91.8656 274.312 91.9873 274.513C92.109 274.713 92.2666 274.846 92.46 274.91C92.6533 274.975 92.861 275.007 93.083 275.007C93.2477 275.007 93.4196 274.993 93.5986 274.964C93.7848 274.928 93.9245 274.899 94.0176 274.878L94.0283 276.5C93.8708 276.55 93.6631 276.597 93.4053 276.64C93.1546 276.69 92.8503 276.715 92.4922 276.715C92.0052 276.715 91.5576 276.618 91.1494 276.425C90.7412 276.231 90.4154 275.909 90.1719 275.458C89.9355 275 89.8174 274.384 89.8174 273.61V262.052ZM101.236 270.817V270.57C101.236 269.732 101.358 268.955 101.602 268.239C101.845 267.516 102.196 266.889 102.654 266.359C103.113 265.822 103.668 265.407 104.319 265.113C104.971 264.812 105.701 264.662 106.511 264.662C107.327 264.662 108.061 264.812 108.713 265.113C109.372 265.407 109.93 265.822 110.389 266.359C110.854 266.889 111.209 267.516 111.452 268.239C111.696 268.955 111.817 269.732 111.817 270.57V270.817C111.817 271.655 111.696 272.432 111.452 273.148C111.209 273.865 110.854 274.491 110.389 275.028C109.93 275.558 109.375 275.974 108.724 276.274C108.079 276.568 107.349 276.715 106.532 276.715C105.716 276.715 104.982 276.568 104.33 276.274C103.678 275.974 103.12 275.558 102.654 275.028C102.196 274.491 101.845 273.865 101.602 273.148C101.358 272.432 101.236 271.655 101.236 270.817ZM103.224 270.57V270.817C103.224 271.397 103.292 271.945 103.428 272.461C103.564 272.969 103.768 273.421 104.04 273.814C104.319 274.208 104.667 274.52 105.082 274.749C105.497 274.971 105.981 275.082 106.532 275.082C107.076 275.082 107.553 274.971 107.961 274.749C108.376 274.52 108.72 274.208 108.992 273.814C109.264 273.421 109.468 272.969 109.604 272.461C109.748 271.945 109.819 271.397 109.819 270.817V270.57C109.819 269.997 109.748 269.457 109.604 268.948C109.468 268.433 109.261 267.978 108.981 267.584C108.709 267.183 108.366 266.868 107.95 266.639C107.542 266.41 107.062 266.295 106.511 266.295C105.966 266.295 105.487 266.41 105.071 266.639C104.663 266.868 104.319 267.183 104.04 267.584C103.768 267.978 103.564 268.433 103.428 268.948C103.292 269.457 103.224 269.997 103.224 270.57ZM121.84 264.877H123.645V276.253C123.645 277.277 123.437 278.151 123.021 278.874C122.606 279.597 122.026 280.145 121.281 280.518C120.544 280.897 119.691 281.087 118.725 281.087C118.324 281.087 117.851 281.022 117.307 280.894C116.77 280.772 116.24 280.561 115.717 280.26C115.201 279.966 114.768 279.569 114.417 279.067L115.459 277.886C115.946 278.473 116.454 278.881 116.984 279.11C117.521 279.34 118.051 279.454 118.574 279.454C119.204 279.454 119.749 279.336 120.207 279.1C120.665 278.863 121.02 278.512 121.271 278.047C121.528 277.589 121.657 277.023 121.657 276.35V267.434L121.84 264.877ZM113.837 270.817V270.592C113.837 269.704 113.941 268.898 114.148 268.175C114.363 267.444 114.668 266.818 115.062 266.295C115.463 265.772 115.946 265.371 116.512 265.092C117.077 264.805 117.715 264.662 118.424 264.662C119.154 264.662 119.792 264.791 120.336 265.049C120.887 265.299 121.353 265.668 121.732 266.155C122.119 266.635 122.424 267.215 122.646 267.896C122.868 268.576 123.021 269.346 123.107 270.205V271.193C123.029 272.046 122.875 272.812 122.646 273.492C122.424 274.173 122.119 274.753 121.732 275.232C121.353 275.712 120.887 276.081 120.336 276.339C119.785 276.59 119.14 276.715 118.402 276.715C117.708 276.715 117.077 276.568 116.512 276.274C115.953 275.981 115.473 275.569 115.072 275.039C114.671 274.509 114.363 273.886 114.148 273.17C113.941 272.447 113.837 271.662 113.837 270.817ZM115.824 270.592V270.817C115.824 271.397 115.882 271.942 115.996 272.45C116.118 272.959 116.3 273.406 116.544 273.793C116.795 274.18 117.113 274.484 117.5 274.706C117.887 274.921 118.349 275.028 118.886 275.028C119.545 275.028 120.089 274.889 120.519 274.609C120.948 274.33 121.288 273.961 121.539 273.503C121.797 273.045 121.997 272.547 122.141 272.01V269.421C122.062 269.027 121.94 268.647 121.775 268.282C121.618 267.91 121.41 267.58 121.152 267.294C120.902 267 120.59 266.768 120.218 266.596C119.845 266.424 119.409 266.338 118.907 266.338C118.363 266.338 117.894 266.452 117.5 266.682C117.113 266.904 116.795 267.212 116.544 267.605C116.3 267.992 116.118 268.443 115.996 268.959C115.882 269.467 115.824 270.012 115.824 270.592ZM139.446 274.244V260H141.444V276.5H139.618L139.446 274.244ZM131.626 270.817V270.592C131.626 269.704 131.733 268.898 131.948 268.175C132.17 267.444 132.482 266.818 132.883 266.295C133.291 265.772 133.774 265.371 134.333 265.092C134.899 264.805 135.529 264.662 136.224 264.662C136.954 264.662 137.591 264.791 138.136 265.049C138.687 265.299 139.153 265.668 139.532 266.155C139.919 266.635 140.223 267.215 140.445 267.896C140.667 268.576 140.821 269.346 140.907 270.205V271.193C140.828 272.046 140.674 272.812 140.445 273.492C140.223 274.173 139.919 274.753 139.532 275.232C139.153 275.712 138.687 276.081 138.136 276.339C137.584 276.59 136.94 276.715 136.202 276.715C135.522 276.715 134.899 276.568 134.333 276.274C133.774 275.981 133.291 275.569 132.883 275.039C132.482 274.509 132.17 273.886 131.948 273.17C131.733 272.447 131.626 271.662 131.626 270.817ZM133.624 270.592V270.817C133.624 271.397 133.681 271.942 133.796 272.45C133.918 272.959 134.104 273.406 134.354 273.793C134.605 274.18 134.924 274.484 135.311 274.706C135.697 274.921 136.159 275.028 136.696 275.028C137.355 275.028 137.896 274.889 138.318 274.609C138.748 274.33 139.092 273.961 139.35 273.503C139.607 273.045 139.808 272.547 139.951 272.01V269.421C139.865 269.027 139.74 268.647 139.575 268.282C139.418 267.91 139.21 267.58 138.952 267.294C138.701 267 138.39 266.768 138.018 266.596C137.652 266.424 137.219 266.338 136.718 266.338C136.174 266.338 135.704 266.452 135.311 266.682C134.924 266.904 134.605 267.212 134.354 267.605C134.104 267.992 133.918 268.443 133.796 268.959C133.681 269.467 133.624 270.012 133.624 270.592ZM146.525 266.703V276.5H144.538V264.877H146.472L146.525 266.703ZM150.156 264.812L150.146 266.66C149.981 266.624 149.823 266.603 149.673 266.596C149.53 266.581 149.365 266.574 149.179 266.574C148.72 266.574 148.316 266.646 147.965 266.789C147.614 266.932 147.317 267.133 147.073 267.391C146.83 267.648 146.636 267.956 146.493 268.314C146.357 268.665 146.268 269.052 146.225 269.475L145.666 269.797C145.666 269.095 145.734 268.436 145.87 267.82C146.013 267.204 146.232 266.66 146.525 266.188C146.819 265.708 147.191 265.335 147.643 265.07C148.101 264.798 148.645 264.662 149.275 264.662C149.419 264.662 149.583 264.68 149.77 264.716C149.956 264.744 150.085 264.777 150.156 264.812ZM154.152 264.877V276.5H152.154V264.877H154.152ZM152.004 261.794C152.004 261.472 152.101 261.2 152.294 260.978C152.494 260.756 152.788 260.645 153.175 260.645C153.554 260.645 153.844 260.756 154.045 260.978C154.253 261.2 154.356 261.472 154.356 261.794C154.356 262.102 154.253 262.367 154.045 262.589C153.844 262.804 153.554 262.911 153.175 262.911C152.788 262.911 152.494 262.804 152.294 262.589C152.101 262.367 152.004 262.102 152.004 261.794ZM159.341 260V276.5H157.343V260H159.341ZM166.441 264.877L161.371 270.302L158.535 273.245L158.374 271.129L160.404 268.701L164.014 264.877H166.441ZM164.626 276.5L160.479 270.957L161.511 269.185L166.968 276.5H164.626ZM170.491 260V276.5H168.493V260H170.491ZM177.592 264.877L172.521 270.302L169.686 273.245L169.524 271.129L171.555 268.701L175.164 264.877H177.592ZM175.776 276.5L171.63 270.957L172.661 269.185L178.118 276.5H175.776ZM184.252 276.715C183.443 276.715 182.709 276.579 182.05 276.307C181.398 276.027 180.836 275.637 180.363 275.136C179.898 274.634 179.54 274.04 179.289 273.353C179.038 272.665 178.913 271.913 178.913 271.097V270.646C178.913 269.7 179.053 268.859 179.332 268.121C179.611 267.376 179.991 266.746 180.471 266.23C180.951 265.715 181.495 265.325 182.104 265.06C182.712 264.795 183.342 264.662 183.994 264.662C184.825 264.662 185.541 264.805 186.143 265.092C186.751 265.378 187.249 265.779 187.636 266.295C188.022 266.803 188.309 267.405 188.495 268.1C188.681 268.787 188.774 269.539 188.774 270.355V271.247H180.095V269.625H186.787V269.475C186.758 268.959 186.651 268.458 186.465 267.971C186.286 267.484 185.999 267.083 185.605 266.768C185.212 266.452 184.674 266.295 183.994 266.295C183.543 266.295 183.128 266.392 182.748 266.585C182.368 266.771 182.043 267.05 181.771 267.423C181.498 267.795 181.287 268.25 181.137 268.787C180.986 269.324 180.911 269.944 180.911 270.646V271.097C180.911 271.648 180.986 272.167 181.137 272.654C181.294 273.134 181.52 273.557 181.813 273.922C182.114 274.287 182.476 274.574 182.898 274.781C183.328 274.989 183.815 275.093 184.359 275.093C185.061 275.093 185.656 274.95 186.143 274.663C186.63 274.377 187.056 273.993 187.421 273.514L188.624 274.47C188.373 274.849 188.055 275.211 187.668 275.555C187.281 275.898 186.805 276.178 186.239 276.393C185.681 276.607 185.018 276.715 184.252 276.715Z" fill="white"/>
</g>
<g class="right-content">
<path d="M312.031 267.584V269.271H303.566V267.584H312.031ZM303.889 260.859V276.5H301.815V260.859H303.889ZM313.836 260.859V276.5H311.773V260.859H313.836ZM320.754 274.706L323.934 264.877H325.964L321.785 276.5H320.453L320.754 274.706ZM318.101 264.877L321.377 274.76L321.603 276.5H320.271L316.06 264.877H318.101ZM330.035 264.877V276.5H328.037V264.877H330.035ZM327.887 261.794C327.887 261.472 327.983 261.2 328.177 260.978C328.377 260.756 328.671 260.645 329.058 260.645C329.437 260.645 329.727 260.756 329.928 260.978C330.135 261.2 330.239 261.472 330.239 261.794C330.239 262.102 330.135 262.367 329.928 262.589C329.727 262.804 329.437 262.911 329.058 262.911C328.671 262.911 328.377 262.804 328.177 262.589C327.983 262.367 327.887 262.102 327.887 261.794ZM335.385 260V276.5H333.387V260H335.385ZM343.398 276.715C342.589 276.715 341.855 276.579 341.196 276.307C340.545 276.027 339.982 275.637 339.51 275.136C339.044 274.634 338.686 274.04 338.436 273.353C338.185 272.665 338.06 271.913 338.06 271.097V270.646C338.06 269.7 338.199 268.859 338.479 268.121C338.758 267.376 339.137 266.746 339.617 266.23C340.097 265.715 340.641 265.325 341.25 265.06C341.859 264.795 342.489 264.662 343.141 264.662C343.971 264.662 344.688 264.805 345.289 265.092C345.898 265.378 346.396 265.779 346.782 266.295C347.169 266.803 347.455 267.405 347.642 268.1C347.828 268.787 347.921 269.539 347.921 270.355V271.247H339.241V269.625H345.934V269.475C345.905 268.959 345.798 268.458 345.611 267.971C345.432 267.484 345.146 267.083 344.752 266.768C344.358 266.452 343.821 266.295 343.141 266.295C342.689 266.295 342.274 266.392 341.895 266.585C341.515 266.771 341.189 267.05 340.917 267.423C340.645 267.795 340.434 268.25 340.283 268.787C340.133 269.324 340.058 269.944 340.058 270.646V271.097C340.058 271.648 340.133 272.167 340.283 272.654C340.441 273.134 340.666 273.557 340.96 273.922C341.261 274.287 341.622 274.574 342.045 274.781C342.475 274.989 342.962 275.093 343.506 275.093C344.208 275.093 344.802 274.95 345.289 274.663C345.776 274.377 346.202 273.993 346.567 273.514L347.771 274.47C347.52 274.849 347.201 275.211 346.814 275.555C346.428 275.898 345.951 276.178 345.386 276.393C344.827 276.607 344.165 276.715 343.398 276.715ZM353.206 276.5H351.219V263.652C351.219 262.814 351.369 262.109 351.67 261.536C351.978 260.956 352.418 260.519 352.991 260.226C353.564 259.925 354.244 259.774 355.032 259.774C355.261 259.774 355.491 259.789 355.72 259.817C355.956 259.846 356.185 259.889 356.407 259.946L356.3 261.568C356.149 261.533 355.978 261.507 355.784 261.493C355.598 261.479 355.412 261.472 355.226 261.472C354.803 261.472 354.438 261.558 354.13 261.729C353.829 261.894 353.6 262.138 353.442 262.46C353.285 262.782 353.206 263.18 353.206 263.652V276.5ZM355.677 264.877V266.402H349.382V264.877H355.677ZM357.363 270.817V270.57C357.363 269.732 357.485 268.955 357.729 268.239C357.972 267.516 358.323 266.889 358.781 266.359C359.24 265.822 359.795 265.407 360.446 265.113C361.098 264.812 361.828 264.662 362.638 264.662C363.454 264.662 364.188 264.812 364.84 265.113C365.499 265.407 366.057 265.822 366.516 266.359C366.981 266.889 367.336 267.516 367.579 268.239C367.823 268.955 367.944 269.732 367.944 270.57V270.817C367.944 271.655 367.823 272.432 367.579 273.148C367.336 273.865 366.981 274.491 366.516 275.028C366.057 275.558 365.502 275.974 364.851 276.274C364.206 276.568 363.476 276.715 362.659 276.715C361.843 276.715 361.109 276.568 360.457 276.274C359.805 275.974 359.247 275.558 358.781 275.028C358.323 274.491 357.972 273.865 357.729 273.148C357.485 272.432 357.363 271.655 357.363 270.817ZM359.351 270.57V270.817C359.351 271.397 359.419 271.945 359.555 272.461C359.691 272.969 359.895 273.421 360.167 273.814C360.446 274.208 360.794 274.52 361.209 274.749C361.624 274.971 362.108 275.082 362.659 275.082C363.203 275.082 363.68 274.971 364.088 274.749C364.503 274.52 364.847 274.208 365.119 273.814C365.391 273.421 365.595 272.969 365.731 272.461C365.875 271.945 365.946 271.397 365.946 270.817V270.57C365.946 269.997 365.875 269.457 365.731 268.948C365.595 268.433 365.388 267.978 365.108 267.584C364.836 267.183 364.493 266.868 364.077 266.639C363.669 266.41 363.189 266.295 362.638 266.295C362.093 266.295 361.614 266.41 361.198 266.639C360.79 266.868 360.446 267.183 360.167 267.584C359.895 267.978 359.691 268.433 359.555 268.948C359.419 269.457 359.351 269.997 359.351 270.57ZM372.424 266.703V276.5H370.437V264.877H372.37L372.424 266.703ZM376.055 264.812L376.044 266.66C375.879 266.624 375.722 266.603 375.571 266.596C375.428 266.581 375.263 266.574 375.077 266.574C374.619 266.574 374.214 266.646 373.863 266.789C373.512 266.932 373.215 267.133 372.972 267.391C372.728 267.648 372.535 267.956 372.392 268.314C372.256 268.665 372.166 269.052 372.123 269.475L371.564 269.797C371.564 269.095 371.632 268.436 371.769 267.82C371.912 267.204 372.13 266.66 372.424 266.188C372.717 265.708 373.09 265.335 373.541 265.07C373.999 264.798 374.544 264.662 375.174 264.662C375.317 264.662 375.482 264.68 375.668 264.716C375.854 264.744 375.983 264.777 376.055 264.812ZM377.881 260H379.879V274.244L379.707 276.5H377.881V260ZM387.731 270.592V270.817C387.731 271.662 387.631 272.447 387.431 273.17C387.23 273.886 386.937 274.509 386.55 275.039C386.163 275.569 385.69 275.981 385.132 276.274C384.573 276.568 383.932 276.715 383.209 276.715C382.471 276.715 381.823 276.59 381.265 276.339C380.713 276.081 380.248 275.712 379.868 275.232C379.489 274.753 379.184 274.173 378.955 273.492C378.733 272.812 378.579 272.046 378.493 271.193V270.205C378.579 269.346 378.733 268.576 378.955 267.896C379.184 267.215 379.489 266.635 379.868 266.155C380.248 265.668 380.713 265.299 381.265 265.049C381.816 264.791 382.457 264.662 383.188 264.662C383.918 264.662 384.566 264.805 385.132 265.092C385.698 265.371 386.17 265.772 386.55 266.295C386.937 266.818 387.23 267.444 387.431 268.175C387.631 268.898 387.731 269.704 387.731 270.592ZM385.733 270.817V270.592C385.733 270.012 385.68 269.467 385.572 268.959C385.465 268.443 385.293 267.992 385.057 267.605C384.82 267.212 384.509 266.904 384.122 266.682C383.735 266.452 383.259 266.338 382.693 266.338C382.192 266.338 381.755 266.424 381.383 266.596C381.018 266.768 380.706 267 380.448 267.294C380.19 267.58 379.979 267.91 379.814 268.282C379.657 268.647 379.539 269.027 379.46 269.421V272.01C379.575 272.511 379.761 272.994 380.019 273.46C380.284 273.918 380.634 274.294 381.071 274.588C381.515 274.882 382.063 275.028 382.715 275.028C383.252 275.028 383.71 274.921 384.09 274.706C384.477 274.484 384.788 274.18 385.024 273.793C385.268 273.406 385.447 272.959 385.562 272.45C385.676 271.942 385.733 271.397 385.733 270.817ZM392.232 266.703V276.5H390.245V264.877H392.179L392.232 266.703ZM395.863 264.812L395.853 266.66C395.688 266.624 395.53 266.603 395.38 266.596C395.237 266.581 395.072 266.574 394.886 266.574C394.427 266.574 394.023 266.646 393.672 266.789C393.321 266.932 393.024 267.133 392.78 267.391C392.537 267.648 392.343 267.956 392.2 268.314C392.064 268.665 391.975 269.052 391.932 269.475L391.373 269.797C391.373 269.095 391.441 268.436 391.577 267.82C391.72 267.204 391.939 266.66 392.232 266.188C392.526 265.708 392.898 265.335 393.35 265.07C393.808 264.798 394.352 264.662 394.982 264.662C395.126 264.662 395.29 264.68 395.477 264.716C395.663 264.744 395.792 264.777 395.863 264.812ZM402.309 276.715C401.499 276.715 400.765 276.579 400.106 276.307C399.455 276.027 398.893 275.637 398.42 275.136C397.954 274.634 397.596 274.04 397.346 273.353C397.095 272.665 396.97 271.913 396.97 271.097V270.646C396.97 269.7 397.109 268.859 397.389 268.121C397.668 267.376 398.048 266.746 398.527 266.23C399.007 265.715 399.551 265.325 400.16 265.06C400.769 264.795 401.399 264.662 402.051 264.662C402.882 264.662 403.598 264.805 404.199 265.092C404.808 265.378 405.306 265.779 405.692 266.295C406.079 266.803 406.366 267.405 406.552 268.1C406.738 268.787 406.831 269.539 406.831 270.355V271.247H398.151V269.625H404.844V269.475C404.815 268.959 404.708 268.458 404.521 267.971C404.342 267.484 404.056 267.083 403.662 266.768C403.268 266.452 402.731 266.295 402.051 266.295C401.6 266.295 401.184 266.392 400.805 266.585C400.425 266.771 400.099 267.05 399.827 267.423C399.555 267.795 399.344 268.25 399.193 268.787C399.043 269.324 398.968 269.944 398.968 270.646V271.097C398.968 271.648 399.043 272.167 399.193 272.654C399.351 273.134 399.576 273.557 399.87 273.922C400.171 274.287 400.533 274.574 400.955 274.781C401.385 274.989 401.872 275.093 402.416 275.093C403.118 275.093 403.712 274.95 404.199 274.663C404.686 274.377 405.112 273.993 405.478 273.514L406.681 274.47C406.43 274.849 406.111 275.211 405.725 275.555C405.338 275.898 404.862 276.178 404.296 276.393C403.737 276.607 403.075 276.715 402.309 276.715ZM411.139 267.358V276.5H409.151V264.877H411.031L411.139 267.358ZM410.666 270.248L409.839 270.216C409.846 269.421 409.964 268.687 410.193 268.014C410.423 267.333 410.745 266.743 411.16 266.241C411.576 265.74 412.07 265.353 412.643 265.081C413.223 264.802 413.864 264.662 414.565 264.662C415.138 264.662 415.654 264.741 416.112 264.898C416.571 265.049 416.961 265.292 417.283 265.629C417.613 265.965 417.863 266.402 418.035 266.939C418.207 267.469 418.293 268.118 418.293 268.884V276.5H416.295V268.862C416.295 268.254 416.205 267.767 416.026 267.401C415.847 267.029 415.586 266.76 415.242 266.596C414.898 266.424 414.476 266.338 413.975 266.338C413.48 266.338 413.029 266.442 412.621 266.649C412.22 266.857 411.873 267.144 411.579 267.509C411.293 267.874 411.067 268.293 410.902 268.766C410.745 269.231 410.666 269.725 410.666 270.248ZM423.299 267.358V276.5H421.312V264.877H423.191L423.299 267.358ZM422.826 270.248L421.999 270.216C422.006 269.421 422.124 268.687 422.354 268.014C422.583 267.333 422.905 266.743 423.32 266.241C423.736 265.74 424.23 265.353 424.803 265.081C425.383 264.802 426.024 264.662 426.726 264.662C427.299 264.662 427.814 264.741 428.272 264.898C428.731 265.049 429.121 265.292 429.443 265.629C429.773 265.965 430.023 266.402 430.195 266.939C430.367 267.469 430.453 268.118 430.453 268.884V276.5H428.455V268.862C428.455 268.254 428.366 267.767 428.187 267.401C428.007 267.029 427.746 266.76 427.402 266.596C427.059 266.424 426.636 266.338 426.135 266.338C425.641 266.338 425.189 266.442 424.781 266.649C424.38 266.857 424.033 267.144 423.739 267.509C423.453 267.874 423.227 268.293 423.062 268.766C422.905 269.231 422.826 269.725 422.826 270.248ZM435.631 264.877V276.5H433.633V264.877H435.631ZM433.482 261.794C433.482 261.472 433.579 261.2 433.772 260.978C433.973 260.756 434.267 260.645 434.653 260.645C435.033 260.645 435.323 260.756 435.523 260.978C435.731 261.2 435.835 261.472 435.835 261.794C435.835 262.102 435.731 262.367 435.523 262.589C435.323 262.804 435.033 262.911 434.653 262.911C434.267 262.911 433.973 262.804 433.772 262.589C433.579 262.367 433.482 262.102 433.482 261.794ZM440.809 267.358V276.5H438.821V264.877H440.701L440.809 267.358ZM440.336 270.248L439.509 270.216C439.516 269.421 439.634 268.687 439.863 268.014C440.092 267.333 440.415 266.743 440.83 266.241C441.245 265.74 441.74 265.353 442.312 265.081C442.893 264.802 443.534 264.662 444.235 264.662C444.808 264.662 445.324 264.741 445.782 264.898C446.241 265.049 446.631 265.292 446.953 265.629C447.283 265.965 447.533 266.402 447.705 266.939C447.877 267.469 447.963 268.118 447.963 268.884V276.5H445.965V268.862C445.965 268.254 445.875 267.767 445.696 267.401C445.517 267.029 445.256 266.76 444.912 266.596C444.568 266.424 444.146 266.338 443.645 266.338C443.15 266.338 442.699 266.442 442.291 266.649C441.89 266.857 441.543 267.144 441.249 267.509C440.963 267.874 440.737 268.293 440.572 268.766C440.415 269.231 440.336 269.725 440.336 270.248ZM458.512 264.877H460.316V276.253C460.316 277.277 460.109 278.151 459.693 278.874C459.278 279.597 458.698 280.145 457.953 280.518C457.215 280.897 456.363 281.087 455.396 281.087C454.995 281.087 454.523 281.022 453.979 280.894C453.441 280.772 452.911 280.561 452.389 280.26C451.873 279.966 451.44 279.569 451.089 279.067L452.131 277.886C452.618 278.473 453.126 278.881 453.656 279.11C454.193 279.34 454.723 279.454 455.246 279.454C455.876 279.454 456.421 279.336 456.879 279.1C457.337 278.863 457.692 278.512 457.942 278.047C458.2 277.589 458.329 277.023 458.329 276.35V267.434L458.512 264.877ZM450.509 270.817V270.592C450.509 269.704 450.613 268.898 450.82 268.175C451.035 267.444 451.34 266.818 451.733 266.295C452.134 265.772 452.618 265.371 453.184 265.092C453.749 264.805 454.387 264.662 455.096 264.662C455.826 264.662 456.464 264.791 457.008 265.049C457.559 265.299 458.025 265.668 458.404 266.155C458.791 266.635 459.095 267.215 459.317 267.896C459.539 268.576 459.693 269.346 459.779 270.205V271.193C459.701 272.046 459.547 272.812 459.317 273.492C459.095 274.173 458.791 274.753 458.404 275.232C458.025 275.712 457.559 276.081 457.008 276.339C456.456 276.59 455.812 276.715 455.074 276.715C454.38 276.715 453.749 276.568 453.184 276.274C452.625 275.981 452.145 275.569 451.744 275.039C451.343 274.509 451.035 273.886 450.82 273.17C450.613 272.447 450.509 271.662 450.509 270.817ZM452.496 270.592V270.817C452.496 271.397 452.553 271.942 452.668 272.45C452.79 272.959 452.972 273.406 453.216 273.793C453.466 274.18 453.785 274.484 454.172 274.706C454.559 274.921 455.021 275.028 455.558 275.028C456.216 275.028 456.761 274.889 457.19 274.609C457.62 274.33 457.96 273.961 458.211 273.503C458.469 273.045 458.669 272.547 458.812 272.01V269.421C458.734 269.027 458.612 268.647 458.447 268.282C458.29 267.91 458.082 267.58 457.824 267.294C457.574 267 457.262 266.768 456.89 266.596C456.517 266.424 456.08 266.338 455.579 266.338C455.035 266.338 454.566 266.452 454.172 266.682C453.785 266.904 453.466 267.212 453.216 267.605C452.972 267.992 452.79 268.443 452.668 268.959C452.553 269.467 452.496 270.012 452.496 270.592ZM307.605 298.245L302.428 312.5H300.312L306.273 296.859H307.638L307.605 298.245ZM311.945 312.5L306.757 298.245L306.725 296.859H308.089L314.072 312.5H311.945ZM311.677 306.71V308.407H302.89V306.71H311.677ZM317.864 296V312.5H315.866V296H317.864ZM324.965 300.877L319.895 306.302L317.059 309.245L316.897 307.129L318.928 304.701L322.537 300.877H324.965ZM323.149 312.5L319.003 306.957L320.034 305.185L325.491 312.5H323.149ZM331.883 300.877V302.402H325.599V300.877H331.883ZM327.726 298.052H329.713V309.621C329.713 310.015 329.774 310.312 329.896 310.513C330.017 310.713 330.175 310.846 330.368 310.91C330.562 310.975 330.769 311.007 330.991 311.007C331.156 311.007 331.328 310.993 331.507 310.964C331.693 310.928 331.833 310.899 331.926 310.878L331.937 312.5C331.779 312.55 331.571 312.597 331.313 312.64C331.063 312.69 330.758 312.715 330.4 312.715C329.913 312.715 329.466 312.618 329.058 312.425C328.649 312.231 328.324 311.909 328.08 311.458C327.844 311 327.726 310.384 327.726 309.61V298.052ZM336.373 300.877V312.5H334.375V300.877H336.373ZM334.225 297.794C334.225 297.472 334.321 297.2 334.515 296.978C334.715 296.756 335.009 296.645 335.396 296.645C335.775 296.645 336.065 296.756 336.266 296.978C336.473 297.2 336.577 297.472 336.577 297.794C336.577 298.102 336.473 298.367 336.266 298.589C336.065 298.804 335.775 298.911 335.396 298.911C335.009 298.911 334.715 298.804 334.515 298.589C334.321 298.367 334.225 298.102 334.225 297.794ZM343.098 310.706L346.277 300.877H348.308L344.129 312.5H342.797L343.098 310.706ZM340.444 300.877L343.721 310.76L343.946 312.5H342.614L338.403 300.877H340.444ZM352.379 300.877V312.5H350.381V300.877H352.379ZM350.23 297.794C350.23 297.472 350.327 297.2 350.521 296.978C350.721 296.756 351.015 296.645 351.401 296.645C351.781 296.645 352.071 296.756 352.271 296.978C352.479 297.2 352.583 297.472 352.583 297.794C352.583 298.102 352.479 298.367 352.271 298.589C352.071 298.804 351.781 298.911 351.401 298.911C351.015 298.911 350.721 298.804 350.521 298.589C350.327 298.367 350.23 298.102 350.23 297.794ZM360.436 300.877V302.402H354.151V300.877H360.436ZM356.278 298.052H358.266V309.621C358.266 310.015 358.326 310.312 358.448 310.513C358.57 310.713 358.728 310.846 358.921 310.91C359.114 310.975 359.322 311.007 359.544 311.007C359.709 311.007 359.881 310.993 360.06 310.964C360.246 310.928 360.385 310.899 360.479 310.878L360.489 312.5C360.332 312.55 360.124 312.597 359.866 312.64C359.616 312.69 359.311 312.715 358.953 312.715C358.466 312.715 358.019 312.618 357.61 312.425C357.202 312.231 356.876 311.909 356.633 311.458C356.396 311 356.278 310.384 356.278 309.61V298.052ZM367.59 312.715C366.781 312.715 366.047 312.579 365.388 312.307C364.736 312.027 364.174 311.637 363.701 311.136C363.236 310.634 362.878 310.04 362.627 309.353C362.376 308.665 362.251 307.913 362.251 307.097V306.646C362.251 305.7 362.391 304.859 362.67 304.121C362.949 303.376 363.329 302.746 363.809 302.23C364.288 301.715 364.833 301.325 365.441 301.06C366.05 300.795 366.68 300.662 367.332 300.662C368.163 300.662 368.879 300.805 369.48 301.092C370.089 301.378 370.587 301.779 370.974 302.295C371.36 302.803 371.647 303.405 371.833 304.1C372.019 304.787 372.112 305.539 372.112 306.355V307.247H363.433V305.625H370.125V305.475C370.096 304.959 369.989 304.458 369.803 303.971C369.624 303.484 369.337 303.083 368.943 302.768C368.549 302.452 368.012 302.295 367.332 302.295C366.881 302.295 366.465 302.392 366.086 302.585C365.706 302.771 365.381 303.05 365.108 303.423C364.836 303.795 364.625 304.25 364.475 304.787C364.324 305.324 364.249 305.944 364.249 306.646V307.097C364.249 307.648 364.324 308.167 364.475 308.654C364.632 309.134 364.858 309.557 365.151 309.922C365.452 310.287 365.814 310.574 366.236 310.781C366.666 310.989 367.153 311.093 367.697 311.093C368.399 311.093 368.993 310.95 369.48 310.663C369.967 310.377 370.394 309.993 370.759 309.514L371.962 310.47C371.711 310.849 371.393 311.211 371.006 311.555C370.619 311.898 370.143 312.178 369.577 312.393C369.019 312.607 368.356 312.715 367.59 312.715ZM379.299 300.877V302.402H373.015V300.877H379.299ZM375.142 298.052H377.129V309.621C377.129 310.015 377.19 310.312 377.312 310.513C377.433 310.713 377.591 310.846 377.784 310.91C377.978 310.975 378.185 311.007 378.407 311.007C378.572 311.007 378.744 310.993 378.923 310.964C379.109 310.928 379.249 310.899 379.342 310.878L379.353 312.5C379.195 312.55 378.987 312.597 378.729 312.64C378.479 312.69 378.174 312.715 377.816 312.715C377.329 312.715 376.882 312.618 376.474 312.425C376.065 312.231 375.74 311.909 375.496 311.458C375.26 311 375.142 310.384 375.142 309.61V298.052ZM307.595 332.859V348.5H305.554V332.859H307.595ZM312.622 332.859V334.557H300.537V332.859H312.622ZM315.812 338.703V348.5H313.825V336.877H315.759L315.812 338.703ZM319.443 336.812L319.433 338.66C319.268 338.624 319.11 338.603 318.96 338.596C318.817 338.581 318.652 338.574 318.466 338.574C318.007 338.574 317.603 338.646 317.252 338.789C316.901 338.932 316.604 339.133 316.36 339.391C316.117 339.648 315.924 339.956 315.78 340.314C315.644 340.665 315.555 341.052 315.512 341.475L314.953 341.797C314.953 341.095 315.021 340.436 315.157 339.82C315.3 339.204 315.519 338.66 315.812 338.188C316.106 337.708 316.479 337.335 316.93 337.07C317.388 336.798 317.932 336.662 318.562 336.662C318.706 336.662 318.87 336.68 319.057 336.716C319.243 336.744 319.372 336.777 319.443 336.812ZM325.889 348.715C325.079 348.715 324.345 348.579 323.687 348.307C323.035 348.027 322.473 347.637 322 347.136C321.535 346.634 321.176 346.04 320.926 345.353C320.675 344.665 320.55 343.913 320.55 343.097V342.646C320.55 341.7 320.689 340.859 320.969 340.121C321.248 339.376 321.628 338.746 322.107 338.23C322.587 337.715 323.132 337.325 323.74 337.06C324.349 336.795 324.979 336.662 325.631 336.662C326.462 336.662 327.178 336.805 327.779 337.092C328.388 337.378 328.886 337.779 329.272 338.295C329.659 338.803 329.946 339.405 330.132 340.1C330.318 340.787 330.411 341.539 330.411 342.355V343.247H321.731V341.625H328.424V341.475C328.395 340.959 328.288 340.458 328.102 339.971C327.923 339.484 327.636 339.083 327.242 338.768C326.848 338.452 326.311 338.295 325.631 338.295C325.18 338.295 324.764 338.392 324.385 338.585C324.005 338.771 323.679 339.05 323.407 339.423C323.135 339.795 322.924 340.25 322.773 340.787C322.623 341.324 322.548 341.944 322.548 342.646V343.097C322.548 343.648 322.623 344.167 322.773 344.654C322.931 345.134 323.157 345.557 323.45 345.922C323.751 346.287 324.113 346.574 324.535 346.781C324.965 346.989 325.452 347.093 325.996 347.093C326.698 347.093 327.292 346.95 327.779 346.663C328.266 346.377 328.692 345.993 329.058 345.514L330.261 346.47C330.01 346.849 329.691 347.211 329.305 347.555C328.918 347.898 328.442 348.178 327.876 348.393C327.317 348.607 326.655 348.715 325.889 348.715ZM334.719 339.358V348.5H332.731V336.877H334.611L334.719 339.358ZM334.246 342.248L333.419 342.216C333.426 341.421 333.544 340.687 333.773 340.014C334.003 339.333 334.325 338.743 334.74 338.241C335.156 337.74 335.65 337.353 336.223 337.081C336.803 336.802 337.444 336.662 338.146 336.662C338.718 336.662 339.234 336.741 339.692 336.898C340.151 337.049 340.541 337.292 340.863 337.629C341.193 337.965 341.443 338.402 341.615 338.939C341.787 339.469 341.873 340.118 341.873 340.884V348.5H339.875V340.862C339.875 340.254 339.785 339.767 339.606 339.401C339.427 339.029 339.166 338.76 338.822 338.596C338.479 338.424 338.056 338.338 337.555 338.338C337.061 338.338 336.609 338.442 336.201 338.649C335.8 338.857 335.453 339.144 335.159 339.509C334.873 339.874 334.647 340.293 334.482 340.766C334.325 341.231 334.246 341.725 334.246 342.248ZM347.051 336.877V348.5H345.053V336.877H347.051ZM344.902 333.794C344.902 333.472 344.999 333.2 345.192 332.978C345.393 332.756 345.687 332.645 346.073 332.645C346.453 332.645 346.743 332.756 346.943 332.978C347.151 333.2 347.255 333.472 347.255 333.794C347.255 334.102 347.151 334.367 346.943 334.589C346.743 334.804 346.453 334.911 346.073 334.911C345.687 334.911 345.393 334.804 345.192 334.589C344.999 334.367 344.902 334.102 344.902 333.794ZM352.229 339.358V348.5H350.241V336.877H352.121L352.229 339.358ZM351.756 342.248L350.929 342.216C350.936 341.421 351.054 340.687 351.283 340.014C351.512 339.333 351.835 338.743 352.25 338.241C352.665 337.74 353.16 337.353 353.732 337.081C354.312 336.802 354.953 336.662 355.655 336.662C356.228 336.662 356.744 336.741 357.202 336.898C357.66 337.049 358.051 337.292 358.373 337.629C358.702 337.965 358.953 338.402 359.125 338.939C359.297 339.469 359.383 340.118 359.383 340.884V348.5H357.385V340.862C357.385 340.254 357.295 339.767 357.116 339.401C356.937 339.029 356.676 338.76 356.332 338.596C355.988 338.424 355.566 338.338 355.064 338.338C354.57 338.338 354.119 338.442 353.711 338.649C353.31 338.857 352.963 339.144 352.669 339.509C352.382 339.874 352.157 340.293 351.992 340.766C351.835 341.231 351.756 341.725 351.756 342.248ZM369.932 336.877H371.736V348.253C371.736 349.277 371.529 350.151 371.113 350.874C370.698 351.597 370.118 352.145 369.373 352.518C368.635 352.897 367.783 353.087 366.816 353.087C366.415 353.087 365.943 353.022 365.398 352.894C364.861 352.772 364.331 352.561 363.809 352.26C363.293 351.966 362.86 351.569 362.509 351.067L363.551 349.886C364.038 350.473 364.546 350.881 365.076 351.11C365.613 351.34 366.143 351.454 366.666 351.454C367.296 351.454 367.84 351.336 368.299 351.1C368.757 350.863 369.112 350.512 369.362 350.047C369.62 349.589 369.749 349.023 369.749 348.35V339.434L369.932 336.877ZM361.929 342.817V342.592C361.929 341.704 362.033 340.898 362.24 340.175C362.455 339.444 362.759 338.818 363.153 338.295C363.554 337.772 364.038 337.371 364.604 337.092C365.169 336.805 365.807 336.662 366.516 336.662C367.246 336.662 367.883 336.791 368.428 337.049C368.979 337.299 369.445 337.668 369.824 338.155C370.211 338.635 370.515 339.215 370.737 339.896C370.959 340.576 371.113 341.346 371.199 342.205V343.193C371.12 344.046 370.966 344.812 370.737 345.492C370.515 346.173 370.211 346.753 369.824 347.232C369.445 347.712 368.979 348.081 368.428 348.339C367.876 348.59 367.232 348.715 366.494 348.715C365.799 348.715 365.169 348.568 364.604 348.274C364.045 347.981 363.565 347.569 363.164 347.039C362.763 346.509 362.455 345.886 362.24 345.17C362.033 344.447 361.929 343.662 361.929 342.817ZM363.916 342.592V342.817C363.916 343.397 363.973 343.942 364.088 344.45C364.21 344.959 364.392 345.406 364.636 345.793C364.886 346.18 365.205 346.484 365.592 346.706C365.979 346.921 366.44 347.028 366.978 347.028C367.636 347.028 368.181 346.889 368.61 346.609C369.04 346.33 369.38 345.961 369.631 345.503C369.889 345.045 370.089 344.547 370.232 344.01V341.421C370.154 341.027 370.032 340.647 369.867 340.282C369.71 339.91 369.502 339.58 369.244 339.294C368.993 339 368.682 338.768 368.31 338.596C367.937 338.424 367.5 338.338 366.999 338.338C366.455 338.338 365.986 338.452 365.592 338.682C365.205 338.904 364.886 339.212 364.636 339.605C364.392 339.992 364.21 340.443 364.088 340.959C363.973 341.467 363.916 342.012 363.916 342.592Z" fill="white"/>
</g>
<g class="right-content">
<path d="M314.46 133.974V136.5H304.646V133.974H314.46ZM305.548 118.016V136.5H302.361V118.016H305.548ZM313.178 125.734V128.223H304.646V125.734H313.178ZM314.396 118.016V120.555H304.646V118.016H314.396ZM319.792 125.696V136.5H316.732V122.764H319.614L319.792 125.696ZM319.246 129.124L318.256 129.111C318.264 128.138 318.4 127.245 318.662 126.433C318.933 125.62 319.305 124.922 319.779 124.338C320.262 123.754 320.837 123.305 321.506 122.992C322.174 122.671 322.919 122.51 323.74 122.51C324.4 122.51 324.997 122.603 325.53 122.789C326.072 122.967 326.533 123.259 326.914 123.665C327.303 124.071 327.6 124.6 327.803 125.252C328.006 125.895 328.107 126.687 328.107 127.626V136.5H325.035V127.613C325.035 126.953 324.938 126.433 324.743 126.052C324.557 125.662 324.282 125.387 323.918 125.227C323.562 125.057 323.118 124.973 322.585 124.973C322.06 124.973 321.59 125.083 321.176 125.303C320.761 125.523 320.41 125.823 320.122 126.204C319.843 126.585 319.627 127.025 319.475 127.524C319.322 128.024 319.246 128.557 319.246 129.124ZM337.286 136.754C336.271 136.754 335.352 136.589 334.531 136.259C333.719 135.92 333.025 135.451 332.449 134.85C331.882 134.249 331.446 133.542 331.142 132.729C330.837 131.917 330.685 131.041 330.685 130.102V129.594C330.685 128.519 330.841 127.546 331.154 126.674C331.467 125.802 331.903 125.057 332.462 124.439C333.021 123.813 333.681 123.335 334.442 123.005C335.204 122.675 336.029 122.51 336.918 122.51C337.9 122.51 338.759 122.675 339.495 123.005C340.231 123.335 340.841 123.8 341.323 124.401C341.814 124.994 342.178 125.701 342.415 126.521C342.66 127.342 342.783 128.248 342.783 129.238V130.546H332.17V128.35H339.762V128.108C339.745 127.558 339.635 127.042 339.432 126.56C339.237 126.077 338.937 125.688 338.53 125.392C338.124 125.095 337.582 124.947 336.905 124.947C336.397 124.947 335.945 125.057 335.547 125.277C335.158 125.489 334.832 125.798 334.569 126.204C334.307 126.61 334.104 127.101 333.96 127.677C333.825 128.244 333.757 128.883 333.757 129.594V130.102C333.757 130.702 333.837 131.261 333.998 131.777C334.167 132.285 334.413 132.729 334.734 133.11C335.056 133.491 335.445 133.792 335.902 134.012C336.359 134.223 336.88 134.329 337.464 134.329C338.2 134.329 338.856 134.181 339.432 133.885C340.007 133.589 340.507 133.17 340.93 132.628L342.542 134.189C342.246 134.621 341.861 135.036 341.387 135.434C340.913 135.823 340.333 136.14 339.647 136.386C338.97 136.631 338.183 136.754 337.286 136.754ZM348.242 125.379V136.5H345.183V122.764H348.103L348.242 125.379ZM352.444 122.675L352.419 125.519C352.233 125.485 352.03 125.459 351.81 125.442C351.598 125.425 351.386 125.417 351.175 125.417C350.65 125.417 350.189 125.493 349.791 125.646C349.393 125.789 349.059 126.001 348.788 126.28C348.526 126.551 348.323 126.881 348.179 127.271C348.035 127.66 347.95 128.096 347.925 128.578L347.227 128.629C347.227 127.766 347.311 126.966 347.48 126.229C347.65 125.493 347.904 124.846 348.242 124.287C348.589 123.729 349.021 123.293 349.537 122.979C350.062 122.666 350.667 122.51 351.353 122.51C351.539 122.51 351.738 122.527 351.949 122.561C352.169 122.594 352.334 122.632 352.444 122.675ZM362.905 122.764H365.686V136.119C365.686 137.355 365.423 138.404 364.898 139.268C364.374 140.131 363.642 140.787 362.702 141.235C361.763 141.692 360.675 141.921 359.439 141.921C358.915 141.921 358.331 141.845 357.688 141.692C357.053 141.54 356.435 141.295 355.834 140.956C355.242 140.626 354.746 140.19 354.349 139.648L355.783 137.846C356.274 138.43 356.816 138.857 357.408 139.128C358.001 139.399 358.623 139.534 359.274 139.534C359.977 139.534 360.574 139.403 361.064 139.141C361.564 138.887 361.949 138.51 362.22 138.011C362.491 137.511 362.626 136.902 362.626 136.183V125.874L362.905 122.764ZM353.574 129.784V129.518C353.574 128.477 353.701 127.529 353.955 126.674C354.209 125.811 354.573 125.07 355.047 124.452C355.521 123.826 356.096 123.348 356.773 123.018C357.451 122.679 358.216 122.51 359.071 122.51C359.96 122.51 360.717 122.671 361.344 122.992C361.979 123.314 362.507 123.775 362.931 124.376C363.354 124.968 363.684 125.679 363.921 126.509C364.166 127.33 364.348 128.244 364.467 129.251V130.102C364.357 131.083 364.171 131.98 363.908 132.793C363.646 133.605 363.299 134.308 362.867 134.9C362.436 135.493 361.902 135.95 361.268 136.271C360.641 136.593 359.901 136.754 359.046 136.754C358.208 136.754 357.451 136.58 356.773 136.233C356.105 135.886 355.529 135.4 355.047 134.773C354.573 134.147 354.209 133.411 353.955 132.564C353.701 131.71 353.574 130.783 353.574 129.784ZM356.634 129.518V129.784C356.634 130.41 356.693 130.994 356.812 131.536C356.938 132.078 357.129 132.556 357.383 132.971C357.645 133.377 357.975 133.699 358.373 133.936C358.779 134.164 359.257 134.278 359.808 134.278C360.527 134.278 361.115 134.126 361.572 133.821C362.038 133.517 362.393 133.106 362.639 132.59C362.893 132.065 363.07 131.481 363.172 130.838V128.54C363.121 128.041 363.015 127.575 362.854 127.144C362.702 126.712 362.495 126.335 362.232 126.014C361.97 125.684 361.64 125.43 361.242 125.252C360.844 125.066 360.375 124.973 359.833 124.973C359.283 124.973 358.805 125.091 358.398 125.328C357.992 125.565 357.658 125.891 357.396 126.306C357.142 126.72 356.951 127.203 356.824 127.753C356.697 128.303 356.634 128.891 356.634 129.518ZM372.135 122.764V136.5H369.062V122.764H372.135ZM368.859 119.158C368.859 118.693 369.012 118.308 369.316 118.003C369.63 117.69 370.061 117.533 370.611 117.533C371.153 117.533 371.58 117.69 371.894 118.003C372.207 118.308 372.363 118.693 372.363 119.158C372.363 119.615 372.207 119.996 371.894 120.301C371.58 120.605 371.153 120.758 370.611 120.758C370.061 120.758 369.63 120.605 369.316 120.301C369.012 119.996 368.859 119.615 368.859 119.158ZM390.226 133.263V122.764H393.298V136.5H390.403L390.226 133.263ZM390.657 130.406L391.686 130.381C391.686 131.303 391.584 132.154 391.381 132.933C391.178 133.703 390.865 134.376 390.441 134.951C390.018 135.518 389.477 135.963 388.816 136.284C388.156 136.597 387.365 136.754 386.442 136.754C385.774 136.754 385.16 136.657 384.602 136.462C384.043 136.267 383.561 135.967 383.154 135.561C382.757 135.154 382.448 134.625 382.228 133.974C382.007 133.322 381.897 132.543 381.897 131.638V122.764H384.957V131.663C384.957 132.162 385.016 132.581 385.135 132.92C385.253 133.25 385.414 133.517 385.617 133.72C385.82 133.923 386.057 134.067 386.328 134.151C386.599 134.236 386.887 134.278 387.191 134.278C388.063 134.278 388.749 134.109 389.248 133.771C389.756 133.424 390.116 132.958 390.327 132.374C390.547 131.79 390.657 131.134 390.657 130.406ZM402.73 122.764V124.998H394.986V122.764H402.73ZM397.221 119.399H400.28V132.704C400.28 133.127 400.34 133.453 400.458 133.682C400.585 133.902 400.758 134.05 400.979 134.126C401.199 134.202 401.457 134.24 401.753 134.24C401.965 134.24 402.168 134.228 402.362 134.202C402.557 134.177 402.714 134.151 402.832 134.126L402.845 136.462C402.591 136.538 402.295 136.606 401.956 136.665C401.626 136.724 401.245 136.754 400.813 136.754C400.111 136.754 399.489 136.631 398.947 136.386C398.406 136.132 397.982 135.721 397.678 135.154C397.373 134.587 397.221 133.834 397.221 132.895V119.399Z" fill="white"/>
</g>
</svg>
