<svg width="497" height="402" viewBox="0 0 497 402" fill="none" xmlns="http://www.w3.org/2000/svg">
<g  clip-path="url(#clip0_157_2278)">
<!-- MAIN LINE -->
<circle cx="263" cy="215.5" r="161.5"
        stroke="#EF5350"
        stroke-width="2"
        fill="none"/>

<!-- OUTER GLOW -->
<circle cx="263" cy="215.5" r="165"
        stroke="#EF5350"
        stroke-width="8"
        fill="none"
        opacity="1"
        filter="url(#outerGlowRed)"/>
<rect x="84" y="245.5" width="70" height="70" rx="10" fill="#1D1D1D"/>
<path fill-rule="evenodd" clip-rule="evenodd" d="M108.377 267.553C110.098 269.428 113.005 270.233 118.332 270.347C118.635 266.324 120.186 263.155 122.48 260.929C125.029 258.456 128.409 257.237 131.763 257.237C135.117 257.237 138.499 258.456 141.048 260.929C143.615 263.419 145.25 267.092 145.25 271.82V287.862C145.25 292.356 144.502 297.051 142.237 300.666C139.905 304.388 136.055 306.82 130.293 306.82C124.399 306.82 120.296 303.323 116.544 300.085L116.381 299.944C112.604 296.683 109.082 293.645 104.077 292.966C101.622 292.985 99.9701 293.734 98.8166 294.761C97.6208 295.826 96.8479 297.29 96.3666 298.862C95.8854 300.431 95.7191 302.027 95.6783 303.246C95.6573 303.863 95.6665 304.481 95.706 305.098C95.7082 305.129 95.7106 305.161 95.7133 305.193L95.7162 305.213L94.2652 305.362C92.8141 305.51 92.8141 305.508 92.8141 305.508V305.503L92.8127 305.49L92.8083 305.451C92.7911 305.244 92.7779 305.037 92.7689 304.829C92.7514 304.42 92.7397 303.841 92.7631 303.147C92.8097 301.771 92.9964 299.902 93.5783 298.007C94.1572 296.116 95.1547 294.115 96.877 292.582C98.627 291.025 101.016 290.049 104.17 290.049C104.904 290.049 105.595 290.065 106.258 290.081C107.492 290.11 108.633 290.14 109.776 290.052C111.46 289.927 112.849 289.559 113.996 288.7C116.194 287.052 118.097 283.122 118.265 273.264C112.841 273.152 108.815 272.345 106.228 269.525C104.822 267.993 103.954 265.988 103.431 263.508C102.91 261.037 102.712 258.002 102.712 254.32H105.628C105.628 257.929 105.825 260.728 106.285 262.905C106.743 265.074 107.443 266.532 108.377 267.553ZM118.081 297.56C116.172 295.912 114.132 294.147 111.771 292.73C113.148 292.463 114.507 291.961 115.745 291.034C117.641 289.612 119.07 287.34 119.989 283.847C122.389 282.228 124.364 281.885 126.096 282.075C127.951 282.279 129.665 283.1 131.555 284.058L131.87 284.219C133.586 285.091 135.523 286.077 137.581 286.335C139.212 286.549 140.871 286.259 142.333 285.505V287.862C142.333 292.117 141.61 296.173 139.765 299.119C137.986 301.959 135.084 303.902 130.292 303.902C125.63 303.902 122.303 301.203 118.45 297.878L118.081 297.56ZM142.333 282.066V271.82C142.333 267.798 140.962 264.908 139.017 263.023C137.057 261.12 134.423 260.153 131.763 260.153C129.103 260.153 126.47 261.12 124.51 263.023C122.566 264.909 121.195 267.798 121.195 271.82C121.195 275.02 121.031 277.764 120.712 280.112C122.727 279.217 124.617 278.979 126.417 279.176C128.87 279.446 131.028 280.52 132.876 281.457L133.007 281.524C134.89 282.478 136.408 283.248 137.947 283.442C139.245 283.605 140.65 283.36 142.333 282.066Z" fill="#F8B0AE"/>
<rect width="70" height="70" transform="translate(228 20.5)" fill="#1D1D1D"/>
<path d="M295.813 54.4062C295.81 51.5087 294.986 48.6712 293.438 46.2221C291.889 43.7731 289.679 41.8126 287.063 40.5675V40.1875C287.06 37.3689 286.15 34.6261 284.468 32.3647C282.785 30.1034 280.42 28.4437 277.721 27.6313C275.022 26.8189 272.133 26.8968 269.482 27.8536C266.831 28.8105 264.558 30.5953 263 32.9441C261.442 30.5953 259.169 28.8105 256.518 27.8536C253.867 26.8968 250.978 26.8189 248.279 27.6313C245.58 28.4437 243.215 30.1034 241.532 32.3647C239.85 34.6261 238.94 37.3689 238.938 40.1875V40.5675C236.319 41.8092 234.106 43.7684 232.557 46.2176C231.008 48.6668 230.186 51.5054 230.186 54.4035C230.186 57.3016 231.008 60.1401 232.557 62.5893C234.106 65.0385 236.319 66.9978 238.938 68.2394V68.625C238.94 71.4435 239.85 74.1864 241.532 76.4477C243.215 78.709 245.58 80.3687 248.279 81.1811C250.978 81.9936 253.867 81.9156 256.518 80.9588C259.169 80.002 261.442 78.2171 263 75.8683C264.558 78.2171 266.831 80.002 269.482 80.9588C272.133 81.9156 275.022 81.9936 277.721 81.1811C280.42 80.3687 282.785 78.709 284.468 76.4477C286.15 74.1864 287.06 71.4435 287.063 68.625V68.2394C289.679 66.9953 291.889 65.0358 293.437 62.5877C294.986 60.1396 295.809 57.303 295.813 54.4062ZM252.063 77.375C249.905 77.3747 247.824 76.5772 246.218 75.1358C244.613 73.6944 243.596 71.7107 243.365 69.5656C244.072 69.6665 244.786 69.7177 245.5 69.7187H247.688C248.268 69.7187 248.824 69.4883 249.234 69.078C249.645 68.6678 249.875 68.1114 249.875 67.5312C249.875 66.9511 249.645 66.3947 249.234 65.9844C248.824 65.5742 248.268 65.3437 247.688 65.3437H245.5C242.918 65.3467 240.417 64.4359 238.442 62.7724C236.467 61.109 235.144 58.8002 234.707 56.2549C234.271 53.7096 234.749 51.092 236.057 48.8654C237.365 46.6388 239.419 44.947 241.855 44.0894C242.281 43.9385 242.65 43.6593 242.911 43.2901C243.172 42.9208 243.313 42.4798 243.313 42.0277V40.1875C243.313 37.8668 244.234 35.6412 245.875 34.0003C247.516 32.3593 249.742 31.4375 252.063 31.4375C254.383 31.4375 256.609 32.3593 258.25 34.0003C259.891 35.6412 260.813 37.8668 260.813 40.1875V58.8523C258.41 56.6918 255.293 55.4976 252.063 55.5C251.482 55.5 250.926 55.7304 250.516 56.1407C250.106 56.5509 249.875 57.1073 249.875 57.6875C249.875 58.2676 250.106 58.824 250.516 59.2343C250.926 59.6445 251.482 59.875 252.063 59.875C254.383 59.875 256.609 60.7968 258.25 62.4378C259.891 64.0787 260.813 66.3043 260.813 68.625C260.813 70.9456 259.891 73.1712 258.25 74.8122C256.609 76.4531 254.383 77.375 252.063 77.375ZM280.5 65.3437H278.313C277.732 65.3437 277.176 65.5742 276.766 65.9844C276.356 66.3947 276.125 66.9511 276.125 67.5312C276.125 68.1114 276.356 68.6678 276.766 69.078C277.176 69.4883 277.732 69.7187 278.313 69.7187H280.5C281.215 69.7177 281.928 69.6665 282.636 69.5656C282.454 71.2463 281.789 72.8384 280.722 74.1494C279.655 75.4604 278.23 76.4341 276.621 76.9528C275.012 77.4716 273.288 77.5131 271.655 77.0725C270.023 76.6318 268.554 75.7277 267.425 74.4697C266.295 73.2116 265.555 71.6533 265.292 69.9833C265.03 68.3133 265.257 66.603 265.946 65.0592C266.635 63.5154 267.756 62.2042 269.174 61.2842C270.593 60.3642 272.247 59.8747 273.938 59.875C274.518 59.875 275.074 59.6445 275.484 59.2343C275.895 58.824 276.125 58.2676 276.125 57.6875C276.125 57.1073 275.895 56.5509 275.484 56.1407C275.074 55.7304 274.518 55.5 273.938 55.5C270.707 55.4976 267.59 56.6918 265.188 58.8523V40.1875C265.188 37.8668 266.109 35.6412 267.75 34.0003C269.391 32.3593 271.617 31.4375 273.938 31.4375C276.258 31.4375 278.484 32.3593 280.125 34.0003C281.766 35.6412 282.688 37.8668 282.688 40.1875V42.0277C282.688 42.4798 282.828 42.9208 283.089 43.2901C283.35 43.6593 283.719 43.9385 284.145 44.0894C286.581 44.947 288.635 46.6388 289.943 48.8654C291.251 51.092 291.73 53.7096 291.293 56.2549C290.857 58.8002 289.533 61.109 287.558 62.7724C285.583 64.4359 283.083 65.3467 280.5 65.3437ZM284.875 51.125C284.875 51.7051 284.645 52.2615 284.234 52.6718C283.824 53.082 283.268 53.3125 282.688 53.3125H281.594C278.983 53.3125 276.479 52.2754 274.633 50.4293C272.787 48.5832 271.75 46.0794 271.75 43.4687V42.375C271.75 41.7948 271.981 41.2384 272.391 40.8282C272.801 40.4179 273.357 40.1875 273.938 40.1875C274.518 40.1875 275.074 40.4179 275.484 40.8282C275.895 41.2384 276.125 41.7948 276.125 42.375V43.4687C276.125 44.9191 276.701 46.3101 277.727 47.3357C278.752 48.3613 280.143 48.9375 281.594 48.9375H282.688C283.268 48.9375 283.824 49.1679 284.234 49.5782C284.645 49.9884 284.875 50.5448 284.875 51.125ZM244.406 53.3125H243.313C242.732 53.3125 242.176 53.082 241.766 52.6718C241.356 52.2615 241.125 51.7051 241.125 51.125C241.125 50.5448 241.356 49.9884 241.766 49.5782C242.176 49.1679 242.732 48.9375 243.313 48.9375H244.406C245.857 48.9375 247.248 48.3613 248.273 47.3357C249.299 46.3101 249.875 44.9191 249.875 43.4687V42.375C249.875 41.7948 250.106 41.2384 250.516 40.8282C250.926 40.4179 251.482 40.1875 252.063 40.1875C252.643 40.1875 253.199 40.4179 253.609 40.8282C254.02 41.2384 254.25 41.7948 254.25 42.375V43.4687C254.25 46.0794 253.213 48.5832 251.367 50.4293C249.521 52.2754 247.017 53.3125 244.406 53.3125Z" fill="#F8B0AE"/>
<rect width="50" height="60" transform="translate(385 118.5)" fill="#1D1D1D"/>
<path d="M396.406 142.844C393.96 139.882 391.663 139.246 389.515 140.936C386.293 143.471 385.367 152.308 387.96 160.099C390.553 167.89 395.595 178.5 405.773 178.5C415.951 178.5 418.358 167.825 422.511 161.371C426.663 154.917 428.86 148.691 424.79 140.936" stroke="#F8B0AE" stroke-width="2.4" stroke-linecap="round" stroke-linejoin="round"/>
<path d="M391.274 140.015C388.805 136.312 386.873 133.441 385.476 131.399C383.38 128.337 388.739 124.379 391.274 127.072C392.964 128.866 395.209 131.51 398.009 135.002" stroke="#F8B0AE" stroke-width="2.4" stroke-linecap="round"/>
<path d="M397.105 150.867C396.403 142.212 396.974 136.577 398.82 133.961C401.587 130.038 406.73 128.55 411.572 128.55C414.455 128.55 417.088 129.759 419.471 132.177" stroke="#F8B0AE" stroke-width="2.4" stroke-linecap="round" stroke-linejoin="round"/>
<path d="M434.762 132.274C435.611 135.18 434.225 137.835 429.956 138.437C425.687 139.038 422.486 141.152 420.178 142.93C417.869 144.708 413.741 150.102 412.926 152.811C412.111 155.519 407.452 153.028 406.201 151.947C404.95 150.865 403.72 148.498 406.201 146.022C408.682 143.546 408.146 143.052 408.146 140.541C408.146 138.03 421.716 129.724 429.359 128.964C431.058 128.867 433.913 129.367 434.762 132.274Z" stroke="#F8B0AE" stroke-width="2.4"/>
<path d="M408.68 119.984V127.495" stroke="#F8B0AE" stroke-width="2.4" stroke-linecap="round"/>
<path d="M404.764 129.57C400.389 124.157 396.862 121.136 394.182 120.507" stroke="#F8B0AE" stroke-width="2.4" stroke-linecap="round"/>
<path d="M399.977 124.305L401.413 118.5" stroke="#F8B0AE" stroke-width="2.4" stroke-linecap="round"/>
<path d="M426.952 129.569C426.485 131.145 426.485 132.623 426.952 134.003C427.419 135.383 428.42 136.861 429.955 138.437" stroke="#F8B0AE" stroke-width="2.4" stroke-linecap="round"/>
<rect width="70" height="70" transform="translate(373 245.5)" fill="#1D1D1D"/>
<path d="M429.875 252.062H418.938C418.357 252.062 417.801 252.293 417.391 252.703C416.981 253.113 416.75 253.67 416.75 254.25C416.75 254.83 416.981 255.387 417.391 255.797C417.801 256.207 418.357 256.438 418.938 256.438H424.595L417.718 263.314C415.699 261.433 413.263 260.055 410.61 259.294C407.956 258.534 405.161 258.412 402.451 258.938C399.742 259.464 397.195 260.624 395.019 262.322C392.843 264.02 391.1 266.209 389.932 268.71C388.764 271.211 388.203 273.953 388.297 276.711C388.391 279.47 389.136 282.167 390.471 284.583C391.807 286.999 393.694 289.064 395.98 290.611C398.266 292.158 400.886 293.142 403.625 293.483V298H397.063C396.482 298 395.926 298.23 395.516 298.641C395.106 299.051 394.875 299.607 394.875 300.188C394.875 300.768 395.106 301.324 395.516 301.734C395.926 302.145 396.482 302.375 397.063 302.375H403.625V308.938C403.625 309.518 403.856 310.074 404.266 310.484C404.676 310.895 405.232 311.125 405.813 311.125C406.393 311.125 406.949 310.895 407.359 310.484C407.77 310.074 408 309.518 408 308.938V302.375H414.563C415.143 302.375 415.699 302.145 416.109 301.734C416.52 301.324 416.75 300.768 416.75 300.188C416.75 299.607 416.52 299.051 416.109 298.641C415.699 298.23 415.143 298 414.563 298H408V293.483C410.932 293.117 413.724 292.013 416.113 290.275C418.503 288.537 420.413 286.221 421.665 283.545C422.917 280.868 423.47 277.918 423.273 274.97C423.075 272.021 422.133 269.171 420.534 266.686L427.688 259.53V265.188C427.688 265.768 427.918 266.324 428.328 266.734C428.739 267.145 429.295 267.375 429.875 267.375C430.455 267.375 431.012 267.145 431.422 266.734C431.832 266.324 432.063 265.768 432.063 265.188V254.25C432.063 253.67 431.832 253.113 431.422 252.703C431.012 252.293 430.455 252.062 429.875 252.062ZM405.813 289.25C403.217 289.25 400.679 288.48 398.521 287.038C396.362 285.596 394.68 283.546 393.687 281.148C392.693 278.749 392.433 276.11 392.94 273.564C393.446 271.018 394.696 268.68 396.532 266.844C398.367 265.009 400.706 263.759 403.252 263.252C405.798 262.746 408.437 263.006 410.835 263.999C413.234 264.992 415.283 266.675 416.726 268.833C418.168 270.992 418.938 273.529 418.938 276.125C418.934 279.605 417.55 282.941 415.089 285.402C412.629 287.862 409.292 289.246 405.813 289.25Z" fill="#F8B0AE"/>
<rect width="70" height="70" transform="translate(228 332.5)" fill="#1D1D1D"/>
<path d="M265.188 362.031C265.188 360.517 264.738 359.037 263.897 357.778C263.056 356.519 261.86 355.537 260.461 354.958C259.062 354.378 257.523 354.227 256.038 354.522C254.552 354.818 253.188 355.547 252.117 356.617C251.047 357.688 250.318 359.052 250.022 360.538C249.727 362.023 249.878 363.562 250.458 364.961C251.037 366.36 252.019 367.556 253.278 368.397C254.537 369.238 256.017 369.688 257.531 369.688C259.562 369.688 261.509 368.881 262.945 367.445C264.381 366.009 265.188 364.062 265.188 362.031ZM257.531 365.312C256.882 365.312 256.248 365.12 255.708 364.76C255.169 364.399 254.748 363.886 254.5 363.287C254.251 362.687 254.186 362.028 254.313 361.391C254.44 360.755 254.752 360.17 255.211 359.711C255.67 359.252 256.255 358.94 256.891 358.813C257.528 358.686 258.187 358.751 258.787 359C259.386 359.248 259.899 359.669 260.26 360.208C260.62 360.748 260.812 361.382 260.812 362.031C260.812 362.901 260.467 363.736 259.851 364.351C259.236 364.967 258.401 365.312 257.531 365.312ZM276.125 363.125C276.99 363.125 277.836 363.382 278.556 363.862C279.275 364.343 279.836 365.026 280.167 365.826C280.498 366.625 280.585 367.505 280.416 368.354C280.247 369.202 279.83 369.982 279.219 370.594C278.607 371.205 277.827 371.622 276.979 371.791C276.13 371.96 275.25 371.873 274.451 371.542C273.651 371.211 272.968 370.65 272.487 369.931C272.007 369.211 271.75 368.365 271.75 367.5C271.75 366.34 272.211 365.227 273.031 364.406C273.852 363.586 274.965 363.125 276.125 363.125ZM267.375 380.625C267.375 381.49 267.118 382.336 266.638 383.056C266.157 383.775 265.474 384.336 264.674 384.667C263.875 384.998 262.995 385.085 262.146 384.916C261.298 384.747 260.518 384.33 259.906 383.719C259.295 383.107 258.878 382.327 258.709 381.479C258.54 380.63 258.627 379.75 258.958 378.951C259.289 378.151 259.85 377.468 260.569 376.987C261.289 376.507 262.135 376.25 263 376.25C264.16 376.25 265.273 376.711 266.094 377.531C266.914 378.352 267.375 379.465 267.375 380.625ZM293.625 365.312H289.157C288.707 359.877 286.566 354.718 283.035 350.561L286.423 347.173C286.833 346.762 287.064 346.205 287.064 345.625C287.064 345.045 286.833 344.488 286.423 344.077C286.012 343.667 285.455 343.436 284.875 343.436C284.295 343.436 283.738 343.667 283.327 344.077L279.953 347.465C275.792 343.932 270.628 341.79 265.188 341.343V336.875C265.188 336.295 264.957 335.738 264.547 335.328C264.137 334.918 263.58 334.688 263 334.688C262.42 334.688 261.863 334.918 261.453 335.328C261.043 335.738 260.812 336.295 260.812 336.875V341.343C255.377 341.793 250.218 343.934 246.061 347.465L242.673 344.077C242.262 343.667 241.705 343.436 241.125 343.436C240.545 343.436 239.988 343.667 239.577 344.077C239.167 344.488 238.936 345.045 238.936 345.625C238.936 346.205 239.167 346.762 239.577 347.173L242.965 350.561C239.432 354.722 237.29 359.885 236.843 365.326H232.375C231.795 365.326 231.238 365.557 230.828 365.967C230.418 366.377 230.188 366.934 230.188 367.514C230.188 368.094 230.418 368.65 230.828 369.06C231.238 369.471 231.795 369.701 232.375 369.701H236.843C237.293 375.137 239.434 380.296 242.965 384.453L239.577 387.827C239.167 388.238 238.936 388.795 238.936 389.375C238.936 389.955 239.167 390.512 239.577 390.923C239.988 391.333 240.545 391.564 241.125 391.564C241.705 391.564 242.262 391.333 242.673 390.923L246.061 387.535C250.222 391.068 255.385 393.21 260.826 393.657V398.125C260.826 398.705 261.057 399.262 261.467 399.672C261.877 400.082 262.434 400.312 263.014 400.312C263.594 400.312 264.15 400.082 264.56 399.672C264.971 399.262 265.201 398.705 265.201 398.125V393.657C270.637 393.207 275.796 391.066 279.953 387.535L283.341 390.923C283.751 391.333 284.308 391.564 284.889 391.564C285.469 391.564 286.026 391.333 286.436 390.923C286.847 390.512 287.077 389.955 287.077 389.375C287.077 388.795 286.847 388.238 286.436 387.827L283.035 384.453C286.568 380.292 288.71 375.128 289.157 369.688H293.625C294.205 369.688 294.762 369.457 295.172 369.047C295.582 368.637 295.812 368.08 295.812 367.5C295.812 366.92 295.582 366.363 295.172 365.953C294.762 365.543 294.205 365.312 293.625 365.312ZM263 389.375C258.674 389.375 254.444 388.092 250.847 385.688C247.25 383.285 244.446 379.868 242.79 375.871C241.134 371.874 240.701 367.476 241.545 363.232C242.389 358.989 244.473 355.091 247.532 352.032C250.591 348.973 254.489 346.889 258.732 346.045C262.976 345.201 267.374 345.634 271.371 347.29C275.368 348.946 278.785 351.75 281.188 355.347C283.592 358.944 284.875 363.174 284.875 367.5C284.868 373.3 282.562 378.86 278.461 382.961C274.36 387.062 268.8 389.368 263 389.375Z" fill="#F8B0AE"/>
<rect width="70" height="70" transform="translate(84 118.5)" fill="#1D1D1D"/>
<path d="M147.347 135.15C145.714 133.183 143.376 131.933 140.834 131.666C140.673 130.197 140.182 128.783 139.4 127.53C138.618 126.276 137.563 125.215 136.315 124.424C135.066 123.634 133.656 123.135 132.188 122.964C130.72 122.793 129.233 122.954 127.836 123.437C126.439 123.919 125.169 124.71 124.119 125.75C123.07 126.79 122.268 128.053 121.773 129.446C121.279 130.838 121.104 132.324 121.262 133.794C121.42 135.263 121.906 136.678 122.686 137.933C122.687 137.94 122.687 137.948 122.686 137.955L103.461 157.194C103.461 157.194 103.461 157.194 103.433 157.194C102.178 156.415 100.763 155.928 99.2936 155.77C97.8244 155.612 96.3384 155.787 94.9459 156.281C93.5535 156.776 92.2902 157.578 91.2499 158.628C90.2097 159.677 89.419 160.947 88.9367 162.344C88.4543 163.741 88.2926 165.228 88.4636 166.696C88.6345 168.164 89.1338 169.574 89.9242 170.823C90.7147 172.071 91.7761 173.126 93.0298 173.908C94.2834 174.691 95.6971 175.181 97.166 175.342C97.3274 176.811 97.8174 178.225 98.5998 179.478C99.3821 180.732 100.437 181.793 101.685 182.584C102.934 183.374 104.344 183.874 105.812 184.045C107.28 184.216 108.767 184.054 110.164 183.571C111.561 183.089 112.831 182.298 113.881 181.258C114.93 180.218 115.732 178.955 116.227 177.562C116.721 176.17 116.896 174.684 116.738 173.215C116.58 171.745 116.093 170.33 115.314 169.075C115.313 169.068 115.313 169.06 115.314 169.053L134.55 149.814C134.55 149.814 134.55 149.814 134.578 149.814C136.564 151.065 138.933 151.565 141.255 151.224C143.578 150.883 145.702 149.722 147.245 147.952C148.787 146.182 149.647 143.92 149.667 141.572C149.688 139.224 148.869 136.946 147.358 135.15H147.347ZM143.91 145.067C143.055 146.047 141.878 146.689 140.592 146.88C139.306 147.07 137.993 146.796 136.891 146.106C136.052 145.574 135.056 145.343 134.068 145.452C133.08 145.56 132.158 146.003 131.455 146.705L112.205 165.955C111.504 166.66 111.064 167.582 110.957 168.57C110.85 169.558 111.083 170.553 111.617 171.391C112.083 172.14 112.36 172.99 112.426 173.87C112.492 174.749 112.344 175.631 111.996 176.441C111.647 177.251 111.107 177.965 110.423 178.521C109.739 179.078 108.93 179.46 108.066 179.637C107.202 179.813 106.308 179.778 105.461 179.534C104.613 179.29 103.837 178.845 103.199 178.236C102.561 177.628 102.079 176.874 101.795 176.039C101.511 175.204 101.433 174.313 101.568 173.442C101.617 173.129 101.598 172.81 101.512 172.506C101.426 172.202 101.275 171.92 101.069 171.68C100.863 171.44 100.608 171.247 100.321 171.115C100.034 170.983 99.7215 170.915 99.4054 170.915C99.2928 170.916 99.1804 170.925 99.0691 170.943C98.1985 171.076 97.3085 170.998 96.4747 170.714C95.641 170.43 94.8881 169.949 94.2803 169.311C93.6724 168.674 93.2275 167.899 92.9834 167.053C92.7393 166.207 92.7033 165.314 92.8783 164.451C93.0533 163.587 93.4343 162.779 93.9888 162.095C94.5432 161.41 95.2548 160.87 96.063 160.52C96.8711 160.169 97.7519 160.019 98.6305 160.083C99.509 160.146 100.359 160.42 101.109 160.883C101.948 161.415 102.944 161.646 103.932 161.537C104.92 161.429 105.842 160.986 106.545 160.284L125.795 141.034C126.493 140.33 126.931 139.41 127.038 138.424C127.145 137.439 126.914 136.446 126.383 135.609C125.917 134.86 125.64 134.01 125.574 133.13C125.508 132.251 125.656 131.369 126.004 130.559C126.353 129.749 126.893 129.035 127.577 128.479C128.261 127.922 129.07 127.54 129.934 127.363C130.798 127.187 131.692 127.222 132.539 127.466C133.387 127.71 134.163 128.155 134.801 128.763C135.439 129.372 135.921 130.126 136.205 130.961C136.489 131.796 136.566 132.687 136.432 133.558C136.378 133.899 136.406 134.247 136.513 134.574C136.62 134.902 136.802 135.199 137.046 135.443C137.29 135.687 137.587 135.869 137.915 135.976C138.242 136.083 138.59 136.111 138.931 136.057C140.044 135.877 141.186 136.046 142.2 136.54C143.215 137.034 144.051 137.83 144.595 138.818C145.139 139.806 145.364 140.939 145.24 142.06C145.115 143.181 144.647 144.236 143.899 145.081L143.91 145.067Z" fill="#F8B0AE"/>
<g class="battery-low">
<path d="M260.125 217.375V203C260.125 202.238 260.428 201.506 260.967 200.967C261.506 200.428 262.238 200.125 263 200.125C263.762 200.125 264.494 200.428 265.033 200.967C265.572 201.506 265.875 202.238 265.875 203V217.375C265.875 218.137 265.572 218.869 265.033 219.408C264.494 219.947 263.762 220.25 263 220.25C262.238 220.25 261.506 219.947 260.967 219.408C260.428 218.869 260.125 218.137 260.125 217.375ZM263 226C262.147 226 261.313 226.253 260.604 226.727C259.895 227.201 259.342 227.874 259.016 228.662C258.689 229.45 258.604 230.317 258.77 231.154C258.937 231.99 259.347 232.759 259.951 233.362C260.554 233.965 261.322 234.376 262.159 234.542C262.995 234.709 263.862 234.623 264.65 234.297C265.438 233.97 266.112 233.418 266.586 232.708C267.06 231.999 267.312 231.165 267.312 230.312C267.312 229.169 266.858 228.072 266.049 227.263C265.241 226.454 264.144 226 263 226ZM251.5 174.25H274.5C275.262 174.25 275.994 173.947 276.533 173.408C277.072 172.869 277.375 172.137 277.375 171.375C277.375 170.613 277.072 169.881 276.533 169.342C275.994 168.803 275.262 168.5 274.5 168.5H251.5C250.738 168.5 250.006 168.803 249.467 169.342C248.928 169.881 248.625 170.613 248.625 171.375C248.625 172.137 248.928 172.869 249.467 173.408C250.006 173.947 250.738 174.25 251.5 174.25ZM288.875 188.625V249C288.875 251.287 287.966 253.481 286.349 255.099C284.731 256.716 282.537 257.625 280.25 257.625H245.75C243.463 257.625 241.269 256.716 239.651 255.099C238.034 253.481 237.125 251.287 237.125 249V188.625C237.125 186.338 238.034 184.144 239.651 182.526C241.269 180.909 243.463 180 245.75 180H280.25C282.537 180 284.731 180.909 286.349 182.526C287.966 184.144 288.875 186.338 288.875 188.625ZM283.125 188.625C283.125 187.863 282.822 187.131 282.283 186.592C281.744 186.053 281.012 185.75 280.25 185.75H245.75C244.988 185.75 244.256 186.053 243.717 186.592C243.178 187.131 242.875 187.863 242.875 188.625V249C242.875 249.762 243.178 250.494 243.717 251.033C244.256 251.572 244.988 251.875 245.75 251.875H280.25C281.012 251.875 281.744 251.572 282.283 251.033C282.822 250.494 283.125 249.762 283.125 249V188.625Z" fill="#EF5350"/>
</g>
</g>
<defs>
<filter id="outerGlowRed" x="0" y="0" width="600" height="600" filterUnits="userSpaceOnUse">
    <feGaussianBlur stdDeviation="3" result="blur"/>
    <feMerge>
        <feMergeNode in="blur"/>
        <feMergeNode in="SourceGraphic"/>
    </feMerge>
</filter>
<clipPath id="clip0_157_2278">
<rect width="497" height="402" rx="8" fill="white"/>
</clipPath>
</defs>
</svg>
