<svg width="24" height="24" viewBox="0 0 24 24" fill="none" xmlns="http://www.w3.org/2000/svg">
<path d="M16.2806 12.5306L8.78055 20.0306C8.71087 20.1003 8.62815 20.1556 8.5371 20.1933C8.44606 20.231 8.34847 20.2504 8.24993 20.2504C8.15138 20.2504 8.0538 20.231 7.96276 20.1933C7.87171 20.1556 7.78899 20.1003 7.7193 20.0306C7.64962 19.9609 7.59435 19.8782 7.55663 19.7872C7.51892 19.6961 7.49951 19.5985 7.49951 19.5C7.49951 19.4014 7.51892 19.3039 7.55663 19.2128C7.59435 19.1218 7.64962 19.039 7.7193 18.9694L14.6896 12L7.7193 5.03061C7.57857 4.88988 7.49951 4.69901 7.49951 4.49999C7.49951 4.30097 7.57857 4.1101 7.7193 3.96936C7.86003 3.82863 8.05091 3.74957 8.24993 3.74957C8.44895 3.74957 8.63982 3.82863 8.78055 3.96936L16.2806 11.4694C16.3503 11.539 16.4056 11.6217 16.4433 11.7128C16.4811 11.8038 16.5005 11.9014 16.5005 12C16.5005 12.0986 16.4811 12.1961 16.4433 12.2872C16.4056 12.3782 16.3503 12.461 16.2806 12.5306Z" fill="#1D1D1D"/>
</svg>
