<svg width="24" height="24" viewBox="0 0 24 24" fill="none" xmlns="http://www.w3.org/2000/svg">
<path d="M13.5005 20.25C13.5005 20.4489 13.5795 20.6397 13.7202 20.7803C13.8608 20.921 14.0516 21 14.2505 21H20.2505C20.4494 21 20.6402 20.921 20.7808 20.7803C20.9215 20.6397 21.0005 20.4489 21.0005 20.25V3.75C21.0005 3.55109 20.9215 3.36032 20.7808 3.21967C20.6402 3.07902 20.4494 3 20.2505 3H14.2505C14.0516 3 13.8608 3.07902 13.7202 3.21967C13.5795 3.36032 13.5005 3.55109 13.5005 3.75C13.5005 3.94891 13.5795 4.13968 13.7202 4.28033C13.8608 4.42098 14.0516 4.5 14.2505 4.5H19.5005V19.5H14.2505C14.0516 19.5 13.8608 19.579 13.7202 19.7197C13.5795 19.8603 13.5005 20.0511 13.5005 20.25ZM3.21986 11.4694L6.96986 7.71937C7.11059 7.57864 7.30147 7.49958 7.50049 7.49958C7.69951 7.49958 7.89038 7.57864 8.03111 7.71937C8.17184 7.86011 8.25091 8.05098 8.25091 8.25C8.25091 8.44902 8.17184 8.63989 8.03111 8.78063L5.5608 11.25H14.2505C14.4494 11.25 14.6402 11.329 14.7808 11.4697C14.9215 11.6103 15.0005 11.8011 15.0005 12C15.0005 12.1989 14.9215 12.3897 14.7808 12.5303C14.6402 12.671 14.4494 12.75 14.2505 12.75H5.5608L8.03111 15.2194C8.17184 15.3601 8.25091 15.551 8.25091 15.75C8.25091 15.949 8.17184 16.1399 8.03111 16.2806C7.89038 16.4214 7.69951 16.5004 7.50049 16.5004C7.30147 16.5004 7.11059 16.4214 6.96986 16.2806L3.21986 12.5306C3.15013 12.461 3.09481 12.3783 3.05707 12.2872C3.01933 12.1962 2.9999 12.0986 2.9999 12C2.9999 11.9014 3.01933 11.8038 3.05707 11.7128C3.09481 11.6217 3.15013 11.539 3.21986 11.4694Z" fill="#00182B"/>
</svg>
