<svg width="70" height="70" viewBox="0 0 70 70" fill="none" xmlns="http://www.w3.org/2000/svg">
<g clip-path="url(#clip0_338_41853)">
<path d="M24.0625 2.1875C24.0625 1.60734 24.293 1.05094 24.7032 0.640704C25.1134 0.230468 25.6698 0 26.25 0L43.75 0C44.3302 0 44.8866 0.230468 45.2968 0.640704C45.707 1.05094 45.9375 1.60734 45.9375 2.1875C45.9375 2.76766 45.707 3.32406 45.2968 3.7343C44.8866 4.14453 44.3302 4.375 43.75 4.375H26.25C25.6698 4.375 25.1134 4.14453 24.7032 3.7343C24.293 3.32406 24.0625 2.76766 24.0625 2.1875ZM54.6875 15.3125V61.25C54.6875 62.9905 53.9961 64.6597 52.7654 65.8904C51.5347 67.1211 49.8655 67.8125 48.125 67.8125H21.875C20.1345 67.8125 18.4653 67.1211 17.2346 65.8904C16.0039 64.6597 15.3125 62.9905 15.3125 61.25V15.3125C15.3125 13.572 16.0039 11.9028 17.2346 10.6721C18.4653 9.4414 20.1345 8.75 21.875 8.75H48.125C49.8655 8.75 51.5347 9.4414 52.7654 10.6721C53.9961 11.9028 54.6875 13.572 54.6875 15.3125ZM50.3125 15.3125C50.3125 14.7323 50.082 14.1759 49.6718 13.7657C49.2616 13.3555 48.7052 13.125 48.125 13.125H21.875C21.2948 13.125 20.7384 13.3555 20.3282 13.7657C19.918 14.1759 19.6875 14.7323 19.6875 15.3125V61.25C19.6875 61.8302 19.918 62.3866 20.3282 62.7968C20.7384 63.207 21.2948 63.4375 21.875 63.4375H48.125C48.7052 63.4375 49.2616 63.207 49.6718 62.7968C50.082 62.3866 50.3125 61.8302 50.3125 61.25V15.3125ZM43.75 19.6875H26.25C25.6698 19.6875 25.1134 19.918 24.7032 20.3282C24.293 20.7384 24.0625 21.2948 24.0625 21.875C24.0625 22.4552 24.293 23.0116 24.7032 23.4218C25.1134 23.832 25.6698 24.0625 26.25 24.0625H43.75C44.3302 24.0625 44.8866 23.832 45.2968 23.4218C45.707 23.0116 45.9375 22.4552 45.9375 21.875C45.9375 21.2948 45.707 20.7384 45.2968 20.3282C44.8866 19.918 44.3302 19.6875 43.75 19.6875ZM43.75 30.625H26.25C25.6698 30.625 25.1134 30.8555 24.7032 31.2657C24.293 31.6759 24.0625 32.2323 24.0625 32.8125C24.0625 33.3927 24.293 33.9491 24.7032 34.3593C25.1134 34.7695 25.6698 35 26.25 35H43.75C44.3302 35 44.8866 34.7695 45.2968 34.3593C45.707 33.9491 45.9375 33.3927 45.9375 32.8125C45.9375 32.2323 45.707 31.6759 45.2968 31.2657C44.8866 30.8555 44.3302 30.625 43.75 30.625ZM43.75 41.5625H26.25C25.6698 41.5625 25.1134 41.793 24.7032 42.2032C24.293 42.6134 24.0625 43.1698 24.0625 43.75C24.0625 44.3302 24.293 44.8866 24.7032 45.2968C25.1134 45.707 25.6698 45.9375 26.25 45.9375H43.75C44.3302 45.9375 44.8866 45.707 45.2968 45.2968C45.707 44.8866 45.9375 44.3302 45.9375 43.75C45.9375 43.1698 45.707 42.6134 45.2968 42.2032C44.8866 41.793 44.3302 41.5625 43.75 41.5625ZM43.75 52.5H26.25C25.6698 52.5 25.1134 52.7305 24.7032 53.1407C24.293 53.5509 24.0625 54.1073 24.0625 54.6875C24.0625 55.2677 24.293 55.8241 24.7032 56.2343C25.1134 56.6445 25.6698 56.875 26.25 56.875H43.75C44.3302 56.875 44.8866 56.6445 45.2968 56.2343C45.707 55.8241 45.9375 55.2677 45.9375 54.6875C45.9375 54.1073 45.707 53.5509 45.2968 53.1407C44.8866 52.7305 44.3302 52.5 43.75 52.5Z" fill="#A1CC1D"/>
</g>
<defs>
<clipPath id="clip0_338_41853">
<rect width="70" height="70" fill="white"/>
</clipPath>
</defs>
</svg>
