<svg width="48" height="48" viewBox="0 0 48 48" fill="none" xmlns="http://www.w3.org/2000/svg">
<path d="M14.25 22.5C14.25 22.945 14.118 23.38 13.8708 23.75C13.6236 24.12 13.2722 24.4084 12.861 24.5787C12.4499 24.749 11.9975 24.7936 11.561 24.7068C11.1246 24.62 10.7237 24.4057 10.409 24.091C10.0943 23.7763 9.88005 23.3754 9.79323 22.939C9.70642 22.5025 9.75097 22.0501 9.92127 21.639C10.0916 21.2278 10.38 20.8764 10.75 20.6292C11.12 20.382 11.555 20.25 12 20.25C12.5967 20.25 13.169 20.4871 13.591 20.909C14.0129 21.331 14.25 21.9033 14.25 22.5ZM45 22.5V39C45 39.7957 44.6839 40.5587 44.1213 41.1213C43.5587 41.6839 42.7957 42 42 42H21C20.2044 42 19.4413 41.6839 18.8787 41.1213C18.3161 40.5587 18 39.7957 18 39V34.9406C16.3819 37.5694 14.2838 39 12 39C9.39937 39 7.03875 37.1456 5.355 33.7781C3.83625 30.75 3 26.7356 3 22.5C3 18.2644 3.83625 14.2594 5.355 11.2219C7.03875 7.85437 9.39937 6 12 6H36C38.6006 6 40.9613 7.85437 42.645 11.2219C44.1637 14.2594 45 18.2644 45 22.5ZM18 22.5C18 14.5444 14.8387 9 12 9C9.16125 9 6 14.5444 6 22.5C6 30.4556 9.16125 36 12 36C14.8387 36 18 30.4556 18 22.5ZM42 39V24H39C38.6022 24 38.2206 23.842 37.9393 23.5607C37.658 23.2794 37.5 22.8978 37.5 22.5C37.5 22.1022 37.658 21.7206 37.9393 21.4393C38.2206 21.158 38.6022 21 39 21H41.9606C41.595 13.8563 38.655 9 36 9H17.2725C17.7992 9.69557 18.2588 10.4395 18.645 11.2219C19.9838 13.8994 20.79 17.3269 20.9644 21H24C24.3978 21 24.7794 21.158 25.0607 21.4393C25.342 21.7206 25.5 22.1022 25.5 22.5C25.5 22.8978 25.342 23.2794 25.0607 23.5607C24.7794 23.842 24.3978 24 24 24H21V39H42ZM33 21H30C29.6022 21 29.2206 21.158 28.9393 21.4393C28.658 21.7206 28.5 22.1022 28.5 22.5C28.5 22.8978 28.658 23.2794 28.9393 23.5607C29.2206 23.842 29.6022 24 30 24H33C33.3978 24 33.7794 23.842 34.0607 23.5607C34.342 23.2794 34.5 22.8978 34.5 22.5C34.5 22.1022 34.342 21.7206 34.0607 21.4393C33.7794 21.158 33.3978 21 33 21Z" fill="#C5F529"/>
</svg>
