<svg width="48" height="48" viewBox="0 0 48 48" fill="none" xmlns="http://www.w3.org/2000/svg">
<path d="M46.4999 23.2498C46.498 21.2629 45.9334 19.3172 44.8716 17.6378C43.8097 15.9585 42.294 14.6141 40.4999 13.7604V13.4998C40.4982 11.567 39.8744 9.68622 38.7207 8.13559C37.567 6.58496 35.9448 5.4469 34.0942 4.88981C32.2435 4.33271 30.2626 4.38617 28.4447 5.04228C26.6267 5.69838 25.0683 6.92228 23.9999 8.53288C22.9316 6.92228 21.3732 5.69838 19.5552 5.04228C17.7373 4.38617 15.7564 4.33271 13.9057 4.88981C12.055 5.4469 10.4328 6.58496 9.27919 8.13559C8.12552 9.68622 7.50167 11.567 7.49994 13.4998V13.7604C5.70432 14.6118 4.18718 15.9553 3.12483 17.6347C2.06248 19.3142 1.49854 21.2606 1.49854 23.2479C1.49854 25.2351 2.06248 27.1816 3.12483 28.861C4.18718 30.5405 5.70432 31.884 7.49994 32.7354V32.9998C7.50167 34.9325 8.12552 36.8133 9.27919 38.3639C10.4328 39.9145 12.055 41.0526 13.9057 41.6097C15.7564 42.1668 17.7373 42.1133 19.5552 41.4572C21.3732 40.8011 22.9316 39.5772 23.9999 37.9666C25.0683 39.5772 26.6267 40.8011 28.4447 41.4572C30.2626 42.1133 32.2435 42.1668 34.0942 41.6097C35.9448 41.0526 37.567 39.9145 38.7207 38.3639C39.8744 36.8133 40.4982 34.9325 40.4999 32.9998V32.7354C42.2938 31.8823 43.8093 30.5386 44.8711 28.8599C45.933 27.1812 46.4977 25.2361 46.4999 23.2498ZM16.4999 38.9998C15.0205 38.9995 13.5932 38.4527 12.4924 37.4643C11.3915 36.4759 10.6946 35.1157 10.5356 33.6448C11.0206 33.714 11.51 33.749 11.9999 33.7498H13.4999C13.8978 33.7498 14.2793 33.5917 14.5606 33.3104C14.8419 33.0291 14.9999 32.6476 14.9999 32.2498C14.9999 31.8519 14.8419 31.4704 14.5606 31.1891C14.2793 30.9078 13.8978 30.7498 13.4999 30.7498H11.9999C10.2291 30.7518 8.51467 30.1272 7.16015 28.9866C5.80563 27.8459 4.8984 26.2628 4.59909 24.5174C4.29978 22.7721 4.62769 20.9771 5.52477 19.4503C6.42185 17.9236 7.83023 16.7634 9.50057 16.1754C9.79283 16.0719 10.0458 15.8804 10.2248 15.6272C10.4038 15.3741 10.4999 15.0717 10.4999 14.7616V13.4998C10.4999 11.9085 11.1321 10.3823 12.2573 9.25712C13.3825 8.1319 14.9086 7.49976 16.4999 7.49976C18.0912 7.49976 19.6174 8.1319 20.7426 9.25712C21.8678 10.3823 22.4999 11.9085 22.4999 13.4998V26.2985C20.8528 24.817 18.7153 23.9981 16.4999 23.9998C16.1021 23.9998 15.7206 24.1578 15.4393 24.4391C15.158 24.7204 14.9999 25.1019 14.9999 25.4998C14.9999 25.8976 15.158 26.2791 15.4393 26.5604C15.7206 26.8417 16.1021 26.9998 16.4999 26.9998C18.0912 26.9998 19.6174 27.6319 20.7426 28.7571C21.8678 29.8823 22.4999 31.4085 22.4999 32.9998C22.4999 34.5911 21.8678 36.1172 20.7426 37.2424C19.6174 38.3676 18.0912 38.9998 16.4999 38.9998ZM35.9999 30.7498H34.4999C34.1021 30.7498 33.7206 30.9078 33.4393 31.1891C33.158 31.4704 32.9999 31.8519 32.9999 32.2498C32.9999 32.6476 33.158 33.0291 33.4393 33.3104C33.7206 33.5917 34.1021 33.7498 34.4999 33.7498H35.9999C36.4899 33.749 36.9792 33.714 37.4643 33.6448C37.3397 34.7973 36.8839 35.889 36.152 36.7879C35.4201 37.6869 34.4435 38.3546 33.3402 38.7103C32.2369 39.066 31.0542 39.0945 29.935 38.7923C28.8159 38.4901 27.8083 37.8702 27.0339 37.0076C26.2596 36.1449 25.7518 35.0764 25.5718 33.9312C25.3919 32.786 25.5475 31.6133 26.0199 30.5547C26.4923 29.4961 27.2612 28.597 28.2338 27.9661C29.2063 27.3352 30.3407 26.9996 31.4999 26.9998C31.8978 26.9998 32.2793 26.8417 32.5606 26.5604C32.8419 26.2791 32.9999 25.8976 32.9999 25.4998C32.9999 25.1019 32.8419 24.7204 32.5606 24.4391C32.2793 24.1578 31.8978 23.9998 31.4999 23.9998C29.2846 23.9981 27.1471 24.817 25.4999 26.2985V13.4998C25.4999 11.9085 26.1321 10.3823 27.2573 9.25712C28.3825 8.1319 29.9086 7.49976 31.4999 7.49976C33.0912 7.49976 34.6174 8.1319 35.7426 9.25712C36.8678 10.3823 37.4999 11.9085 37.4999 13.4998V14.7616C37.5 15.0717 37.5961 15.3741 37.7751 15.6272C37.954 15.8804 38.2071 16.0719 38.4993 16.1754C40.1697 16.7634 41.578 17.9236 42.4751 19.4503C43.3722 20.9771 43.7001 22.7721 43.4008 24.5174C43.1015 26.2628 42.1943 27.8459 40.8397 28.9866C39.4852 30.1272 37.7708 30.7518 35.9999 30.7498ZM38.9999 20.9998C38.9999 21.3976 38.8419 21.7791 38.5606 22.0604C38.2793 22.3417 37.8978 22.4998 37.4999 22.4998H36.7499C34.9597 22.4998 33.2428 21.7886 31.977 20.5227C30.7111 19.2569 29.9999 17.54 29.9999 15.7498V14.9998C29.9999 14.6019 30.158 14.2204 30.4393 13.9391C30.7206 13.6578 31.1021 13.4998 31.4999 13.4998C31.8978 13.4998 32.2793 13.6578 32.5606 13.9391C32.8419 14.2204 32.9999 14.6019 32.9999 14.9998V15.7498C32.9999 16.7443 33.395 17.6981 34.0983 18.4014C34.8016 19.1047 35.7554 19.4998 36.7499 19.4998H37.4999C37.8978 19.4998 38.2793 19.6578 38.5606 19.9391C38.8419 20.2204 38.9999 20.6019 38.9999 20.9998ZM11.2499 22.4998H10.4999C10.1021 22.4998 9.72059 22.3417 9.43928 22.0604C9.15798 21.7791 8.99994 21.3976 8.99994 20.9998C8.99994 20.6019 9.15798 20.2204 9.43928 19.9391C9.72059 19.6578 10.1021 19.4998 10.4999 19.4998H11.2499C12.2445 19.4998 13.1983 19.1047 13.9016 18.4014C14.6049 17.6981 14.9999 16.7443 14.9999 15.7498V14.9998C14.9999 14.6019 15.158 14.2204 15.4393 13.9391C15.7206 13.6578 16.1021 13.4998 16.4999 13.4998C16.8978 13.4998 17.2793 13.6578 17.5606 13.9391C17.8419 14.2204 17.9999 14.6019 17.9999 14.9998V15.7498C17.9999 17.54 17.2888 19.2569 16.0229 20.5227C14.757 21.7886 13.0402 22.4998 11.2499 22.4998Z" fill="#C5F529"/>
</svg>
