<svg width="132" height="105" viewBox="0 0 132 105" fill="none" xmlns="http://www.w3.org/2000/svg">
<path d="M122.5 13.125H109.375V4.375C109.375 3.21468 108.914 2.10188 108.094 1.28141C107.273 0.460937 106.16 0 105 0H26.25C25.0897 0 23.9769 0.460937 23.1564 1.28141C22.3359 2.10188 21.875 3.21468 21.875 4.375V13.125H8.75C6.42936 13.125 4.20376 14.0469 2.56282 15.6878C0.921872 17.3288 0 19.5544 0 21.875V30.625C0 36.4266 2.30468 41.9906 6.40704 46.093C8.43832 48.1242 10.8498 49.7355 13.5038 50.8349C16.1578 51.9342 19.0023 52.5 21.875 52.5H23.8711C26.4482 60.6671 31.362 67.9001 38.0051 73.3049C44.6482 78.7098 52.7294 82.0497 61.25 82.9117V96.25H48.125C46.9647 96.25 45.8519 96.7109 45.0314 97.5314C44.2109 98.3519 43.75 99.4647 43.75 100.625C43.75 101.785 44.2109 102.898 45.0314 103.719C45.8519 104.539 46.9647 105 48.125 105H83.125C84.2853 105 85.3981 104.539 86.2186 103.719C87.0391 102.898 87.5 101.785 87.5 100.625C87.5 99.4647 87.0391 98.3519 86.2186 97.5314C85.3981 96.7109 84.2853 96.25 83.125 96.25H70V82.8953C87.4672 81.1289 101.959 68.8734 107.231 52.5H109.375C115.177 52.5 120.741 50.1953 124.843 46.093C128.945 41.9906 131.25 36.4266 131.25 30.625V21.875C131.25 19.5544 130.328 17.3288 128.687 15.6878C127.046 14.0469 124.821 13.125 122.5 13.125ZM21.875 43.75C18.394 43.75 15.0556 42.3672 12.5942 39.9058C10.1328 37.4444 8.75 34.106 8.75 30.625V21.875H21.875V39.375C21.875 40.8333 21.9461 42.2917 22.0883 43.75H21.875ZM100.625 38.8828C100.625 58.3078 84.7656 74.2328 65.625 74.375C56.3424 74.375 47.44 70.6875 40.8763 64.1237C34.3125 57.56 30.625 48.6576 30.625 39.375V8.75H100.625V38.8828ZM122.5 30.625C122.5 34.106 121.117 37.4444 118.656 39.9058C116.194 42.3672 112.856 43.75 109.375 43.75H109.102C109.281 42.1338 109.372 40.509 109.375 38.8828V21.875H122.5V30.625Z" fill="#C5F529"/>
</svg>
