<svg width="27" height="47" viewBox="0 0 27 47" fill="none" xmlns="http://www.w3.org/2000/svg">
<path d="M12 25.5V18C12 17.6022 12.158 17.2206 12.4393 16.9393C12.7206 16.658 13.1022 16.5 13.5 16.5C13.8978 16.5 14.2794 16.658 14.5607 16.9393C14.842 17.2206 15 17.6022 15 18V25.5C15 25.8978 14.842 26.2794 14.5607 26.5607C14.2794 26.842 13.8978 27 13.5 27C13.1022 27 12.7206 26.842 12.4393 26.5607C12.158 26.2794 12 25.8978 12 25.5ZM13.5 30C13.055 30 12.62 30.132 12.25 30.3792C11.88 30.6264 11.5916 30.9778 11.4213 31.389C11.251 31.8001 11.2064 32.2525 11.2932 32.689C11.38 33.1254 11.5943 33.5263 11.909 33.841C12.2237 34.1557 12.6246 34.3699 13.061 34.4568C13.4975 34.5436 13.9499 34.499 14.361 34.3287C14.7722 34.1584 15.1236 33.87 15.3708 33.5C15.618 33.13 15.75 32.695 15.75 32.25C15.75 31.6533 15.5129 31.081 15.091 30.659C14.669 30.2371 14.0967 30 13.5 30ZM7.5 3H19.5C19.8978 3 20.2794 2.84196 20.5607 2.56066C20.842 2.27936 21 1.89782 21 1.5C21 1.10218 20.842 0.720644 20.5607 0.43934C20.2794 0.158035 19.8978 0 19.5 0L7.5 0C7.10218 0 6.72064 0.158035 6.43934 0.43934C6.15804 0.720644 6 1.10218 6 1.5C6 1.89782 6.15804 2.27936 6.43934 2.56066C6.72064 2.84196 7.10218 3 7.5 3ZM27 10.5V42C27 43.1935 26.5259 44.3381 25.682 45.182C24.8381 46.0259 23.6935 46.5 22.5 46.5H4.5C3.30653 46.5 2.16193 46.0259 1.31802 45.182C0.474106 44.3381 0 43.1935 0 42V10.5C0 9.30653 0.474106 8.16193 1.31802 7.31802C2.16193 6.47411 3.30653 6 4.5 6H22.5C23.6935 6 24.8381 6.47411 25.682 7.31802C26.5259 8.16193 27 9.30653 27 10.5ZM24 10.5C24 10.1022 23.842 9.72064 23.5607 9.43934C23.2794 9.15804 22.8978 9 22.5 9H4.5C4.10218 9 3.72064 9.15804 3.43934 9.43934C3.15804 9.72064 3 10.1022 3 10.5V42C3 42.3978 3.15804 42.7794 3.43934 43.0607C3.72064 43.342 4.10218 43.5 4.5 43.5H22.5C22.8978 43.5 23.2794 43.342 23.5607 43.0607C23.842 42.7794 24 42.3978 24 42V10.5Z" fill="#C5F529"/>
</svg>
