<svg width="70" height="70" viewBox="0 0 70 70" fill="none" xmlns="http://www.w3.org/2000/svg">
<g clip-path="url(#clip0_338_41842)">
<path d="M32.8125 37.1875V26.25C32.8125 25.6698 33.043 25.1134 33.4532 24.7032C33.8634 24.293 34.4198 24.0625 35 24.0625C35.5802 24.0625 36.1366 24.293 36.5468 24.7032C36.957 25.1134 37.1875 25.6698 37.1875 26.25V37.1875C37.1875 37.7677 36.957 38.3241 36.5468 38.7343C36.1366 39.1445 35.5802 39.375 35 39.375C34.4198 39.375 33.8634 39.1445 33.4532 38.7343C33.043 38.3241 32.8125 37.7677 32.8125 37.1875ZM35 43.75C34.351 43.75 33.7166 43.9424 33.177 44.303C32.6374 44.6635 32.2169 45.176 31.9685 45.7756C31.7202 46.3751 31.6552 47.0349 31.7818 47.6714C31.9084 48.3079 32.2209 48.8926 32.6798 49.3514C33.1387 49.8103 33.7234 50.1228 34.3599 50.2495C34.9964 50.3761 35.6561 50.3111 36.2557 50.0627C36.8552 49.8144 37.3677 49.3938 37.7283 48.8542C38.0888 48.3146 38.2812 47.6802 38.2812 47.0312C38.2812 46.161 37.9355 45.3264 37.3202 44.7111C36.7048 44.0957 35.8702 43.75 35 43.75ZM26.25 4.375H43.75C44.3302 4.375 44.8866 4.14453 45.2968 3.7343C45.707 3.32406 45.9375 2.76766 45.9375 2.1875C45.9375 1.60734 45.707 1.05094 45.2968 0.640704C44.8866 0.230468 44.3302 0 43.75 0L26.25 0C25.6698 0 25.1134 0.230468 24.7032 0.640704C24.293 1.05094 24.0625 1.60734 24.0625 2.1875C24.0625 2.76766 24.293 3.32406 24.7032 3.7343C25.1134 4.14453 25.6698 4.375 26.25 4.375ZM54.6875 15.3125V61.25C54.6875 62.9905 53.9961 64.6597 52.7654 65.8904C51.5347 67.1211 49.8655 67.8125 48.125 67.8125H21.875C20.1345 67.8125 18.4653 67.1211 17.2346 65.8904C16.0039 64.6597 15.3125 62.9905 15.3125 61.25V15.3125C15.3125 13.572 16.0039 11.9028 17.2346 10.6721C18.4653 9.4414 20.1345 8.75 21.875 8.75H48.125C49.8655 8.75 51.5347 9.4414 52.7654 10.6721C53.9961 11.9028 54.6875 13.572 54.6875 15.3125ZM50.3125 15.3125C50.3125 14.7323 50.082 14.1759 49.6718 13.7657C49.2616 13.3555 48.7052 13.125 48.125 13.125H21.875C21.2948 13.125 20.7384 13.3555 20.3282 13.7657C19.918 14.1759 19.6875 14.7323 19.6875 15.3125V61.25C19.6875 61.8302 19.918 62.3866 20.3282 62.7968C20.7384 63.207 21.2948 63.4375 21.875 63.4375H48.125C48.7052 63.4375 49.2616 63.207 49.6718 62.7968C50.082 62.3866 50.3125 61.8302 50.3125 61.25V15.3125Z" fill="#EF5350"/>
</g>
<defs>
<clipPath id="clip0_338_41842">
<rect width="70" height="70" fill="white"/>
</clipPath>
</defs>
</svg>
