<svg width="47" height="47" viewBox="0 0 47 47" fill="none" xmlns="http://www.w3.org/2000/svg">
<g clip-path="url(#clip0_336_39351)">
<path d="M27.7769 24.7106C27.9115 24.9283 27.9882 25.1767 27.9997 25.4324C28.0112 25.6881 27.9571 25.9424 27.8425 26.1712L24.8425 32.1712C24.6645 32.5273 24.3523 32.7981 23.9746 32.9239C23.597 33.0498 23.1848 33.0205 22.8287 32.8425C22.4727 32.6645 22.2019 32.3523 22.0761 31.9746C21.9502 31.597 21.9795 31.1848 22.1575 30.8288L24.0737 27H20.5C20.2442 27.0002 19.9926 26.9349 19.7691 26.8105C19.5456 26.686 19.3576 26.5064 19.2231 26.2888C19.0886 26.0713 19.0119 25.8229 19.0004 25.5673C18.989 25.3118 19.043 25.0575 19.1575 24.8288L22.1575 18.8288C22.3355 18.4727 22.6477 18.2019 23.0254 18.0761C23.403 17.9502 23.8152 17.9795 24.1713 18.1575C24.5273 18.3355 24.7981 18.6477 24.9239 19.0254C25.0498 19.403 25.0205 19.8152 24.8425 20.1712L22.9263 24H26.5C26.7558 23.9998 27.0073 24.0649 27.2308 24.1893C27.4543 24.3137 27.6423 24.4931 27.7769 24.7106ZM17.5 3H29.5C29.8978 3 30.2794 2.84196 30.5607 2.56066C30.842 2.27936 31 1.89782 31 1.5C31 1.10218 30.842 0.720644 30.5607 0.43934C30.2794 0.158035 29.8978 0 29.5 0L17.5 0C17.1022 0 16.7206 0.158035 16.4393 0.43934C16.158 0.720644 16 1.10218 16 1.5C16 1.89782 16.158 2.27936 16.4393 2.56066C16.7206 2.84196 17.1022 3 17.5 3ZM37 10.5V42C37 43.1935 36.5259 44.3381 35.682 45.182C34.8381 46.0259 33.6935 46.5 32.5 46.5H14.5C13.3065 46.5 12.1619 46.0259 11.318 45.182C10.4741 44.3381 10 43.1935 10 42V10.5C10 9.30653 10.4741 8.16193 11.318 7.31802C12.1619 6.47411 13.3065 6 14.5 6H32.5C33.6935 6 34.8381 6.47411 35.682 7.31802C36.5259 8.16193 37 9.30653 37 10.5ZM34 10.5C34 10.1022 33.842 9.72064 33.5607 9.43934C33.2794 9.15804 32.8978 9 32.5 9H14.5C14.1022 9 13.7206 9.15804 13.4393 9.43934C13.158 9.72064 13 10.1022 13 10.5V42C13 42.3978 13.158 42.7794 13.4393 43.0607C13.7206 43.342 14.1022 43.5 14.5 43.5H32.5C32.8978 43.5 33.2794 43.342 33.5607 43.0607C33.842 42.7794 34 42.3978 34 42V10.5Z" fill="#C5F529"/>
</g>
<defs>
<clipPath id="clip0_336_39351">
<rect width="47" height="46.5" fill="white"/>
</clipPath>
</defs>
</svg>
