<svg width="48" height="49" viewBox="0 0 48 49" fill="none" xmlns="http://www.w3.org/2000/svg">
<path d="M45.4955 15.5C45.4955 13.5109 44.7053 11.6032 43.2988 10.1967C41.8922 8.79018 39.9846 8 37.9955 8H9.49546C7.77323 8.00104 6.10382 8.59478 4.7677 9.68147C3.43159 10.7682 2.51017 12.2816 2.15826 13.9675C1.80634 15.6534 2.04537 17.409 2.83518 18.9395C3.62499 20.4699 4.91746 21.6819 6.49546 22.3719V38C6.49546 38.7956 6.81153 39.5587 7.37414 40.1213C7.93675 40.6839 8.69981 41 9.49546 41H37.9955C38.7911 41 39.5542 40.6839 40.1168 40.1213C40.6794 39.5587 40.9955 38.7956 40.9955 38V22.3719C42.3318 21.7871 43.4689 20.8259 44.268 19.6056C45.0671 18.3853 45.4936 16.9587 45.4955 15.5ZM9.49546 23C9.89329 23 10.2748 22.842 10.5561 22.5607C10.8374 22.2794 10.9955 21.8978 10.9955 21.5C10.9955 21.1022 10.8374 20.7206 10.5561 20.4393C10.2748 20.158 9.89329 20 9.49546 20C8.30199 20 7.15739 19.5259 6.31348 18.682C5.46957 17.8381 4.99546 16.6935 4.99546 15.5C4.99546 14.3065 5.46957 13.1619 6.31348 12.318C7.15739 11.4741 8.30199 11 9.49546 11H27.4955C28.6889 11 29.8335 11.4741 30.6774 12.318C31.5214 13.1619 31.9955 14.3065 31.9955 15.5C31.9955 16.6935 31.5214 17.8381 30.6774 18.682C29.8335 19.5259 28.6889 20 27.4955 20C27.0976 20 26.7161 20.158 26.4348 20.4393C26.1535 20.7206 25.9955 21.1022 25.9955 21.5C25.9955 21.8978 26.1535 22.2794 26.4348 22.5607C26.7161 22.842 27.0976 23 27.4955 23V38H9.49546V23ZM37.9955 20C37.5976 20 37.2161 20.158 36.9348 20.4393C36.6535 20.7206 36.4955 21.1022 36.4955 21.5C36.4955 21.8978 36.6535 22.2794 36.9348 22.5607C37.2161 22.842 37.5976 23 37.9955 23V38H30.4955V22.3719C31.5322 21.9192 32.4531 21.2379 33.1893 20.3789C33.9254 19.5199 34.4577 18.5055 34.7462 17.4116C35.0348 16.3178 35.0722 15.1728 34.8556 14.0625C34.639 12.9521 34.174 11.9052 33.4955 11H37.9955C39.1889 11 40.3335 11.4741 41.1774 12.318C42.0214 13.1619 42.4955 14.3065 42.4955 15.5C42.4955 16.6935 42.0214 17.8381 41.1774 18.682C40.3335 19.5259 39.1889 20 37.9955 20Z" fill="#C5F529"/>
</svg>
