<svg width="48" height="48" viewBox="0 0 48 48" fill="none" xmlns="http://www.w3.org/2000/svg">
<path d="M38.9999 4.5H31.4999C31.1021 4.5 30.7206 4.65804 30.4392 4.93934C30.1579 5.22064 29.9999 5.60218 29.9999 6C29.9999 6.39782 30.1579 6.77936 30.4392 7.06066C30.7206 7.34196 31.1021 7.5 31.4999 7.5H35.3793L30.6637 12.2156C29.279 10.9252 27.6088 9.98067 25.7893 9.45908C23.9699 8.93749 22.0529 8.85368 20.1949 9.21448C18.3369 9.57527 16.5906 10.3705 15.0986 11.5351C13.6066 12.6997 12.4113 14.2007 11.6102 15.9155C10.8091 17.6304 10.4251 19.5104 10.4893 21.402C10.5536 23.2936 11.0645 25.1432 11.9801 26.7997C12.8957 28.4562 14.1902 29.8726 15.7578 30.9332C17.3254 31.9939 19.1217 32.6687 20.9999 32.9025V36H16.4999C16.1021 36 15.7206 36.158 15.4392 36.4393C15.1579 36.7206 14.9999 37.1022 14.9999 37.5C14.9999 37.8978 15.1579 38.2794 15.4392 38.5607C15.7206 38.842 16.1021 39 16.4999 39H20.9999V43.5C20.9999 43.8978 21.1579 44.2794 21.4392 44.5607C21.7206 44.842 22.1021 45 22.4999 45C22.8977 45 23.2793 44.842 23.5606 44.5607C23.8419 44.2794 23.9999 43.8978 23.9999 43.5V39H28.4999C28.8977 39 29.2793 38.842 29.5606 38.5607C29.8419 38.2794 29.9999 37.8978 29.9999 37.5C29.9999 37.1022 29.8419 36.7206 29.5606 36.4393C29.2793 36.158 28.8977 36 28.4999 36H23.9999V32.9025C26.0105 32.6513 27.9246 31.8945 29.5633 30.7028C31.2021 29.511 32.5119 27.9233 33.3704 26.0879C34.2289 24.2525 34.6081 22.2295 34.4724 20.2078C34.3368 18.1861 33.6909 16.2318 32.5949 14.5275L37.4999 9.62063V13.5C37.4999 13.8978 37.6579 14.2794 37.9392 14.5607C38.2206 14.842 38.6021 15 38.9999 15C39.3977 15 39.7793 14.842 40.0606 14.5607C40.3419 14.2794 40.4999 13.8978 40.4999 13.5V6C40.4999 5.60218 40.3419 5.22064 40.0606 4.93934C39.7793 4.65804 39.3977 4.5 38.9999 4.5ZM22.4999 30C20.7199 30 18.9798 29.4722 17.4998 28.4832C16.0197 27.4943 14.8662 26.0887 14.185 24.4442C13.5038 22.7996 13.3256 20.99 13.6728 19.2442C14.0201 17.4984 14.8773 15.8947 16.1359 14.636C17.3946 13.3774 18.9983 12.5202 20.7441 12.1729C22.4899 11.8257 24.2995 12.0039 25.9441 12.6851C27.5886 13.3663 28.9942 14.5198 29.9831 15.9999C30.9721 17.4799 31.4999 19.22 31.4999 21C31.4974 23.3862 30.5484 25.6739 28.8611 27.3612C27.1738 29.0485 24.8861 29.9975 22.4999 30Z" fill="#C5F529"/>
</svg>
