<svg width="48" height="48" viewBox="0 0 48 48" fill="none" xmlns="http://www.w3.org/2000/svg">
<path d="M44.9999 23.9999V35.9999C44.9999 36.3977 44.8418 36.7792 44.5605 37.0605C44.2792 37.3418 43.8977 37.4999 43.4999 37.4999H31.4999C31.102 37.4999 30.7205 37.3418 30.4392 37.0605C30.1579 36.7792 29.9999 36.3977 29.9999 35.9999C29.9999 35.602 30.1579 35.2205 30.4392 34.9392C30.7205 34.6579 31.102 34.4999 31.4999 34.4999H39.8792L25.4999 20.1205L19.0611 26.5611C18.9218 26.7006 18.7564 26.8112 18.5743 26.8867C18.3922 26.9622 18.197 27.001 17.9999 27.001C17.8027 27.001 17.6075 26.9622 17.4254 26.8867C17.2434 26.8112 17.0779 26.7006 16.9386 26.5611L3.43861 13.0611C3.15715 12.7796 2.99902 12.3979 2.99902 11.9999C2.99902 11.6018 3.15715 11.2201 3.43861 10.9386C3.72007 10.6571 4.10181 10.499 4.49986 10.499C4.8979 10.499 5.27965 10.6571 5.56111 10.9386L17.9999 23.3792L24.4386 16.9386C24.5779 16.7991 24.7433 16.6885 24.9254 16.613C25.1075 16.5375 25.3027 16.4987 25.4999 16.4987C25.697 16.4987 25.8922 16.5375 26.0743 16.613C26.2564 16.6885 26.4218 16.7991 26.5611 16.9386L41.9999 32.3792V23.9999C41.9999 23.602 42.1579 23.2205 42.4392 22.9392C42.7205 22.6579 43.102 22.4999 43.4999 22.4999C43.8977 22.4999 44.2792 22.6579 44.5605 22.9392C44.8418 23.2205 44.9999 23.602 44.9999 23.9999Z" fill="#C5F529"/>
</svg>
