<svg version="1.2" xmlns="http://www.w3.org/2000/svg" viewBox="0 0 26 26" width="26" height="26"><style>.a{fill:#00182b}.b{fill:#c5f529}</style><path fill-rule="evenodd" class="a" d="m6 4.5h14v17h-14z"/><path class="b" d="m13 0c-2.6 0-5.1 0.8-7.2 2.2-2.2 1.4-3.8 3.4-4.8 5.8-1 2.4-1.3 5-0.8 7.5 0.6 2.6 1.8 4.9 3.6 6.7 1.8 1.8 4.1 3 6.7 3.6 2.5 0.5 5.1 0.2 7.5-0.8 2.4-1 4.4-2.6 5.8-4.8 1.4-2.1 2.2-4.6 2.2-7.2 0-3.4-1.4-6.8-3.8-9.2-2.4-2.4-5.8-3.8-9.2-3.8zm5.7 10.7l-7 7q-0.1 0.1-0.3 0.2-0.2 0.1-0.4 0.1-0.2 0-0.4-0.1-0.2-0.1-0.3-0.2l-3-3q-0.3-0.3-0.3-0.7 0-0.4 0.3-0.7 0.3-0.3 0.7-0.3 0.4 0 0.7 0.3l2.3 2.3 6.3-6.3q0.1-0.1 0.3-0.2 0.2-0.1 0.4-0.1 0.2 0 0.4 0.1 0.2 0.1 0.3 0.2 0.1 0.1 0.2 0.3 0.1 0.2 0.1 0.4 0 0.2-0.1 0.4-0.1 0.2-0.2 0.3z"/></svg>