<svg width="48" height="48" viewBox="0 0 48 48" fill="none" xmlns="http://www.w3.org/2000/svg">
<path d="M41.957 28.1417C42.0041 28.3331 42.013 28.5318 41.9833 28.7265C41.9535 28.9213 41.8857 29.1083 41.7837 29.2768C41.6816 29.4454 41.5474 29.5922 41.3886 29.7088C41.2298 29.8255 41.0496 29.9097 40.8583 29.9567L36.2383 31.0817L37.4495 35.6024C37.5006 35.7927 37.5136 35.9912 37.4879 36.1866C37.4622 36.382 37.3982 36.5703 37.2996 36.741C37.2011 36.9116 37.0699 37.0612 36.9135 37.1811C36.7571 37.301 36.5787 37.3889 36.3883 37.4399C36.262 37.4763 36.1316 37.4964 36.0002 37.4999C35.6702 37.4995 35.3495 37.3904 35.0878 37.1894C34.8262 36.9884 34.6381 36.7067 34.5527 36.388L33.1052 30.988L25.5002 26.5986V35.3792L29.5614 39.4386C29.7008 39.578 29.8113 39.7434 29.8868 39.9255C29.9622 40.1076 30.001 40.3028 30.001 40.4999C30.001 40.697 29.9622 40.8921 29.8868 41.0742C29.8113 41.2563 29.7008 41.4217 29.5614 41.5611C29.4221 41.7005 29.2566 41.811 29.0745 41.8864C28.8924 41.9619 28.6973 42.0007 28.5002 42.0007C28.3031 42.0007 28.1079 41.9619 27.9258 41.8864C27.7437 41.811 27.5783 41.7005 27.4389 41.5611L24.0002 38.1205L20.5614 41.5611C20.4221 41.7005 20.2566 41.811 20.0745 41.8864C19.8924 41.9619 19.6973 42.0007 19.5002 42.0007C19.3031 42.0007 19.1079 41.9619 18.9258 41.8864C18.7437 41.811 18.5783 41.7005 18.4389 41.5611C18.2996 41.4217 18.189 41.2563 18.1136 41.0742C18.0382 40.8921 17.9993 40.697 17.9993 40.4999C17.9993 40.3028 18.0382 40.1076 18.1136 39.9255C18.189 39.7434 18.2996 39.578 18.4389 39.4386L22.5002 35.3792V26.5986L14.897 30.988L13.4495 36.388C13.3641 36.707 13.1757 36.989 12.9136 37.19C12.6516 37.391 12.3305 37.5 12.0002 37.4999C11.8685 37.4996 11.7375 37.4826 11.6102 37.4492C11.4198 37.3983 11.2413 37.3104 11.085 37.1905C10.9286 37.0706 10.7974 36.921 10.6988 36.7504C10.6003 36.5797 10.5363 36.3913 10.5106 36.196C10.4849 36.0006 10.4979 35.8021 10.5489 35.6117L11.7602 31.0911L7.14017 29.9661C6.75379 29.8711 6.42095 29.6265 6.2149 29.2862C6.00884 28.9458 5.94644 28.5375 6.04142 28.1511C6.1364 27.7647 6.38099 27.4319 6.72136 27.2258C7.06174 27.0198 7.47004 26.9574 7.85642 27.0524L13.3783 28.408L21.0002 23.9999L13.3802 19.6011L7.8583 20.9567C7.74114 20.9857 7.62086 21.0002 7.50017 20.9999C7.1334 21.0001 6.77925 20.866 6.50467 20.6228C6.23009 20.3797 6.05412 20.0443 6.01002 19.6802C5.96592 19.3161 6.05675 18.9485 6.26534 18.6468C6.47393 18.3451 6.78582 18.1303 7.14205 18.043L11.762 16.918L10.5508 12.388C10.4479 12.0036 10.5018 11.594 10.7009 11.2494C10.8999 10.9048 11.2276 10.6534 11.612 10.5505C11.9964 10.4475 12.406 10.5015 12.7506 10.7005C13.0952 10.8996 13.3466 11.2273 13.4495 11.6117L14.897 17.0117L22.5002 21.4011V12.6205L18.4389 8.56111C18.1575 8.27965 17.9993 7.8979 17.9993 7.49986C17.9993 7.30277 18.0382 7.1076 18.1136 6.92551C18.189 6.74342 18.2996 6.57797 18.4389 6.43861C18.5783 6.29924 18.7437 6.18869 18.9258 6.11327C19.1079 6.03784 19.3031 5.99902 19.5002 5.99902C19.8982 5.99902 20.28 6.15715 20.5614 6.43861L24.0002 9.87923L27.4389 6.43861C27.7204 6.15715 28.1021 5.99902 28.5002 5.99902C28.8982 5.99902 29.28 6.15715 29.5614 6.43861C29.8429 6.72007 30.001 7.10181 30.001 7.49986C30.001 7.8979 29.8429 8.27965 29.5614 8.56111L25.5002 12.6205V21.4011L33.1033 17.0117L34.5508 11.6117C34.6537 11.2273 34.9052 10.8996 35.2498 10.7005C35.5944 10.5015 36.0039 10.4475 36.3883 10.5505C36.7727 10.6534 37.1005 10.9048 37.2995 11.2494C37.4985 11.594 37.5525 12.0036 37.4495 12.388L36.2383 16.9086L40.8583 18.0336C41.2245 18.1118 41.5481 18.3241 41.7657 18.6288C41.9833 18.9335 42.0791 19.3086 42.0342 19.6803C41.9893 20.052 41.807 20.3935 41.5232 20.6377C41.2393 20.8819 40.8744 21.0111 40.5002 20.9999C40.3795 21.0002 40.2592 20.9857 40.142 20.9567L34.6202 19.6011L27.0002 23.9999L34.6202 28.3986L40.142 27.043C40.3334 26.9959 40.5321 26.987 40.7269 27.0168C40.9216 27.0465 41.1086 27.1143 41.2772 27.2164C41.4457 27.3184 41.5925 27.4526 41.7092 27.6114C41.8258 27.7702 41.91 27.9504 41.957 28.1417Z" fill="#C5F529"/>
</svg>
