<svg width="48" height="48" viewBox="0 0 48 48" fill="none" xmlns="http://www.w3.org/2000/svg">
<path d="M34.6068 23.9999L39.8024 18.8024C40.5187 18.1105 41.0901 17.2829 41.4831 16.3679C41.8762 15.4529 42.0831 14.4687 42.0918 13.4729C42.1004 12.477 41.9106 11.4894 41.5335 10.5677C41.1564 9.646 40.5995 8.80861 39.8953 8.10441C39.1911 7.40022 38.3538 6.84332 37.432 6.46621C36.5103 6.08911 35.5227 5.89934 34.5269 5.908C33.531 5.91665 32.5469 6.12355 31.6318 6.51662C30.7168 6.90968 29.8892 7.48105 29.1974 8.19738L23.9999 13.393L18.8024 8.19738C18.1105 7.48105 17.2829 6.90968 16.3679 6.51662C15.4529 6.12355 14.4687 5.91665 13.4729 5.908C12.477 5.89934 11.4894 6.08911 10.5677 6.46621C9.646 6.84332 8.80861 7.40022 8.10441 8.10441C7.40022 8.80861 6.84332 9.646 6.46621 10.5677C6.08911 11.4894 5.89934 12.477 5.908 13.4729C5.91665 14.4687 6.12355 15.4529 6.51662 16.3679C6.90968 17.2829 7.48105 18.1105 8.19738 18.8024L13.393 23.9999L8.19738 29.1974C7.48105 29.8892 6.90968 30.7168 6.51662 31.6318C6.12355 32.5469 5.91665 33.531 5.908 34.5269C5.89934 35.5227 6.08911 36.5103 6.46621 37.432C6.84332 38.3538 7.40022 39.1911 8.10441 39.8953C8.80861 40.5995 9.646 41.1564 10.5677 41.5335C11.4894 41.9106 12.477 42.1004 13.4729 42.0918C14.4687 42.0831 15.4529 41.8762 16.3679 41.4831C17.2829 41.0901 18.1105 40.5187 18.8024 39.8024L23.9999 34.6068L29.1974 39.8024C29.8892 40.5187 30.7168 41.0901 31.6318 41.4831C32.5469 41.8762 33.531 42.0831 34.5269 42.0918C35.5227 42.1004 36.5103 41.9106 37.432 41.5335C38.3538 41.1564 39.1911 40.5995 39.8953 39.8953C40.5995 39.1911 41.1564 38.3538 41.5335 37.432C41.9106 36.5103 42.1004 35.5227 42.0918 34.5269C42.0831 33.531 41.8762 32.5469 41.4831 31.6318C41.0901 30.7168 40.5187 29.8892 39.8024 29.1974L34.6068 23.9999ZM31.3124 10.3124C31.731 9.89379 32.2279 9.56175 32.7748 9.33521C33.3217 9.10867 33.9079 8.99207 34.4999 8.99207C35.0919 8.99207 35.678 9.10867 36.2249 9.33521C36.7719 9.56175 37.2688 9.89379 37.6874 10.3124C38.106 10.731 38.438 11.2279 38.6645 11.7748C38.8911 12.3217 39.0077 12.9079 39.0077 13.4999C39.0077 14.0919 38.8911 14.678 38.6645 15.2249C38.438 15.7719 38.106 16.2688 37.6874 16.6874L32.4899 21.8849L26.1205 15.5155L31.3124 10.3124ZM30.358 23.9999L23.9999 30.3636L17.6361 23.9999L23.9999 17.6361L30.358 23.9999ZM10.3124 16.6874C9.89379 16.2688 9.56175 15.7719 9.33521 15.2249C9.10867 14.678 8.99207 14.0919 8.99207 13.4999C8.99207 12.9079 9.10867 12.3217 9.33521 11.7748C9.56175 11.2279 9.89379 10.731 10.3124 10.3124C10.731 9.89379 11.2279 9.56175 11.7748 9.33521C12.3217 9.10867 12.9079 8.99207 13.4999 8.99207C14.0919 8.99207 14.678 9.10867 15.2249 9.33521C15.7719 9.56175 16.2688 9.89379 16.6874 10.3124L21.8849 15.5099L15.5155 21.8793L10.3124 16.6874ZM16.6874 37.6874C16.2688 38.106 15.7719 38.438 15.2249 38.6645C14.678 38.8911 14.0919 39.0077 13.4999 39.0077C12.9079 39.0077 12.3217 38.8911 11.7748 38.6645C11.2279 38.438 10.731 38.106 10.3124 37.6874C9.89379 37.2688 9.56175 36.7719 9.33521 36.2249C9.10867 35.678 8.99207 35.0919 8.99207 34.4999C8.99207 33.9079 9.10867 33.3217 9.33521 32.7748C9.56175 32.2279 9.89379 31.731 10.3124 31.3124L15.5099 26.1149L21.8736 32.4786L16.6874 37.6874ZM37.6874 37.6874C37.2693 38.1069 36.7725 38.4398 36.2256 38.6669C35.6786 38.894 35.0921 39.0109 34.4999 39.0109C33.9076 39.0109 33.3212 38.894 32.7742 38.6669C32.2272 38.4398 31.7304 38.1069 31.3124 37.6874L26.1149 32.4899L32.4786 26.1261L37.6874 31.3124C38.1069 31.7304 38.4398 32.2272 38.6669 32.7742C38.894 33.3212 39.0109 33.9076 39.0109 34.4999C39.0109 35.0921 38.894 35.6786 38.6669 36.2256C38.4398 36.7725 38.1069 37.2693 37.6874 37.6874ZM21.7499 23.9999C21.7499 23.5549 21.8818 23.1199 22.1291 22.7498C22.3763 22.3798 22.7277 22.0914 23.1388 21.9211C23.55 21.7509 24.0024 21.7063 24.4388 21.7931C24.8753 21.8799 25.2762 22.0942 25.5909 22.4089C25.9055 22.7236 26.1198 23.1245 26.2066 23.5609C26.2935 23.9974 26.2489 24.4498 26.0786 24.8609C25.9083 25.272 25.6199 25.6235 25.2499 25.8707C24.8799 26.1179 24.4449 26.2499 23.9999 26.2499C23.4031 26.2499 22.8308 26.0128 22.4089 25.5909C21.9869 25.1689 21.7499 24.5966 21.7499 23.9999Z" fill="#C5F529"/>
</svg>
