<svg width="48" height="48" viewBox="0 0 48 48" fill="none" xmlns="http://www.w3.org/2000/svg">
<path d="M4.5002 24.0008C4.50417 20.4216 5.92777 16.9902 8.45865 14.4593C10.9895 11.9284 14.421 10.5048 18.0002 10.5008H38.3796L36.439 8.56208C36.1575 8.28062 35.9994 7.89888 35.9994 7.50083C35.9994 7.10279 36.1575 6.72105 36.439 6.43958C36.7204 6.15812 37.1022 6 37.5002 6C37.8982 6 38.28 6.15812 38.5615 6.43958L43.0615 10.9396C43.2009 11.0789 43.3116 11.2443 43.387 11.4264C43.4625 11.6085 43.5014 11.8037 43.5014 12.0008C43.5014 12.198 43.4625 12.3931 43.387 12.5752C43.3116 12.7573 43.2009 12.9228 43.0615 13.0621L38.5615 17.5621C38.28 17.8435 37.8982 18.0017 37.5002 18.0017C37.1022 18.0017 36.7204 17.8435 36.439 17.5621C36.1575 17.2806 35.9994 16.8989 35.9994 16.5008C35.9994 16.1028 36.1575 15.721 36.439 15.4396L38.3796 13.5008H18.0002C15.2163 13.5038 12.5474 14.611 10.5789 16.5795C8.61038 18.548 7.50318 21.217 7.5002 24.0008C7.5002 24.3987 7.34217 24.7802 7.06086 25.0615C6.77956 25.3428 6.39803 25.5008 6.0002 25.5008C5.60238 25.5008 5.22085 25.3428 4.93954 25.0615C4.65824 24.7802 4.5002 24.3987 4.5002 24.0008ZM42.0002 22.5008C41.6024 22.5008 41.2208 22.6589 40.9395 22.9402C40.6582 23.2215 40.5002 23.603 40.5002 24.0008C40.4972 26.7847 39.39 29.4537 37.4215 31.4222C35.453 33.3907 32.7841 34.4979 30.0002 34.5008H9.62083L11.5615 32.5621C11.7008 32.4227 11.8114 32.2573 11.8868 32.0752C11.9622 31.8931 12.001 31.6979 12.001 31.5008C12.001 31.3037 11.9622 31.1086 11.8868 30.9265C11.8114 30.7444 11.7008 30.579 11.5615 30.4396C11.4221 30.3002 11.2566 30.1897 11.0745 30.1142C10.8925 30.0388 10.6973 30 10.5002 30C10.3031 30 10.1079 30.0388 9.92586 30.1142C9.74377 30.1897 9.57832 30.3002 9.43895 30.4396L4.93895 34.9396C4.79949 35.0789 4.68885 35.2443 4.61336 35.4264C4.53788 35.6085 4.49902 35.8037 4.49902 36.0008C4.49902 36.198 4.53788 36.3931 4.61336 36.5752C4.68885 36.7573 4.79949 36.9228 4.93895 37.0621L9.43895 41.5621C9.57832 41.7015 9.74377 41.812 9.92586 41.8874C10.1079 41.9628 10.3031 42.0017 10.5002 42.0017C10.6973 42.0017 10.8925 41.9628 11.0745 41.8874C11.2566 41.812 11.4221 41.7015 11.5615 41.5621C11.7008 41.4227 11.8114 41.2573 11.8868 41.0752C11.9622 40.8931 12.001 40.6979 12.001 40.5008C12.001 40.3037 11.9622 40.1086 11.8868 39.9265C11.8114 39.7444 11.7008 39.5789 11.5615 39.4396L9.62083 37.5008H30.0002C33.5794 37.4969 37.0109 36.0733 39.5418 33.5424C42.0726 31.0115 43.4962 27.58 43.5002 24.0008C43.5002 23.603 43.3422 23.2215 43.0609 22.9402C42.7796 22.6589 42.398 22.5008 42.0002 22.5008Z" fill="#C5F529"/>
</svg>
