<svg width="48" height="48" viewBox="0 0 48 48" fill="none" xmlns="http://www.w3.org/2000/svg">
<path d="M37.5001 38.3438V43.5C37.5001 43.8978 37.342 44.2794 37.0607 44.5607C36.7794 44.842 36.3979 45 36.0001 45C35.6023 45 35.2207 44.842 34.9394 44.5607C34.6581 44.2794 34.5001 43.8978 34.5001 43.5V38.3438C34.5074 36.1135 33.8899 33.9257 32.7174 32.0285C31.5449 30.1312 29.8644 28.6003 27.8663 27.6094L18.7913 23.0737C16.2939 21.8351 14.1934 19.9215 12.728 17.5501C11.2625 15.1786 10.4907 12.444 10.5001 9.65625V4.5C10.5001 4.10218 10.6581 3.72064 10.9394 3.43934C11.2207 3.15804 11.6023 3 12.0001 3C12.3979 3 12.7794 3.15804 13.0607 3.43934C13.342 3.72064 13.5001 4.10218 13.5001 4.5V9.65625C13.4927 11.8865 14.1103 14.0743 15.2828 15.9715C16.4553 17.8688 18.1358 19.3997 20.1338 20.3906L29.2088 24.9263C31.7063 26.1649 33.8068 28.0785 35.2722 30.4499C36.7377 32.8214 37.5094 35.556 37.5001 38.3438ZM30.0001 37.5H13.532C13.6041 36.4781 13.8077 35.4698 14.1376 34.5H27.7707C28.1685 34.5 28.5501 34.342 28.8314 34.0607C29.1127 33.7794 29.2707 33.3978 29.2707 33C29.2707 32.6022 29.1127 32.2206 28.8314 31.9393C28.5501 31.658 28.1685 31.5 27.7707 31.5H15.6488C16.4016 30.4119 17.3298 29.4564 18.3957 28.6725C18.5548 28.5559 18.6893 28.4091 18.7917 28.2405C18.894 28.072 18.9621 27.8849 18.9922 27.69C19.0222 27.495 19.0135 27.2961 18.9667 27.1045C18.9199 26.913 18.8357 26.7325 18.7191 26.5734C18.6026 26.4144 18.4558 26.2798 18.2872 26.1775C18.1186 26.0752 17.9315 26.007 17.7366 25.977C17.5417 25.947 17.3428 25.9556 17.1512 26.0024C16.9596 26.0493 16.7791 26.1334 16.6201 26.25C14.7253 27.6468 13.1845 29.4686 12.1216 31.569C11.0588 33.6693 10.5034 35.9897 10.5001 38.3438V43.5C10.5001 43.8978 10.6581 44.2794 10.9394 44.5607C11.2207 44.842 11.6023 45 12.0001 45C12.3979 45 12.7794 44.842 13.0607 44.5607C13.342 44.2794 13.5001 43.8978 13.5001 43.5V40.5H30.0001C30.3979 40.5 30.7794 40.342 31.0607 40.0607C31.3421 39.7794 31.5001 39.3978 31.5001 39C31.5001 38.6022 31.3421 38.2206 31.0607 37.9393C30.7794 37.658 30.3979 37.5 30.0001 37.5ZM36.0001 3C35.6023 3 35.2207 3.15804 34.9394 3.43934C34.6581 3.72064 34.5001 4.10218 34.5001 4.5V7.5H18.0001C17.6023 7.5 17.2207 7.65804 16.9394 7.93934C16.6581 8.22064 16.5001 8.60218 16.5001 9C16.5001 9.39782 16.6581 9.77936 16.9394 10.0607C17.2207 10.342 17.6023 10.5 18.0001 10.5H34.4682C34.396 11.5219 34.1925 12.5302 33.8626 13.5H20.2295C19.8316 13.5 19.4501 13.658 19.1688 13.9393C18.8875 14.2206 18.7295 14.6022 18.7295 15C18.7295 15.3978 18.8875 15.7794 19.1688 16.0607C19.4501 16.342 19.8316 16.5 20.2295 16.5H32.3513C31.5986 17.5881 30.6704 18.5436 29.6045 19.3275C29.4456 19.4441 29.3113 19.5908 29.2092 19.7593C29.1071 19.9278 29.0392 20.1148 29.0093 20.3095C28.9795 20.5042 28.9883 20.703 29.0352 20.8943C29.0821 21.0856 29.1663 21.2659 29.2829 21.4247C29.5184 21.7454 29.8716 21.9595 30.2649 22.0198C30.4596 22.0497 30.6584 22.0409 30.8497 21.9939C31.041 21.947 31.2213 21.8628 31.3801 21.7463C33.2744 20.3498 34.8148 18.5286 35.8777 16.429C36.9405 14.3293 37.4962 12.0096 37.5001 9.65625V4.5C37.5001 4.10218 37.342 3.72064 37.0607 3.43934C36.7794 3.15804 36.3979 3 36.0001 3Z" fill="#C5F529"/>
</svg>
