<svg width="48" height="48" viewBox="0 0 48 48" fill="none" xmlns="http://www.w3.org/2000/svg">
<path d="M45.9001 28.2003C45.7425 28.3185 45.5632 28.4045 45.3723 28.4534C45.1815 28.5023 44.9829 28.5131 44.7879 28.4853C44.5929 28.4574 44.4053 28.3914 44.2358 28.291C44.0663 28.1907 43.9183 28.0579 43.8001 27.9003C42.896 26.6851 41.7192 25.6991 40.3644 25.0217C39.0096 24.3443 37.5147 23.9945 36.0001 24.0003C35.7051 24.0003 35.4167 23.9133 35.1709 23.7502C34.9251 23.5872 34.7329 23.3552 34.6182 23.0835C34.5403 22.8989 34.5002 22.7006 34.5002 22.5003C34.5002 22.3 34.5403 22.1018 34.6182 21.9172C34.7329 21.6454 34.9251 21.4135 35.1709 21.2504C35.4167 21.0874 35.7051 21.0004 36.0001 21.0003C36.8417 21.0003 37.6665 20.7642 38.3806 20.3188C39.0948 19.8735 39.6698 19.2369 40.0403 18.4812C40.4107 17.7255 40.5619 16.881 40.4765 16.0437C40.3911 15.2064 40.0725 14.4099 39.5571 13.7445C39.0417 13.0792 38.35 12.5717 37.5606 12.2797C36.7713 11.9878 35.9158 11.9231 35.0915 12.0929C34.2672 12.2628 33.507 12.6604 32.8974 13.2406C32.2877 13.8209 31.853 14.5604 31.6426 15.3753C31.5933 15.5662 31.507 15.7454 31.3885 15.9029C31.2699 16.0603 31.1216 16.1929 30.9518 16.293C30.782 16.3931 30.5942 16.4588 30.3991 16.4864C30.2039 16.5139 30.0053 16.5027 29.8145 16.4535C29.6236 16.4042 29.4444 16.3179 29.2869 16.1993C29.1295 16.0808 28.9969 15.9324 28.8968 15.7627C28.7967 15.5929 28.731 15.4051 28.7034 15.21C28.6759 15.0148 28.6871 14.8162 28.7363 14.6253C29.0284 13.4953 29.5801 12.449 30.3477 11.5697C31.1152 10.6905 32.0774 10.0025 33.1577 9.56049C34.2379 9.11851 35.4064 8.93475 36.5702 9.02383C37.7339 9.11291 38.8608 9.47237 39.8612 10.0736C40.8616 10.6748 41.7079 11.5013 42.3327 12.4871C42.9575 13.473 43.3435 14.591 43.4602 15.7524C43.5769 16.9137 43.4209 18.0862 43.0046 19.1766C42.5884 20.267 41.9234 21.2453 41.0626 22.0335C43.1022 22.9166 44.8753 24.318 46.2057 26.0985C46.3239 26.2564 46.4097 26.4362 46.4584 26.6274C46.507 26.8186 46.5174 27.0176 46.489 27.2128C46.4606 27.4081 46.394 27.5958 46.2929 27.7652C46.1918 27.9347 46.0584 28.0825 45.9001 28.2003ZM35.7976 39.7503C35.9061 39.9211 35.979 40.112 36.0118 40.3116C36.0447 40.5112 36.0368 40.7154 35.9886 40.9119C35.9405 41.1084 35.8531 41.2931 35.7318 41.455C35.6104 41.6168 35.4575 41.7525 35.2824 41.8537C35.1072 41.9549 34.9134 42.0197 34.7126 42.0441C34.5117 42.0685 34.3081 42.052 34.1138 41.9956C33.9195 41.9393 33.7386 41.8442 33.582 41.7161C33.4254 41.588 33.2964 41.4296 33.2026 41.2503C32.2577 39.6503 30.9119 38.3244 29.2981 37.4032C27.6843 36.4821 25.8583 35.9976 24.0001 35.9976C22.1419 35.9976 20.3158 36.4821 18.702 37.4032C17.0882 38.3244 15.7425 39.6503 14.7976 41.2503C14.7038 41.4296 14.5747 41.588 14.4182 41.7161C14.2616 41.8442 14.0807 41.9393 13.8864 41.9956C13.6921 42.052 13.4884 42.0685 13.2876 42.0441C13.0868 42.0197 12.8929 41.9549 12.7178 41.8537C12.5426 41.7525 12.3898 41.6168 12.2684 41.455C12.147 41.2931 12.0597 41.1084 12.0115 40.9119C11.9634 40.7154 11.9555 40.5112 11.9883 40.3116C12.0212 40.112 12.094 39.9211 12.2026 39.7503C13.6568 37.2517 15.8742 35.2853 18.5288 34.1403C17.0351 32.9967 15.9373 31.4136 15.3897 29.6138C14.8422 27.8139 14.8724 25.8877 15.4762 24.1059C16.0799 22.3241 17.2269 20.7763 18.7558 19.6801C20.2848 18.5839 22.1188 17.9943 24.0001 17.9943C25.8814 17.9943 27.7154 18.5839 29.2443 19.6801C30.7732 20.7763 31.9202 22.3241 32.524 24.1059C33.1278 25.8877 33.158 27.8139 32.6105 29.6138C32.0629 31.4136 30.9651 32.9967 29.4713 34.1403C32.126 35.2853 34.3433 37.2517 35.7976 39.7503ZM24.0001 33.0003C25.1868 33.0003 26.3468 32.6484 27.3335 31.9892C28.3202 31.3299 29.0892 30.3928 29.5434 29.2964C29.9975 28.2001 30.1163 26.9937 29.8848 25.8298C29.6533 24.6659 29.0818 23.5968 28.2427 22.7577C27.4036 21.9186 26.3345 21.3471 25.1706 21.1156C24.0067 20.8841 22.8003 21.0029 21.704 21.4571C20.6076 21.9112 19.6706 22.6802 19.0113 23.6669C18.352 24.6536 18.0001 25.8136 18.0001 27.0003C18.0001 28.5916 18.6322 30.1178 19.7574 31.243C20.8827 32.3682 22.4088 33.0003 24.0001 33.0003ZM13.5001 22.5003C13.5001 22.1025 13.342 21.721 13.0607 21.4397C12.7794 21.1584 12.3979 21.0003 12.0001 21.0003C11.1584 21.0003 10.3337 20.7642 9.61952 20.3188C8.90534 19.8735 8.33036 19.2369 7.95989 18.4812C7.58942 17.7255 7.4383 16.881 7.5237 16.0437C7.60911 15.2064 7.92761 14.4099 8.44303 13.7445C8.95845 13.0792 9.65014 12.5717 10.4395 12.2797C11.2289 11.9878 12.0843 11.9231 12.9086 12.0929C13.733 12.2628 14.4931 12.6604 15.1028 13.2406C15.7124 13.8209 16.1472 14.5604 16.3576 15.3753C16.457 15.7607 16.7055 16.0908 17.0484 16.293C17.3912 16.4952 17.8003 16.5529 18.1857 16.4535C18.5711 16.354 18.9012 16.1055 19.1034 15.7627C19.3056 15.4198 19.3633 15.0107 19.2638 14.6253C18.9718 13.4953 18.42 12.449 17.6525 11.5697C16.8849 10.6905 15.9227 10.0025 14.8425 9.56049C13.7622 9.11851 12.5938 8.93475 11.43 9.02383C10.2662 9.11291 9.13933 9.47237 8.13894 10.0736C7.13855 10.6748 6.29229 11.5013 5.66749 12.4871C5.0427 13.473 4.65661 14.591 4.53996 15.7524C4.42331 16.9137 4.5793 18.0862 4.99554 19.1766C5.41177 20.267 6.07676 21.2453 6.93758 22.0335C4.89999 22.9174 3.12892 24.3188 1.80008 26.0985C1.56114 26.4167 1.45841 26.8169 1.51449 27.2109C1.57058 27.6049 1.78088 27.9605 2.09914 28.1994C2.4174 28.4383 2.81755 28.5411 3.21155 28.485C3.60555 28.4289 3.96114 28.2186 4.20008 27.9003C5.10418 26.6851 6.28098 25.6991 7.63575 25.0217C8.99052 24.3443 10.4854 23.9945 12.0001 24.0003C12.3979 24.0003 12.7794 23.8423 13.0607 23.561C13.342 23.2797 13.5001 22.8982 13.5001 22.5003Z" fill="#C5F529"/>
</svg>
