<svg width="114" height="114" viewBox="0 0 114 114" fill="none" xmlns="http://www.w3.org/2000/svg">
<path d="M56.875 0C45.6262 0 34.63 3.33566 25.277 9.58517C15.9239 15.8347 8.63411 24.7173 4.32938 35.1099C0.0246431 45.5024 -1.10167 56.9381 1.09286 67.9708C3.2874 79.0034 8.70422 89.1376 16.6583 97.0917C24.6124 105.046 34.7466 110.463 45.7793 112.657C56.8119 114.852 68.2476 113.725 78.6401 109.421C89.0327 105.116 97.9154 97.8261 104.165 88.4731C110.414 79.12 113.75 68.1238 113.75 56.875C113.734 41.7957 107.737 27.3386 97.0741 16.6759C86.4115 6.01321 71.9543 0.015924 56.875 0ZM81.8453 46.8453L51.2203 77.4703C50.814 77.8771 50.3315 78.1998 49.8004 78.42C49.2693 78.6401 48.7 78.7534 48.125 78.7534C47.5501 78.7534 46.9808 78.6401 46.4497 78.42C45.9185 78.1998 45.436 77.8771 45.0297 77.4703L31.9047 64.3453C31.0838 63.5244 30.6226 62.411 30.6226 61.25C30.6226 60.089 31.0838 58.9756 31.9047 58.1547C32.7256 57.3338 33.8391 56.8726 35 56.8726C36.161 56.8726 37.2744 57.3338 38.0953 58.1547L48.125 68.1898L75.6547 40.6547C76.0612 40.2482 76.5438 39.9258 77.0749 39.7058C77.6059 39.4858 78.1752 39.3726 78.75 39.3726C79.3249 39.3726 79.8941 39.4858 80.4252 39.7058C80.9563 39.9258 81.4389 40.2482 81.8453 40.6547C82.2518 41.0612 82.5743 41.5437 82.7942 42.0748C83.0142 42.6059 83.1275 43.1751 83.1275 43.75C83.1275 44.3249 83.0142 44.8941 82.7942 45.4252C82.5743 45.9563 82.2518 46.4388 81.8453 46.8453Z" fill="#C5F529"/>
</svg>
