<svg width="48" height="48" viewBox="0 0 48 48" fill="none" xmlns="http://www.w3.org/2000/svg">
<path d="M24 4.5C20.1433 4.5 16.3731 5.64366 13.1664 7.78634C9.95963 9.92903 7.46027 12.9745 5.98436 16.5377C4.50845 20.1008 4.12228 24.0216 4.8747 27.8043C5.62711 31.5869 7.4843 35.0615 10.2114 37.7886C12.9386 40.5157 16.4131 42.3729 20.1957 43.1253C23.9784 43.8777 27.8992 43.4916 31.4623 42.0156C35.0255 40.5397 38.071 38.0404 40.2137 34.8336C42.3564 31.6269 43.5 27.8567 43.5 24C43.4945 18.83 41.4383 13.8732 37.7826 10.2174C34.1268 6.56167 29.1701 4.50546 24 4.5ZM24 40.5C20.7366 40.5 17.5465 39.5323 14.8331 37.7192C12.1197 35.9062 10.0048 33.3293 8.756 30.3143C7.50715 27.2993 7.1804 23.9817 7.81705 20.781C8.45371 17.5803 10.0252 14.6403 12.3327 12.3327C14.6403 10.0252 17.5803 8.4537 20.781 7.81704C23.9817 7.18039 27.2993 7.50714 30.3143 8.75599C33.3293 10.0048 35.9062 12.1197 37.7193 14.8331C39.5323 17.5465 40.5 20.7366 40.5 24C40.495 28.3745 38.7551 32.5685 35.6618 35.6618C32.5685 38.7551 28.3746 40.495 24 40.5ZM15 20.25C15 19.805 15.132 19.37 15.3792 19C15.6264 18.63 15.9778 18.3416 16.389 18.1713C16.8001 18.001 17.2525 17.9564 17.689 18.0432C18.1254 18.13 18.5263 18.3443 18.841 18.659C19.1557 18.9737 19.37 19.3746 19.4568 19.811C19.5436 20.2475 19.499 20.6999 19.3287 21.111C19.1584 21.5222 18.8701 21.8736 18.5 22.1208C18.13 22.368 17.695 22.5 17.25 22.5C16.6533 22.5 16.081 22.2629 15.659 21.841C15.2371 21.419 15 20.8467 15 20.25ZM33 20.25C33 20.695 32.868 21.13 32.6208 21.5C32.3736 21.87 32.0222 22.1584 31.611 22.3287C31.1999 22.499 30.7475 22.5436 30.3111 22.4568C29.8746 22.37 29.4737 22.1557 29.159 21.841C28.8444 21.5263 28.6301 21.1254 28.5432 20.689C28.4564 20.2525 28.501 19.8001 28.6713 19.389C28.8416 18.9778 29.13 18.6264 29.5 18.3792C29.87 18.132 30.305 18 30.75 18C31.3467 18 31.919 18.2371 32.341 18.659C32.763 19.081 33 19.6533 33 20.25ZM32.7975 32.25C32.906 32.4207 32.9789 32.6116 33.0117 32.8113C33.0446 33.0109 33.0367 33.2151 32.9886 33.4116C32.9404 33.6081 32.8531 33.7928 32.7317 33.9547C32.6103 34.1165 32.4574 34.2521 32.2823 34.3534C32.1072 34.4546 31.9133 34.5194 31.7125 34.5438C31.5117 34.5682 31.308 34.5517 31.1137 34.4953C30.9194 34.4389 30.7385 34.3439 30.5819 34.2158C30.4253 34.0877 30.2963 33.9293 30.2025 33.75C28.8019 31.3294 26.6006 30 24 30C21.3994 30 19.1981 31.3312 17.7975 33.75C17.7037 33.9293 17.5747 34.0877 17.4181 34.2158C17.2615 34.3439 17.0806 34.4389 16.8863 34.4953C16.692 34.5517 16.4883 34.5682 16.2875 34.5438C16.0867 34.5194 15.8929 34.4546 15.7177 34.3534C15.5426 34.2521 15.3897 34.1165 15.2683 33.9547C15.147 33.7928 15.0596 33.6081 15.0115 33.4116C14.9633 33.2151 14.9554 33.0109 14.9883 32.8113C15.0211 32.6116 15.094 32.4207 15.2025 32.25C17.1319 28.9144 20.3381 27 24 27C27.6619 27 30.8681 28.9125 32.7975 32.25Z" fill="#C5F529"/>
</svg>
