<svg width="48" height="48" viewBox="0 0 48 48" fill="none" xmlns="http://www.w3.org/2000/svg">
<path d="M20.0964 4.56184C19.4176 4.41893 18.7102 4.51782 18.0966 4.84139C17.483 5.16496 17.0018 5.69285 16.7364 6.33372L16.7251 6.35997L4.7251 36.3468C4.53511 36.8032 4.46081 37.2993 4.50881 37.7913C4.5568 38.2832 4.72561 38.7557 5.00021 39.1667C5.27482 39.5777 5.64672 39.9144 6.08285 40.147C6.51897 40.3796 7.00582 40.5009 7.5001 40.5H19.5001C20.2957 40.5 21.0588 40.1839 21.6214 39.6213C22.184 39.0587 22.5001 38.2956 22.5001 37.5V7.49997C22.505 6.80676 22.2674 6.13364 21.8285 5.5971C21.3895 5.06056 20.7768 4.69435 20.0964 4.56184ZM19.5001 37.5H7.5001L7.51135 37.4718L19.5001 7.49997V37.5ZM43.2695 36.3468L31.2695 6.35997L31.2582 6.33372C30.9869 5.69944 30.5052 5.17807 29.8943 4.85745C29.2834 4.53683 28.5807 4.43654 27.9045 4.57349C27.2284 4.71044 26.6201 5.07626 26.1821 5.60931C25.7441 6.14237 25.5033 6.81008 25.5001 7.49997V37.5C25.5001 38.2956 25.8162 39.0587 26.3788 39.6213C26.9414 40.1839 27.7045 40.5 28.5001 40.5H40.5001C40.9941 40.5003 41.4805 40.3786 41.9161 40.1457C42.3517 39.9128 42.7231 39.576 42.9973 39.1651C43.2715 38.7542 43.4399 38.282 43.4877 37.7903C43.5355 37.2987 43.4612 36.8029 43.2714 36.3468H43.2695ZM28.5001 37.5V7.49997L40.487 37.47L40.4982 37.4981L28.5001 37.5Z" fill="#C5F529"/>
</svg>
