<svg width="48" height="48" viewBox="0 0 48 48" fill="none" xmlns="http://www.w3.org/2000/svg">
<path d="M13.5 16.4999V7.49992C13.5 7.1021 13.6581 6.72057 13.9394 6.43926C14.2207 6.15796 14.6022 5.99992 15 5.99992C15.3978 5.99992 15.7794 6.15796 16.0607 6.43926C16.342 6.72057 16.5 7.1021 16.5 7.49992V16.4999C16.5 16.8977 16.342 17.2793 16.0607 17.5606C15.7794 17.8419 15.3978 17.9999 15 17.9999C14.6022 17.9999 14.2207 17.8419 13.9394 17.5606C13.6581 17.2793 13.5 16.8977 13.5 16.4999ZM40.5 7.49992V41.9999C40.5 42.3978 40.342 42.7793 40.0607 43.0606C39.7794 43.3419 39.3978 43.4999 39 43.4999C38.6022 43.4999 38.2207 43.3419 37.9394 43.0606C37.658 42.7793 37.5 42.3978 37.5 41.9999V32.9999H28.5C28.1022 32.9999 27.7207 32.8419 27.4394 32.5606C27.158 32.2793 27 31.8977 27 31.4999C27.0697 27.9068 27.5235 24.3315 28.3538 20.8349C30.1875 13.243 33.6638 8.1543 38.4094 6.1218C38.6375 6.02409 38.8863 5.9845 39.1334 6.00657C39.3806 6.02864 39.6184 6.11168 39.8256 6.24825C40.0328 6.38482 40.2028 6.57065 40.3205 6.7891C40.4382 7.00755 40.4999 7.25178 40.5 7.49992ZM37.5 10.1062C31.4681 14.713 30.2869 25.9349 30.0563 29.9999H37.5V10.1062ZM22.4794 7.2543C22.45 7.05734 22.3817 6.8682 22.2785 6.69791C22.1752 6.52763 22.0391 6.3796 21.8781 6.26248C21.717 6.14535 21.5342 6.06146 21.3404 6.01571C21.1466 5.96996 20.9456 5.96326 20.7492 5.996C20.5528 6.02873 20.3648 6.10026 20.1963 6.20639C20.0278 6.31253 19.8822 6.45116 19.7678 6.61419C19.6534 6.77721 19.5727 6.96138 19.5303 7.15595C19.4878 7.35051 19.4846 7.55158 19.5206 7.74742L21 16.618C21 18.2093 20.3679 19.7355 19.2427 20.8607C18.1174 21.9859 16.5913 22.618 15 22.618C13.4087 22.618 11.8826 21.9859 10.7574 20.8607C9.63216 19.7355 9.00001 18.2093 9.00001 16.618L10.4775 7.74742C10.5136 7.55158 10.5103 7.35051 10.4679 7.15595C10.4255 6.96138 10.3447 6.77721 10.2304 6.61419C10.116 6.45116 9.97032 6.31253 9.80182 6.20639C9.63332 6.10026 9.44538 6.02873 9.24895 5.996C9.05252 5.96326 8.85154 5.96996 8.65773 6.01571C8.46391 6.06146 8.28115 6.14535 8.1201 6.26248C7.95905 6.3796 7.82293 6.52763 7.71969 6.69791C7.61645 6.8682 7.54814 7.05734 7.51876 7.2543L6.01876 16.2543C6.00593 16.3355 5.99966 16.4177 6.00001 16.4999C6.00301 18.6258 6.75736 20.6822 8.12977 22.3058C9.50217 23.9293 11.4043 25.0155 13.5 25.3724V41.9999C13.5 42.3978 13.6581 42.7793 13.9394 43.0606C14.2207 43.3419 14.6022 43.4999 15 43.4999C15.3978 43.4999 15.7794 43.3419 16.0607 43.0606C16.342 42.7793 16.5 42.3978 16.5 41.9999V25.3724C18.5957 25.0155 20.4979 23.9293 21.8703 22.3058C23.2427 20.6822 23.997 18.6258 24 16.4999C23.9997 16.4176 23.9929 16.3355 23.9794 16.2543L22.4794 7.2543Z" fill="#C5F529"/>
</svg>
