<svg width="48" height="48" viewBox="0 0 48 48" fill="none" xmlns="http://www.w3.org/2000/svg">
<path d="M44.9999 18C44.9999 18.3978 44.8419 18.7794 44.5606 19.0607C44.2793 19.342 43.8977 19.5 43.4999 19.5H40.4999V22.5C40.4999 22.8978 40.3419 23.2794 40.0606 23.5607C39.7793 23.842 39.3977 24 38.9999 24C38.6021 24 38.2205 23.842 37.9392 23.5607C37.6579 23.2794 37.4999 22.8978 37.4999 22.5V19.5H34.4999C34.1021 19.5 33.7205 19.342 33.4392 19.0607C33.1579 18.7794 32.9999 18.3978 32.9999 18C32.9999 17.6022 33.1579 17.2206 33.4392 16.9393C33.7205 16.658 34.1021 16.5 34.4999 16.5H37.4999V13.5C37.4999 13.1022 37.6579 12.7206 37.9392 12.4393C38.2205 12.158 38.6021 12 38.9999 12C39.3977 12 39.7793 12.158 40.0606 12.4393C40.3419 12.7206 40.4999 13.1022 40.4999 13.5V16.5H43.4999C43.8977 16.5 44.2793 16.658 44.5606 16.9393C44.8419 17.2206 44.9999 17.6022 44.9999 18ZM26.9999 10.5H28.4999V12C28.4999 12.3978 28.6579 12.7794 28.9392 13.0607C29.2205 13.342 29.6021 13.5 29.9999 13.5C30.3977 13.5 30.7793 13.342 31.0606 13.0607C31.3419 12.7794 31.4999 12.3978 31.4999 12V10.5H32.9999C33.3977 10.5 33.7793 10.342 34.0606 10.0607C34.3419 9.77936 34.4999 9.39782 34.4999 9C34.4999 8.60218 34.3419 8.22064 34.0606 7.93934C33.7793 7.65804 33.3977 7.5 32.9999 7.5H31.4999V6C31.4999 5.60218 31.3419 5.22064 31.0606 4.93934C30.7793 4.65804 30.3977 4.5 29.9999 4.5C29.6021 4.5 29.2205 4.65804 28.9392 4.93934C28.6579 5.22064 28.4999 5.60218 28.4999 6V7.5H26.9999C26.6021 7.5 26.2205 7.65804 25.9392 7.93934C25.6579 8.22064 25.4999 8.60218 25.4999 9C25.4999 9.39782 25.6579 9.77936 25.9392 10.0607C26.2205 10.342 26.6021 10.5 26.9999 10.5ZM40.6443 28.6875C40.8189 28.8908 40.9358 29.1371 40.983 29.4009C41.0301 29.6647 41.0058 29.9363 40.9124 30.1875C39.8716 33.0261 38.1325 35.5567 35.8557 37.5459C33.5789 39.5351 30.8377 40.9188 27.8851 41.5692C24.9325 42.2197 21.8637 42.1159 18.9618 41.2675C16.0599 40.4191 13.4184 38.8535 11.2812 36.715C9.14392 34.5766 7.57975 31.9342 6.73302 29.0318C5.88629 26.1294 5.78427 23.0605 6.43638 20.1083C7.08849 17.1561 8.47371 14.4157 10.4642 12.14C12.4547 9.86436 14.9864 8.12673 17.8255 7.0875C18.0754 6.99598 18.3452 6.97259 18.6071 7.01973C18.869 7.06687 19.1137 7.18285 19.316 7.35576C19.5183 7.52867 19.6709 7.75229 19.7583 8.00367C19.8456 8.25506 19.8645 8.52515 19.813 8.78625C19.2874 11.4468 19.4251 14.1959 20.214 16.7906C21.0029 19.3853 22.4188 21.7458 24.3365 23.6634C26.2541 25.5811 28.6146 26.997 31.2093 27.7859C33.804 28.5748 36.5531 28.7125 39.2136 28.1869C39.4751 28.1358 39.7454 28.1552 39.9968 28.2432C40.2483 28.3312 40.4717 28.4845 40.6443 28.6875ZM37.0086 31.4775C36.673 31.4944 36.3355 31.5037 35.9999 31.5037C30.8292 31.4983 25.8719 29.4416 22.216 25.785C18.5601 22.1284 16.5044 17.1707 16.4999 12C16.4999 11.6644 16.4999 11.3269 16.5261 10.9913C14.5304 12.1397 12.8258 13.7322 11.5445 15.6454C10.2631 17.5586 9.43946 19.7411 9.13728 22.0238C8.83509 24.3065 9.06249 26.6282 9.80187 28.8089C10.5412 30.9896 11.7727 32.9708 13.4009 34.599C15.0291 36.2272 17.0103 37.4587 19.191 38.198C21.3717 38.9374 23.6934 39.1648 25.9761 38.8626C28.2588 38.5604 30.4413 37.7368 32.3545 36.4554C34.2677 35.1741 35.8602 33.4695 37.0086 31.4738V31.4775Z" fill="#C5F529"/>
</svg>
