<svg width="47" height="47" viewBox="0 0 47 47" fill="none" xmlns="http://www.w3.org/2000/svg">
<path d="M42.9732 25.1288C42.6545 28.8338 41.2843 32.3707 39.0238 35.3233C36.7632 38.276 33.7064 40.5216 30.213 41.796C26.7196 43.0704 22.9348 43.3206 19.304 42.5171C15.6732 41.7135 12.3475 39.8897 9.71801 37.2603C7.08854 34.6308 5.26476 31.305 4.46122 27.6742C3.65769 24.0435 3.90784 20.2587 5.18224 16.7653C6.45664 13.2718 8.70227 10.215 11.6549 7.95452C14.6076 5.69399 18.1445 4.32378 21.8494 4.0051C22.0464 3.98885 22.2447 4.01155 22.4329 4.07192C22.6211 4.13229 22.7956 4.22913 22.9463 4.35693C23.0971 4.48473 23.2212 4.64097 23.3116 4.81674C23.402 4.99251 23.4569 5.18436 23.4732 5.38135C23.4894 5.57833 23.4667 5.77658 23.4064 5.96479C23.346 6.153 23.2491 6.32747 23.1213 6.47825C22.9935 6.62903 22.8373 6.75316 22.6615 6.84356C22.4858 6.93395 22.2939 6.98885 22.0969 7.0051C18.9612 7.27452 15.9676 8.43397 13.4684 10.347C10.9692 12.2601 9.06842 14.8471 7.98966 17.8038C6.91091 20.7605 6.69908 23.9638 7.37909 27.0368C8.0591 30.1098 9.60266 32.9246 11.8282 35.1501C14.0537 37.3756 16.8685 38.9192 19.9415 39.5992C23.0145 40.2792 26.2178 40.0674 29.1744 38.9886C32.1311 37.9099 34.7182 36.0091 36.6312 33.5099C38.5443 31.0107 39.7038 28.0171 39.9732 24.8813C40.006 24.4835 40.1955 24.115 40.5 23.8569C40.8045 23.5988 41.1991 23.4723 41.5969 23.5051C41.9948 23.5379 42.3633 23.7274 42.6213 24.0319C42.8794 24.3365 43.006 24.731 42.9732 25.1288ZM21.9732 13.0051V23.5051C21.9732 23.9029 22.1312 24.2845 22.4125 24.5658C22.6938 24.8471 23.0754 25.0051 23.4732 25.0051H33.9732C34.371 25.0051 34.7525 24.8471 35.0338 24.5658C35.3151 24.2845 35.4732 23.9029 35.4732 23.5051C35.4732 23.1073 35.3151 22.7257 35.0338 22.4444C34.7525 22.1631 34.371 22.0051 33.9732 22.0051H24.9732V13.0051C24.9732 12.6073 24.8151 12.2257 24.5338 11.9444C24.2525 11.6631 23.871 11.5051 23.4732 11.5051C23.0754 11.5051 22.6938 11.6631 22.4125 11.9444C22.1312 12.2257 21.9732 12.6073 21.9732 13.0051ZM29.4732 8.5051C29.9182 8.5051 30.3532 8.37314 30.7232 8.1259C31.0932 7.87867 31.3816 7.52727 31.5519 7.11613C31.7222 6.705 31.7668 6.2526 31.6799 5.81614C31.5931 5.37969 31.3788 4.97877 31.0642 4.66411C30.7495 4.34944 30.3486 4.13515 29.9121 4.04833C29.4757 3.96151 29.0233 4.00607 28.6121 4.17637C28.201 4.34666 27.8496 4.63505 27.6024 5.00506C27.3551 5.37507 27.2232 5.81009 27.2232 6.2551C27.2232 6.85183 27.4602 7.42413 27.8822 7.84609C28.3041 8.26804 28.8764 8.5051 29.4732 8.5051ZM36.2232 13.0051C36.6682 13.0051 37.1032 12.8731 37.4732 12.6259C37.8432 12.3787 38.1316 12.0273 38.3019 11.6161C38.4722 11.205 38.5168 10.7526 38.4299 10.3161C38.3431 9.87969 38.1288 9.47877 37.8142 9.16411C37.4995 8.84944 37.0986 8.63515 36.6621 8.54833C36.2257 8.46151 35.7733 8.50607 35.3621 8.67637C34.951 8.84666 34.5996 9.13505 34.3524 9.50506C34.1051 9.87507 33.9732 10.3101 33.9732 10.7551C33.9732 11.3518 34.2102 11.9241 34.6322 12.3461C35.0541 12.768 35.6264 13.0051 36.2232 13.0051ZM40.7232 19.7551C41.1682 19.7551 41.6032 19.6231 41.9732 19.3759C42.3432 19.1287 42.6316 18.7773 42.8019 18.3661C42.9722 17.955 43.0168 17.5026 42.9299 17.0661C42.8431 16.6297 42.6288 16.2288 42.3142 15.9141C41.9995 15.5994 41.5986 15.3851 41.1621 15.2983C40.7257 15.2115 40.2733 15.2561 39.8621 15.4264C39.451 15.5967 39.0996 15.8851 38.8524 16.2551C38.6051 16.6251 38.4732 17.0601 38.4732 17.5051C38.4732 18.1018 38.7102 18.6741 39.1322 19.0961C39.5541 19.518 40.1264 19.7551 40.7232 19.7551Z" fill="#C5F529"/>
</svg>
