<svg width="48" height="48" viewBox="0 0 48 48" fill="none" xmlns="http://www.w3.org/2000/svg">
<path d="M25.5 20.25C25.5 19.2116 25.1921 18.1966 24.6152 17.3333C24.0383 16.4699 23.2184 15.797 22.2591 15.3996C21.2998 15.0023 20.2442 14.8983 19.2258 15.1009C18.2074 15.3034 17.2719 15.8035 16.5377 16.5377C15.8035 17.2719 15.3034 18.2074 15.1009 19.2258C14.8983 20.2442 15.0023 21.2998 15.3996 22.2591C15.797 23.2184 16.4699 24.0383 17.3333 24.6152C18.1966 25.1921 19.2116 25.5 20.25 25.5C21.6424 25.5 22.9777 24.9469 23.9623 23.9623C24.9469 22.9777 25.5 21.6424 25.5 20.25ZM20.25 22.5C19.805 22.5 19.37 22.368 19 22.1208C18.63 21.8736 18.3416 21.5222 18.1713 21.111C18.001 20.6999 17.9564 20.2475 18.0432 19.811C18.13 19.3746 18.3443 18.9737 18.659 18.659C18.9737 18.3443 19.3746 18.13 19.811 18.0432C20.2475 17.9564 20.6999 18.001 21.111 18.1713C21.5222 18.3416 21.8736 18.63 22.1208 19C22.368 19.37 22.5 19.805 22.5 20.25C22.5 20.8467 22.2629 21.419 21.841 21.841C21.419 22.2629 20.8467 22.5 20.25 22.5ZM33 21C33.5933 21 34.1734 21.1759 34.6667 21.5056C35.1601 21.8352 35.5446 22.3038 35.7716 22.8519C35.9987 23.4001 36.0581 24.0033 35.9424 24.5853C35.8266 25.1672 35.5409 25.7018 35.1213 26.1213C34.7018 26.5409 34.1672 26.8266 33.5853 26.9424C33.0033 27.0581 32.4001 26.9987 31.8519 26.7716C31.3038 26.5446 30.8352 26.1601 30.5056 25.6667C30.1759 25.1734 30 24.5933 30 24C30 23.2044 30.3161 22.4413 30.8787 21.8787C31.4413 21.3161 32.2044 21 33 21ZM27 33C27 33.5933 26.8241 34.1734 26.4944 34.6667C26.1648 35.1601 25.6962 35.5446 25.1481 35.7716C24.5999 35.9987 23.9967 36.0581 23.4147 35.9424C22.8328 35.8266 22.2982 35.5409 21.8787 35.1213C21.4591 34.7018 21.1734 34.1672 21.0576 33.5853C20.9419 33.0033 21.0013 32.4001 21.2284 31.8519C21.4554 31.3038 21.8399 30.8352 22.3333 30.5056C22.8266 30.1759 23.4067 30 24 30C24.7956 30 25.5587 30.3161 26.1213 30.8787C26.6839 31.4413 27 32.2044 27 33ZM45 22.5H41.9362C41.6275 18.7725 40.1594 15.2352 37.7381 12.3844L40.0612 10.0612C40.3427 9.77979 40.5008 9.39805 40.5008 9C40.5008 8.60195 40.3427 8.22021 40.0612 7.93875C39.7798 7.65729 39.398 7.49917 39 7.49917C38.602 7.49917 38.2202 7.65729 37.9388 7.93875L35.625 10.2619C32.7717 7.83877 29.2308 6.37062 25.5 6.06375V3C25.5 2.60218 25.342 2.22064 25.0607 1.93934C24.7794 1.65804 24.3978 1.5 24 1.5C23.6022 1.5 23.2206 1.65804 22.9393 1.93934C22.658 2.22064 22.5 2.60218 22.5 3V6.06375C18.7725 6.37253 15.2352 7.84057 12.3844 10.2619L10.0612 7.93875C9.77979 7.65729 9.39805 7.49917 9 7.49917C8.60195 7.49917 8.22021 7.65729 7.93875 7.93875C7.65729 8.22021 7.49917 8.60195 7.49917 9C7.49917 9.39805 7.65729 9.77979 7.93875 10.0612L10.2619 12.3844C7.83877 15.2377 6.37062 18.7786 6.06375 22.5094H3C2.60218 22.5094 2.22064 22.6674 1.93934 22.9487C1.65804 23.23 1.5 23.6116 1.5 24.0094C1.5 24.4072 1.65804 24.7887 1.93934 25.07C2.22064 25.3513 2.60218 25.5094 3 25.5094H6.06375C6.37253 29.2369 7.84057 32.7742 10.2619 35.625L7.93875 37.9388C7.65729 38.2202 7.49917 38.602 7.49917 39C7.49917 39.398 7.65729 39.7798 7.93875 40.0612C8.22021 40.3427 8.60195 40.5008 9 40.5008C9.39805 40.5008 9.77979 40.3427 10.0612 40.0612L12.3844 37.7381C15.2377 40.1612 18.7786 41.6294 22.5094 41.9362V45C22.5094 45.3978 22.6674 45.7794 22.9487 46.0607C23.23 46.342 23.6116 46.5 24.0094 46.5C24.4072 46.5 24.7887 46.342 25.07 46.0607C25.3513 45.7794 25.5094 45.3978 25.5094 45V41.9362C29.2369 41.6275 32.7742 40.1594 35.625 37.7381L37.9481 40.0612C38.2296 40.3427 38.6113 40.5008 39.0094 40.5008C39.4074 40.5008 39.7892 40.3427 40.0706 40.0612C40.3521 39.7798 40.5102 39.398 40.5102 39C40.5102 38.602 40.3521 38.2202 40.0706 37.9388L37.7381 35.625C40.1612 32.7717 41.6294 29.2308 41.9362 25.5H45C45.3978 25.5 45.7794 25.342 46.0607 25.0607C46.342 24.7794 46.5 24.3978 46.5 24C46.5 23.6022 46.342 23.2206 46.0607 22.9393C45.7794 22.658 45.3978 22.5 45 22.5ZM24 39C21.0333 39 18.1332 38.1203 15.6664 36.472C13.1997 34.8238 11.2771 32.4811 10.1418 29.7402C9.00649 26.9994 8.70944 23.9834 9.28822 21.0736C9.867 18.1639 11.2956 15.4912 13.3934 13.3934C15.4912 11.2956 18.1639 9.867 21.0736 9.28822C23.9834 8.70944 26.9994 9.00649 29.7402 10.1418C32.4811 11.2771 34.8238 13.1997 36.472 15.6664C38.1203 18.1332 39 21.0333 39 24C38.9955 27.9769 37.4137 31.7896 34.6017 34.6017C31.7896 37.4137 27.9769 38.9955 24 39Z" fill="#C5F529"/>
</svg>
