<svg width="48" height="48" viewBox="0 0 48 48" fill="none" xmlns="http://www.w3.org/2000/svg">
<path d="M32.625 8.9527C30.309 6.2779 27.7023 3.8693 24.8531 1.77145C24.6009 1.59477 24.3004 1.5 23.9925 1.5C23.6846 1.5 23.3841 1.59477 23.1319 1.77145C20.288 3.87018 17.6863 6.27874 15.375 8.9527C10.2206 14.8721 7.5 21.1121 7.5 26.9996C7.5 31.3757 9.23839 35.5725 12.3327 38.6668C15.4271 41.7612 19.6239 43.4996 24 43.4996C28.3761 43.4996 32.5729 41.7612 35.6673 38.6668C38.7616 35.5725 40.5 31.3757 40.5 26.9996C40.5 21.1121 37.7794 14.8721 32.625 8.9527ZM24 40.4996C20.4208 40.4956 16.9893 39.072 14.4584 36.5411C11.9276 34.0103 10.504 30.5788 10.5 26.9996C10.5 16.269 20.9006 7.31208 24 4.87458C27.0994 7.31208 37.5 16.2652 37.5 26.9996C37.496 30.5788 36.0724 34.0103 33.5416 36.5411C31.0107 39.072 27.5792 40.4956 24 40.4996ZM34.4794 28.7508C34.0904 30.9234 33.0452 32.9246 31.4843 34.4851C29.9235 36.0456 27.922 37.0905 25.7494 37.479C25.6669 37.4922 25.5835 37.4991 25.5 37.4996C25.1237 37.4995 24.7613 37.358 24.4844 37.1031C24.2076 36.8483 24.0367 36.4987 24.0055 36.1238C23.9744 35.7488 24.0853 35.3758 24.3163 35.0788C24.5472 34.7818 24.8814 34.5824 25.2525 34.5202C28.3594 33.9971 30.9956 31.3608 31.5225 28.2483C31.5891 27.856 31.8089 27.5062 32.1335 27.2758C32.458 27.0455 32.8608 26.9536 33.2531 27.0202C33.6455 27.0868 33.9953 27.3066 34.2256 27.6312C34.4559 27.9557 34.5479 28.3585 34.4812 28.7508H34.4794Z" fill="#C5F529"/>
</svg>
