<svg width="48" height="48" viewBox="0 0 48 48" fill="none" xmlns="http://www.w3.org/2000/svg">
<g clip-path="url(#clip0_261_14470)">
<path d="M48 25.4997C48 25.8975 47.842 26.279 47.5607 26.5603C47.2794 26.8417 46.8978 26.9997 46.5 26.9997H37.5C37.1022 26.9997 36.7206 26.8417 36.4393 26.5603C36.158 26.279 36 25.8975 36 25.4997C36 25.1019 36.158 24.7203 36.4393 24.439C36.7206 24.1577 37.1022 23.9997 37.5 23.9997H46.5C46.8978 23.9997 47.2794 24.1577 47.5607 24.439C47.842 24.7203 48 25.1019 48 25.4997ZM37.1494 36.5341C37.4055 36.8389 37.53 37.233 37.4955 37.6296C37.4611 38.0263 37.2705 38.393 36.9656 38.6491C36.6608 38.9052 36.2667 39.0297 35.8701 38.9952C35.4734 38.9608 35.1067 38.7701 34.8506 38.4653C31.0781 33.9728 25.8919 31.4997 20.25 31.4997C14.6081 31.4997 9.42188 33.9728 5.64938 38.4653C5.39328 38.7699 5.02667 38.9603 4.63021 38.9946C4.23374 39.0288 3.8399 38.9042 3.53531 38.6481C3.23073 38.392 3.04036 38.0254 3.00607 37.629C2.97179 37.2325 3.0964 36.8386 3.3525 36.5341C6.15375 33.2003 9.6375 30.8322 13.5094 29.5647C11.1579 28.1001 9.34748 25.9096 8.35188 23.3245C7.35628 20.7393 7.22972 17.9003 7.99134 15.2368C8.75297 12.5733 10.3613 10.2304 12.5731 8.5624C14.7849 6.89442 17.4798 5.99219 20.25 5.99219C23.0202 5.99219 25.7151 6.89442 27.9269 8.5624C30.1387 10.2304 31.747 12.5733 32.5087 15.2368C33.2703 17.9003 33.1437 20.7393 32.1481 23.3245C31.1525 25.9096 29.3421 28.1001 26.9906 29.5647C30.8625 30.8322 34.3463 33.2003 37.1494 36.5341ZM20.25 28.4997C22.1784 28.4997 24.0634 27.9279 25.6668 26.8565C27.2702 25.7852 28.5199 24.2624 29.2578 22.4809C29.9958 20.6993 30.1889 18.7389 29.8127 16.8476C29.4365 14.9562 28.5079 13.219 27.1443 11.8554C25.7807 10.4918 24.0434 9.56324 22.1521 9.18703C20.2608 8.81082 18.3004 9.00391 16.5188 9.74186C14.7373 10.4798 13.2145 11.7295 12.1432 13.3329C11.0718 14.9363 10.5 16.8213 10.5 18.7497C10.503 21.3346 11.5312 23.8129 13.359 25.6407C15.1868 27.4685 17.6651 28.4967 20.25 28.4997Z" fill="#C5F529"/>
</g>
<defs>
<clipPath id="clip0_261_14470">
<rect width="48" height="48" fill="white"/>
</clipPath>
</defs>
</svg>
