<svg width="54" height="54" viewBox="0 0 54 54" fill="none" xmlns="http://www.w3.org/2000/svg">
<path d="M9.02576 47.0654H44.9758C45.5597 47.0653 46.1336 46.9137 46.6414 46.6255C47.1492 46.3372 47.5735 45.9222 47.8728 45.4209C48.1722 44.9196 48.3364 44.3492 48.3494 43.7655C48.3624 43.1817 48.2237 42.6046 47.9469 42.0905L29.9729 8.70961C28.6978 6.34289 25.3038 6.34289 24.0287 8.70961L6.05471 42.0905C5.77791 42.6046 5.63922 43.1817 5.6522 43.7655C5.66518 44.3492 5.82938 44.9196 6.12876 45.4209C6.42813 45.9222 6.85244 46.3372 7.36022 46.6255C7.868 46.9137 8.44187 47.0653 9.02576 47.0654Z" stroke="#C5F529" stroke-width="3.375" stroke-linecap="round" stroke-linejoin="round"/>
<path d="M26.394 20.6078L26.9994 33.475L27.6037 20.6131C27.6074 20.5308 27.5943 20.4487 27.5653 20.3717C27.5362 20.2947 27.4917 20.2245 27.4346 20.1652C27.3774 20.106 27.3088 20.0591 27.2328 20.0272C27.1569 19.9954 27.0753 19.9795 26.993 19.9803C26.9122 19.981 26.8323 19.998 26.7581 20.0302C26.6839 20.0624 26.6169 20.1091 26.561 20.1676C26.5052 20.2261 26.4617 20.2952 26.433 20.3708C26.4043 20.4464 26.391 20.527 26.394 20.6078Z" stroke="#C5F529" stroke-width="3.375" stroke-linecap="round" stroke-linejoin="round"/>
<path d="M27 41.8975C26.5828 41.8975 26.175 41.7737 25.8281 41.542C25.4812 41.3102 25.2108 40.9807 25.0512 40.5953C24.8915 40.2099 24.8498 39.7857 24.9312 39.3766C25.0125 38.9674 25.2134 38.5915 25.5084 38.2965C25.8034 38.0015 26.1793 37.8006 26.5885 37.7192C26.9977 37.6379 27.4218 37.6796 27.8072 37.8393C28.1927 37.9989 28.5221 38.2693 28.7539 38.6162C28.9857 38.9631 29.1094 39.3709 29.1094 39.7881C29.1094 40.3475 28.8871 40.8841 28.4916 41.2796C28.096 41.6752 27.5594 41.8975 27 41.8975Z" fill="#C5F529"/>
</svg>
