<svg width="32" height="32" viewBox="0 0 32 32" fill="none" xmlns="http://www.w3.org/2000/svg">
<path d="M22.0002 29.0017C22.0002 29.2669 21.8948 29.5213 21.7073 29.7088C21.5197 29.8964 21.2654 30.0017 21.0002 30.0017H11.0002C10.7349 30.0017 10.4806 29.8964 10.2931 29.7088C10.1055 29.5213 10.0002 29.2669 10.0002 29.0017C10.0002 28.7365 10.1055 28.4822 10.2931 28.2946C10.4806 28.1071 10.7349 28.0017 11.0002 28.0017H21.0002C21.2654 28.0017 21.5197 28.1071 21.7073 28.2946C21.8948 28.4822 22.0002 28.7365 22.0002 29.0017ZM27.0002 13.0017C27.0045 14.6688 26.6279 16.3148 25.8991 17.8141C25.1704 19.3134 24.1087 20.6265 22.7952 21.653C22.5496 21.8412 22.3502 22.0832 22.2125 22.3603C22.0747 22.6373 22.0021 22.9423 22.0002 23.2517V24.0017C22.0002 24.5322 21.7894 25.0409 21.4144 25.4159C21.0393 25.791 20.5306 26.0017 20.0002 26.0017H12.0002C11.4697 26.0017 10.961 25.791 10.586 25.4159C10.2109 25.0409 10.0002 24.5322 10.0002 24.0017V23.2517C9.99996 22.946 9.92965 22.6443 9.79465 22.37C9.65965 22.0957 9.46355 21.8559 9.22141 21.6692C7.91116 20.6488 6.85022 19.3437 6.11889 17.8526C5.38755 16.3616 5.00499 14.7237 5.00016 13.063C4.96766 7.10548 9.78266 2.14423 15.7352 2.00173C17.2018 1.96638 18.6608 2.22479 20.0261 2.76175C21.3914 3.29871 22.6355 4.10336 23.6852 5.12834C24.7349 6.15333 25.5689 7.37794 26.1382 8.73009C26.7075 10.0822 27.0006 11.5346 27.0002 13.0017ZM25.0002 13.0017C25.0005 11.8013 24.7607 10.6129 24.2949 9.50659C23.8291 8.40024 23.1466 7.39825 22.2877 6.55962C21.4288 5.72098 20.4108 5.06265 19.2936 4.62336C18.1765 4.18408 16.9827 3.97272 15.7827 4.00173C10.9077 4.11673 6.97391 8.17548 7.00016 13.0505C7.00473 14.4087 7.31816 15.7481 7.91673 16.9674C8.5153 18.1866 9.38334 19.2537 10.4552 20.088C10.937 20.4625 11.3267 20.9424 11.5945 21.4907C11.8623 22.0391 12.001 22.6415 12.0002 23.2517V24.0017H20.0002V23.2517C20.0016 22.6397 20.1427 22.0361 20.4128 21.487C20.683 20.9378 21.075 20.4576 21.5589 20.083C22.634 19.2428 23.503 18.168 24.0994 16.9408C24.6958 15.7135 25.0039 14.3662 25.0002 13.0017ZM22.9864 11.8342C22.7271 10.3858 22.0303 9.05168 20.9897 8.01135C19.9492 6.97102 18.6149 6.27447 17.1664 6.01548C17.0369 5.99365 16.9043 5.99754 16.7763 6.02693C16.6483 6.05632 16.5274 6.11064 16.4203 6.18679C16.3133 6.26293 16.2223 6.35941 16.1526 6.47071C16.0829 6.58201 16.0357 6.70596 16.0139 6.83548C15.9921 6.96499 15.996 7.09754 16.0254 7.22555C16.0548 7.35357 16.1091 7.47454 16.1852 7.58156C16.2614 7.68858 16.3578 7.77955 16.4691 7.84928C16.5804 7.91902 16.7044 7.96615 16.8339 7.98798C18.9052 8.33673 20.6627 10.0942 21.0139 12.1692C21.0535 12.4021 21.1742 12.6135 21.3548 12.7659C21.5353 12.9183 21.7639 13.0018 22.0002 13.0017C22.0567 13.0014 22.1131 12.9968 22.1689 12.988C22.4303 12.9434 22.6633 12.7967 22.8166 12.5804C22.9699 12.364 23.031 12.0956 22.9864 11.8342Z" fill="#1D1D1D"/>
</svg>
