<svg version="1.2" xmlns="http://www.w3.org/2000/svg" viewBox="0 0 179 49" width="179" height="49"><style>.a{fill:#fff}</style><path class="a" d="m29.6 41c-0.5-0.2-0.7-0.8-0.6-1.3 0.1-0.7 0.4-1.2 0.8-1.7 1-1.6 1.9-3.2 2.5-4.9 0.3-0.8 0.5-1.5 0.3-2.3-0.2-0.6-0.5-0.9-1.1-1.1-1.3-0.6-2.6-0.3-3.9 0.4-1.3 0.6-2.4 1.5-3.6 2.5-2.3 1.8-4.5 3.8-6.8 5.7q-0.8 0.7-1.7 1.4-0.1 0-0.1 0.1c-0.8 0.6-0.8 1.2 0.1 1.6 1.9 1.2 4 1.9 6.3 2.2q1.8 0.4 3.7 0.3c3.1-0.1 6-0.8 8.7-2.2 4.5-2.4 7.8-5.9 9.6-10.6 0.7-1.7 1-3.4 1.2-5.1q0.4-4.1-0.7-8.1-0.5-1.8-1.2-3.4c-0.1-0.3-0.1-0.5 0.1-0.7q0.7-0.8 1.2-1.7 0.1-0.2 0.3-0.3c0.1 0 0.1 0.2 0.2 0.3 1.4 2.6 2.5 5.5 2.9 8.5 0.3 1.6 0.4 3.3 0.3 4.9-0.4 5.9-2.6 11.1-6.7 15.5-3 3.2-6.7 5.4-10.9 6.6-1.7 0.5-3.5 0.7-5.3 0.8q-3.4 0.1-6.6-0.6-3.9-0.9-7.2-3c-4.4-2.8-7.6-6.7-9.6-11.5-0.9-2.1-1.4-4.3-1.6-6.6q-0.3-2.2-0.2-4.4 0.3-4.3 2.1-8.2 2.4-5.3 7-9c3.2-2.5 6.9-4.1 10.9-4.8 1.9-0.3 3.8-0.4 5.7-0.2 4.1 0.2 7.9 1.4 11.3 3.6q1.1 0.8 2.2 1.6c0.2 0.2 0.2 0.3 0 0.6q-0.5 0.8-1.2 1.5c-0.2 0.2-0.3 0.3-0.6 0.1-2.7-2.3-5.8-3.7-9.2-4.3-5.5-0.9-10.5 0.3-14.9 3.6-4 2.9-6.6 6.7-7.8 11.5q-0.8 2.9-0.6 5.9c0.1 3.8 1.1 7.4 3.3 10.6 0.4 0.5 0.7 1.1 1.2 1.5q1.1 1.3 2.6 0.4c0.8-0.5 1.5-1.1 2.3-1.7 2.8-2.4 5.3-5.1 7.5-8.1 0.9-1.2 1.7-2.5 2.2-3.9q0.2-0.8 0.1-1.6c-0.1-0.9-0.6-1.4-1.3-1.7q-1.2-0.6-2.5-0.7c-2.5-0.1-4.8 0.7-6.9 1.9-0.6 0.3-1.2 0.6-1.8 0.7-0.6 0.2-1.2-0.3-1.1-0.9 0.1-0.3 0.2-0.6 0.4-0.9 1.5-1.9 3.4-3.2 5.6-4 2.1-0.8 4.2-1 6.3-1 1.4 0.1 2.8 0.1 4.2 0.2 2.6 0 5-0.6 7.2-1.8 2.6-1.4 4.6-3.3 6.4-5.4 0.7-0.8 1.3-1.7 2-2.5 0.4-0.5 0.7-0.9 1.4-0.9 0.4 0.1 0.8 0.3 0.9 0.8 0.2 0.7 0 1.4-0.3 2.1-0.6 2-1.7 3.8-2.9 5.6q-2.6 3.7-6.2 6.5c-1.3 1.1-2.4 2.4-3.4 3.7q-0.3 0.4-0.6 0.9c-0.3 0.3-0.2 0.5 0.3 0.6q0.8 0.1 1.7 0.3c1.1 0.3 2.2 0.8 3.1 1.6 1.3 1.2 1.7 2.7 1.4 4.4-0.4 1.9-1.3 3.5-2.4 5-1 1.5-2.2 3-3.7 4.2-0.4 0.4-0.8 0.7-1.4 0.9-0.3 0.1-0.6 0.2-0.9 0z"/><path class="a" d="m27.1 13.2c-1.3-0.3-2.5-1.7-2.5-3.6 0.1-1.5 1.2-3.1 2.8-3.4 2.1-0.5 4.1 0.7 4.5 3 0.3 2-1 3.9-3.1 4.2-0.6 0.1-1.2 0.1-1.7-0.2z"/><path class="a" d="m73.8 27.9q0-0.5-0.2-0.9-0.1-0.4-0.5-0.7-0.4-0.3-1.1-0.6-0.7-0.3-1.7-0.7-1.2-0.3-2-0.7-0.9-0.4-1.6-0.9-0.6-0.5-0.9-1.2-0.4-0.7-0.4-1.6 0-0.8 0.4-1.6 0.3-0.7 1-1.3 0.7-0.5 1.6-0.8 0.9-0.3 2.1-0.3 1.7 0 2.8 0.6 1.2 0.7 1.8 1.7 0.6 1 0.6 2.2h-1.9q0-0.9-0.4-1.5-0.3-0.7-1.1-1-0.7-0.4-1.8-0.4-1.1 0-1.8 0.3-0.6 0.3-1 0.9-0.3 0.5-0.3 1.2 0 0.5 0.2 0.9 0.2 0.4 0.6 0.7 0.4 0.3 1.1 0.6 0.7 0.3 1.6 0.5 1.3 0.4 2.2 0.8 0.9 0.5 1.5 1 0.6 0.6 0.9 1.3 0.3 0.6 0.3 1.5 0 0.9-0.4 1.7-0.3 0.7-1 1.2-0.7 0.6-1.7 0.8-0.9 0.3-2.1 0.3-1.1 0-2.1-0.3-1-0.3-1.8-0.8-0.8-0.6-1.3-1.4-0.5-0.9-0.5-2h2q0 0.8 0.3 1.3 0.3 0.6 0.8 0.9 0.5 0.4 1.2 0.5 0.7 0.2 1.4 0.2 1 0 1.7-0.3 0.8-0.3 1.1-0.8 0.4-0.5 0.4-1.3zm11 1.3v-8.6h1.9v11.1h-1.8zm0.4-2.3h0.8q0 1.1-0.3 2-0.2 0.9-0.7 1.6-0.5 0.7-1.4 1.1-0.8 0.4-2 0.4-0.8 0-1.5-0.3-0.6-0.2-1.1-0.7-0.5-0.5-0.8-1.3-0.2-0.8-0.2-1.9v-7.1h1.9v7.2q0 0.7 0.1 1.2 0.2 0.5 0.5 0.8 0.3 0.2 0.7 0.4 0.3 0.1 0.7 0.1 1.2 0 1.9-0.5 0.7-0.5 1-1.3 0.4-0.8 0.4-1.7zm6.3-3.8v8.7h-1.9v-11.1h1.8zm-0.5 2.7h-0.7q0-1.1 0.3-2.1 0.3-1 0.9-1.7 0.6-0.7 1.4-1.1 0.9-0.4 1.9-0.4 0.8 0 1.4 0.2 0.7 0.2 1.2 0.7 0.4 0.5 0.7 1.3 0.2 0.7 0.2 1.8v7.3h-1.9v-7.3q0-0.9-0.2-1.4-0.3-0.5-0.8-0.7-0.5-0.3-1.2-0.3-0.7 0-1.3 0.3-0.6 0.3-1 0.8-0.4 0.5-0.6 1.2-0.3 0.7-0.3 1.4zm12.1-2.7v8.7h-1.9v-11.1h1.8zm-0.4 2.8l-0.8-0.1q0-1.1 0.3-2.1 0.3-0.9 0.9-1.7 0.6-0.7 1.4-1.1 0.9-0.4 1.9-0.4 0.8 0 1.5 0.3 0.6 0.2 1.1 0.7 0.4 0.4 0.7 1.2 0.2 0.8 0.2 1.9v7.2h-1.9v-7.3q0-0.8-0.2-1.3-0.3-0.6-0.8-0.8-0.5-0.3-1.2-0.3-0.7 0-1.3 0.3-0.6 0.3-1 0.9-0.4 0.5-0.6 1.2-0.2 0.6-0.2 1.4zm24.2-9h1.9v10.1q0 1.7-0.7 2.8-0.8 1.1-2 1.7-1.2 0.5-2.7 0.5-1.5 0-2.7-0.5-1.3-0.6-2-1.7-0.7-1.1-0.7-2.8v-10.1h2v10.1q0 1.2 0.4 1.9 0.4 0.8 1.2 1.2 0.8 0.3 1.8 0.3 1 0 1.8-0.3 0.8-0.4 1.2-1.2 0.5-0.7 0.5-1.9zm9.4 3.8v1.5h-6v-1.5zm-4-2.7h1.9v11.1q0 0.6 0.2 0.8 0.2 0.3 0.4 0.4 0.3 0.1 0.6 0.1 0.3 0 0.5 0 0.3-0.1 0.4-0.1v1.5q-0.2 0.1-0.6 0.2-0.3 0-0.8 0-0.7 0-1.3-0.2-0.6-0.3-0.9-1-0.4-0.6-0.4-1.7zm14.8 1.4l-6.8 13.8h-1.2l6.8-13.8zm-9.2 6.9v-0.2q0-1.2 0.4-2.2 0.3-1 1-1.8 0.7-0.8 1.6-1.2 0.9-0.4 2.1-0.4 1.2 0 2.1 0.4 0.9 0.4 1.6 1.2 0.6 0.8 1 1.8 0.3 1 0.3 2.2v0.2q0 1.2-0.3 2.3-0.4 1-1 1.8-0.7 0.7-1.6 1.2-0.9 0.4-2.1 0.4-1.2 0-2.1-0.4-0.9-0.5-1.6-1.2-0.7-0.8-1-1.8-0.4-1.1-0.4-2.3zm1.9-0.2v0.2q0 0.9 0.2 1.6 0.2 0.7 0.6 1.3 0.4 0.6 1 0.9 0.6 0.3 1.4 0.3 0.8 0 1.4-0.3 0.6-0.3 1-0.9 0.3-0.6 0.5-1.3 0.2-0.7 0.2-1.6v-0.2q0-0.8-0.2-1.5-0.2-0.8-0.6-1.3-0.3-0.6-0.9-0.9-0.6-0.4-1.4-0.4-0.8 0-1.4 0.4-0.6 0.3-1 0.9-0.4 0.5-0.6 1.3-0.2 0.7-0.2 1.5zm13.9 4l3.1-9.4h1.9l-4 11.1h-1.2zm-2.6-9.4l3.1 9.4 0.3 1.7h-1.3l-4-11.1zm13.8 11.3q-1.2 0-2.1-0.4-1-0.4-1.6-1.1-0.7-0.7-1.1-1.7-0.3-1-0.3-2.2v-0.4q0-1.4 0.4-2.4 0.4-1.1 1.1-1.8 0.6-0.8 1.5-1.1 0.9-0.4 1.8-0.4 1.2 0 2.1 0.4 0.8 0.4 1.4 1.1 0.5 0.8 0.8 1.8 0.3 1 0.3 2.1v0.9h-8.3v-1.6h6.4v-0.1q-0.1-0.8-0.3-1.5-0.3-0.7-0.8-1.1-0.6-0.5-1.6-0.5-0.6 0-1.2 0.3-0.5 0.3-0.9 0.8-0.4 0.6-0.6 1.3-0.2 0.8-0.2 1.8v0.4q0 0.8 0.2 1.5 0.2 0.7 0.6 1.2 0.5 0.5 1.1 0.8 0.6 0.3 1.4 0.3 1 0 1.7-0.4 0.7-0.4 1.2-1.1l1.1 0.9q-0.3 0.6-0.9 1.1-0.5 0.5-1.3 0.8-0.8 0.3-1.9 0.3zm8.4-9.6v9.4h-1.9v-11.1h1.8zm3.5-1.8v1.7q-0.2 0-0.5 0-0.2 0-0.4 0-0.7 0-1.2 0.2-0.5 0.2-0.8 0.5-0.4 0.4-0.6 0.9-0.2 0.5-0.2 1.1l-0.6 0.3q0-1 0.2-1.8 0.2-0.9 0.6-1.6 0.5-0.7 1.1-1.1 0.7-0.4 1.6-0.4 0.2 0 0.4 0.1 0.3 0 0.4 0.1z"/></svg>